G04 EAGLE Gerber RS-274X export*
G75*
%MOMM*%
%FSLAX34Y34*%
%LPD*%
%INBoard Outline*%
%IPPOS*%
%AMOC8*
5,1,8,0,0,1.08239X$1,22.5*%
G01*
%ADD10C,0.000000*%
%ADD11C,0.254000*%


D10*
X-806450Y0D02*
X806450Y0D01*
X806450Y88900D01*
X1851914Y88900D01*
X1851914Y1790700D01*
X-942086Y1790700D01*
X-942086Y88900D01*
X-806450Y88900D01*
X-806450Y0D01*
X640588Y1638300D02*
X640594Y1638786D01*
X640612Y1639272D01*
X640642Y1639757D01*
X640683Y1640242D01*
X640737Y1640725D01*
X640802Y1641207D01*
X640880Y1641687D01*
X640969Y1642165D01*
X641069Y1642641D01*
X641182Y1643114D01*
X641306Y1643584D01*
X641441Y1644051D01*
X641588Y1644515D01*
X641746Y1644974D01*
X641916Y1645430D01*
X642096Y1645882D01*
X642288Y1646329D01*
X642490Y1646771D01*
X642703Y1647208D01*
X642927Y1647639D01*
X643162Y1648065D01*
X643407Y1648485D01*
X643662Y1648899D01*
X643927Y1649307D01*
X644202Y1649708D01*
X644487Y1650102D01*
X644781Y1650489D01*
X645085Y1650869D01*
X645398Y1651241D01*
X645720Y1651605D01*
X646051Y1651961D01*
X646391Y1652309D01*
X646739Y1652649D01*
X647095Y1652980D01*
X647459Y1653302D01*
X647831Y1653615D01*
X648211Y1653919D01*
X648598Y1654213D01*
X648992Y1654498D01*
X649393Y1654773D01*
X649801Y1655038D01*
X650215Y1655293D01*
X650635Y1655538D01*
X651061Y1655773D01*
X651492Y1655997D01*
X651929Y1656210D01*
X652371Y1656412D01*
X652818Y1656604D01*
X653270Y1656784D01*
X653726Y1656954D01*
X654185Y1657112D01*
X654649Y1657259D01*
X655116Y1657394D01*
X655586Y1657518D01*
X656059Y1657631D01*
X656535Y1657731D01*
X657013Y1657820D01*
X657493Y1657898D01*
X657975Y1657963D01*
X658458Y1658017D01*
X658943Y1658058D01*
X659428Y1658088D01*
X659914Y1658106D01*
X660400Y1658112D01*
X660886Y1658106D01*
X661372Y1658088D01*
X661857Y1658058D01*
X662342Y1658017D01*
X662825Y1657963D01*
X663307Y1657898D01*
X663787Y1657820D01*
X664265Y1657731D01*
X664741Y1657631D01*
X665214Y1657518D01*
X665684Y1657394D01*
X666151Y1657259D01*
X666615Y1657112D01*
X667074Y1656954D01*
X667530Y1656784D01*
X667982Y1656604D01*
X668429Y1656412D01*
X668871Y1656210D01*
X669308Y1655997D01*
X669739Y1655773D01*
X670165Y1655538D01*
X670585Y1655293D01*
X670999Y1655038D01*
X671407Y1654773D01*
X671808Y1654498D01*
X672202Y1654213D01*
X672589Y1653919D01*
X672969Y1653615D01*
X673341Y1653302D01*
X673705Y1652980D01*
X674061Y1652649D01*
X674409Y1652309D01*
X674749Y1651961D01*
X675080Y1651605D01*
X675402Y1651241D01*
X675715Y1650869D01*
X676019Y1650489D01*
X676313Y1650102D01*
X676598Y1649708D01*
X676873Y1649307D01*
X677138Y1648899D01*
X677393Y1648485D01*
X677638Y1648065D01*
X677873Y1647639D01*
X678097Y1647208D01*
X678310Y1646771D01*
X678512Y1646329D01*
X678704Y1645882D01*
X678884Y1645430D01*
X679054Y1644974D01*
X679212Y1644515D01*
X679359Y1644051D01*
X679494Y1643584D01*
X679618Y1643114D01*
X679731Y1642641D01*
X679831Y1642165D01*
X679920Y1641687D01*
X679998Y1641207D01*
X680063Y1640725D01*
X680117Y1640242D01*
X680158Y1639757D01*
X680188Y1639272D01*
X680206Y1638786D01*
X680212Y1638300D01*
X680206Y1637814D01*
X680188Y1637328D01*
X680158Y1636843D01*
X680117Y1636358D01*
X680063Y1635875D01*
X679998Y1635393D01*
X679920Y1634913D01*
X679831Y1634435D01*
X679731Y1633959D01*
X679618Y1633486D01*
X679494Y1633016D01*
X679359Y1632549D01*
X679212Y1632085D01*
X679054Y1631626D01*
X678884Y1631170D01*
X678704Y1630718D01*
X678512Y1630271D01*
X678310Y1629829D01*
X678097Y1629392D01*
X677873Y1628961D01*
X677638Y1628535D01*
X677393Y1628115D01*
X677138Y1627701D01*
X676873Y1627293D01*
X676598Y1626892D01*
X676313Y1626498D01*
X676019Y1626111D01*
X675715Y1625731D01*
X675402Y1625359D01*
X675080Y1624995D01*
X674749Y1624639D01*
X674409Y1624291D01*
X674061Y1623951D01*
X673705Y1623620D01*
X673341Y1623298D01*
X672969Y1622985D01*
X672589Y1622681D01*
X672202Y1622387D01*
X671808Y1622102D01*
X671407Y1621827D01*
X670999Y1621562D01*
X670585Y1621307D01*
X670165Y1621062D01*
X669739Y1620827D01*
X669308Y1620603D01*
X668871Y1620390D01*
X668429Y1620188D01*
X667982Y1619996D01*
X667530Y1619816D01*
X667074Y1619646D01*
X666615Y1619488D01*
X666151Y1619341D01*
X665684Y1619206D01*
X665214Y1619082D01*
X664741Y1618969D01*
X664265Y1618869D01*
X663787Y1618780D01*
X663307Y1618702D01*
X662825Y1618637D01*
X662342Y1618583D01*
X661857Y1618542D01*
X661372Y1618512D01*
X660886Y1618494D01*
X660400Y1618488D01*
X659914Y1618494D01*
X659428Y1618512D01*
X658943Y1618542D01*
X658458Y1618583D01*
X657975Y1618637D01*
X657493Y1618702D01*
X657013Y1618780D01*
X656535Y1618869D01*
X656059Y1618969D01*
X655586Y1619082D01*
X655116Y1619206D01*
X654649Y1619341D01*
X654185Y1619488D01*
X653726Y1619646D01*
X653270Y1619816D01*
X652818Y1619996D01*
X652371Y1620188D01*
X651929Y1620390D01*
X651492Y1620603D01*
X651061Y1620827D01*
X650635Y1621062D01*
X650215Y1621307D01*
X649801Y1621562D01*
X649393Y1621827D01*
X648992Y1622102D01*
X648598Y1622387D01*
X648211Y1622681D01*
X647831Y1622985D01*
X647459Y1623298D01*
X647095Y1623620D01*
X646739Y1623951D01*
X646391Y1624291D01*
X646051Y1624639D01*
X645720Y1624995D01*
X645398Y1625359D01*
X645085Y1625731D01*
X644781Y1626111D01*
X644487Y1626498D01*
X644202Y1626892D01*
X643927Y1627293D01*
X643662Y1627701D01*
X643407Y1628115D01*
X643162Y1628535D01*
X642927Y1628961D01*
X642703Y1629392D01*
X642490Y1629829D01*
X642288Y1630271D01*
X642096Y1630718D01*
X641916Y1631170D01*
X641746Y1631626D01*
X641588Y1632085D01*
X641441Y1632549D01*
X641306Y1633016D01*
X641182Y1633486D01*
X641069Y1633959D01*
X640969Y1634435D01*
X640880Y1634913D01*
X640802Y1635393D01*
X640737Y1635875D01*
X640683Y1636358D01*
X640642Y1636843D01*
X640612Y1637328D01*
X640594Y1637814D01*
X640588Y1638300D01*
X-324612Y1638300D02*
X-324606Y1638786D01*
X-324588Y1639272D01*
X-324558Y1639757D01*
X-324517Y1640242D01*
X-324463Y1640725D01*
X-324398Y1641207D01*
X-324320Y1641687D01*
X-324231Y1642165D01*
X-324131Y1642641D01*
X-324018Y1643114D01*
X-323894Y1643584D01*
X-323759Y1644051D01*
X-323612Y1644515D01*
X-323454Y1644974D01*
X-323284Y1645430D01*
X-323104Y1645882D01*
X-322912Y1646329D01*
X-322710Y1646771D01*
X-322497Y1647208D01*
X-322273Y1647639D01*
X-322038Y1648065D01*
X-321793Y1648485D01*
X-321538Y1648899D01*
X-321273Y1649307D01*
X-320998Y1649708D01*
X-320713Y1650102D01*
X-320419Y1650489D01*
X-320115Y1650869D01*
X-319802Y1651241D01*
X-319480Y1651605D01*
X-319149Y1651961D01*
X-318809Y1652309D01*
X-318461Y1652649D01*
X-318105Y1652980D01*
X-317741Y1653302D01*
X-317369Y1653615D01*
X-316989Y1653919D01*
X-316602Y1654213D01*
X-316208Y1654498D01*
X-315807Y1654773D01*
X-315399Y1655038D01*
X-314985Y1655293D01*
X-314565Y1655538D01*
X-314139Y1655773D01*
X-313708Y1655997D01*
X-313271Y1656210D01*
X-312829Y1656412D01*
X-312382Y1656604D01*
X-311930Y1656784D01*
X-311474Y1656954D01*
X-311015Y1657112D01*
X-310551Y1657259D01*
X-310084Y1657394D01*
X-309614Y1657518D01*
X-309141Y1657631D01*
X-308665Y1657731D01*
X-308187Y1657820D01*
X-307707Y1657898D01*
X-307225Y1657963D01*
X-306742Y1658017D01*
X-306257Y1658058D01*
X-305772Y1658088D01*
X-305286Y1658106D01*
X-304800Y1658112D01*
X-304314Y1658106D01*
X-303828Y1658088D01*
X-303343Y1658058D01*
X-302858Y1658017D01*
X-302375Y1657963D01*
X-301893Y1657898D01*
X-301413Y1657820D01*
X-300935Y1657731D01*
X-300459Y1657631D01*
X-299986Y1657518D01*
X-299516Y1657394D01*
X-299049Y1657259D01*
X-298585Y1657112D01*
X-298126Y1656954D01*
X-297670Y1656784D01*
X-297218Y1656604D01*
X-296771Y1656412D01*
X-296329Y1656210D01*
X-295892Y1655997D01*
X-295461Y1655773D01*
X-295035Y1655538D01*
X-294615Y1655293D01*
X-294201Y1655038D01*
X-293793Y1654773D01*
X-293392Y1654498D01*
X-292998Y1654213D01*
X-292611Y1653919D01*
X-292231Y1653615D01*
X-291859Y1653302D01*
X-291495Y1652980D01*
X-291139Y1652649D01*
X-290791Y1652309D01*
X-290451Y1651961D01*
X-290120Y1651605D01*
X-289798Y1651241D01*
X-289485Y1650869D01*
X-289181Y1650489D01*
X-288887Y1650102D01*
X-288602Y1649708D01*
X-288327Y1649307D01*
X-288062Y1648899D01*
X-287807Y1648485D01*
X-287562Y1648065D01*
X-287327Y1647639D01*
X-287103Y1647208D01*
X-286890Y1646771D01*
X-286688Y1646329D01*
X-286496Y1645882D01*
X-286316Y1645430D01*
X-286146Y1644974D01*
X-285988Y1644515D01*
X-285841Y1644051D01*
X-285706Y1643584D01*
X-285582Y1643114D01*
X-285469Y1642641D01*
X-285369Y1642165D01*
X-285280Y1641687D01*
X-285202Y1641207D01*
X-285137Y1640725D01*
X-285083Y1640242D01*
X-285042Y1639757D01*
X-285012Y1639272D01*
X-284994Y1638786D01*
X-284988Y1638300D01*
X-284994Y1637814D01*
X-285012Y1637328D01*
X-285042Y1636843D01*
X-285083Y1636358D01*
X-285137Y1635875D01*
X-285202Y1635393D01*
X-285280Y1634913D01*
X-285369Y1634435D01*
X-285469Y1633959D01*
X-285582Y1633486D01*
X-285706Y1633016D01*
X-285841Y1632549D01*
X-285988Y1632085D01*
X-286146Y1631626D01*
X-286316Y1631170D01*
X-286496Y1630718D01*
X-286688Y1630271D01*
X-286890Y1629829D01*
X-287103Y1629392D01*
X-287327Y1628961D01*
X-287562Y1628535D01*
X-287807Y1628115D01*
X-288062Y1627701D01*
X-288327Y1627293D01*
X-288602Y1626892D01*
X-288887Y1626498D01*
X-289181Y1626111D01*
X-289485Y1625731D01*
X-289798Y1625359D01*
X-290120Y1624995D01*
X-290451Y1624639D01*
X-290791Y1624291D01*
X-291139Y1623951D01*
X-291495Y1623620D01*
X-291859Y1623298D01*
X-292231Y1622985D01*
X-292611Y1622681D01*
X-292998Y1622387D01*
X-293392Y1622102D01*
X-293793Y1621827D01*
X-294201Y1621562D01*
X-294615Y1621307D01*
X-295035Y1621062D01*
X-295461Y1620827D01*
X-295892Y1620603D01*
X-296329Y1620390D01*
X-296771Y1620188D01*
X-297218Y1619996D01*
X-297670Y1619816D01*
X-298126Y1619646D01*
X-298585Y1619488D01*
X-299049Y1619341D01*
X-299516Y1619206D01*
X-299986Y1619082D01*
X-300459Y1618969D01*
X-300935Y1618869D01*
X-301413Y1618780D01*
X-301893Y1618702D01*
X-302375Y1618637D01*
X-302858Y1618583D01*
X-303343Y1618542D01*
X-303828Y1618512D01*
X-304314Y1618494D01*
X-304800Y1618488D01*
X-305286Y1618494D01*
X-305772Y1618512D01*
X-306257Y1618542D01*
X-306742Y1618583D01*
X-307225Y1618637D01*
X-307707Y1618702D01*
X-308187Y1618780D01*
X-308665Y1618869D01*
X-309141Y1618969D01*
X-309614Y1619082D01*
X-310084Y1619206D01*
X-310551Y1619341D01*
X-311015Y1619488D01*
X-311474Y1619646D01*
X-311930Y1619816D01*
X-312382Y1619996D01*
X-312829Y1620188D01*
X-313271Y1620390D01*
X-313708Y1620603D01*
X-314139Y1620827D01*
X-314565Y1621062D01*
X-314985Y1621307D01*
X-315399Y1621562D01*
X-315807Y1621827D01*
X-316208Y1622102D01*
X-316602Y1622387D01*
X-316989Y1622681D01*
X-317369Y1622985D01*
X-317741Y1623298D01*
X-318105Y1623620D01*
X-318461Y1623951D01*
X-318809Y1624291D01*
X-319149Y1624639D01*
X-319480Y1624995D01*
X-319802Y1625359D01*
X-320115Y1625731D01*
X-320419Y1626111D01*
X-320713Y1626498D01*
X-320998Y1626892D01*
X-321273Y1627293D01*
X-321538Y1627701D01*
X-321793Y1628115D01*
X-322038Y1628535D01*
X-322273Y1628961D01*
X-322497Y1629392D01*
X-322710Y1629829D01*
X-322912Y1630271D01*
X-323104Y1630718D01*
X-323284Y1631170D01*
X-323454Y1631626D01*
X-323612Y1632085D01*
X-323759Y1632549D01*
X-323894Y1633016D01*
X-324018Y1633486D01*
X-324131Y1633959D01*
X-324231Y1634435D01*
X-324320Y1634913D01*
X-324398Y1635393D01*
X-324463Y1635875D01*
X-324517Y1636358D01*
X-324558Y1636843D01*
X-324588Y1637328D01*
X-324606Y1637814D01*
X-324612Y1638300D01*
X970788Y1308100D02*
X970794Y1308586D01*
X970812Y1309072D01*
X970842Y1309557D01*
X970883Y1310042D01*
X970937Y1310525D01*
X971002Y1311007D01*
X971080Y1311487D01*
X971169Y1311965D01*
X971269Y1312441D01*
X971382Y1312914D01*
X971506Y1313384D01*
X971641Y1313851D01*
X971788Y1314315D01*
X971946Y1314774D01*
X972116Y1315230D01*
X972296Y1315682D01*
X972488Y1316129D01*
X972690Y1316571D01*
X972903Y1317008D01*
X973127Y1317439D01*
X973362Y1317865D01*
X973607Y1318285D01*
X973862Y1318699D01*
X974127Y1319107D01*
X974402Y1319508D01*
X974687Y1319902D01*
X974981Y1320289D01*
X975285Y1320669D01*
X975598Y1321041D01*
X975920Y1321405D01*
X976251Y1321761D01*
X976591Y1322109D01*
X976939Y1322449D01*
X977295Y1322780D01*
X977659Y1323102D01*
X978031Y1323415D01*
X978411Y1323719D01*
X978798Y1324013D01*
X979192Y1324298D01*
X979593Y1324573D01*
X980001Y1324838D01*
X980415Y1325093D01*
X980835Y1325338D01*
X981261Y1325573D01*
X981692Y1325797D01*
X982129Y1326010D01*
X982571Y1326212D01*
X983018Y1326404D01*
X983470Y1326584D01*
X983926Y1326754D01*
X984385Y1326912D01*
X984849Y1327059D01*
X985316Y1327194D01*
X985786Y1327318D01*
X986259Y1327431D01*
X986735Y1327531D01*
X987213Y1327620D01*
X987693Y1327698D01*
X988175Y1327763D01*
X988658Y1327817D01*
X989143Y1327858D01*
X989628Y1327888D01*
X990114Y1327906D01*
X990600Y1327912D01*
X991086Y1327906D01*
X991572Y1327888D01*
X992057Y1327858D01*
X992542Y1327817D01*
X993025Y1327763D01*
X993507Y1327698D01*
X993987Y1327620D01*
X994465Y1327531D01*
X994941Y1327431D01*
X995414Y1327318D01*
X995884Y1327194D01*
X996351Y1327059D01*
X996815Y1326912D01*
X997274Y1326754D01*
X997730Y1326584D01*
X998182Y1326404D01*
X998629Y1326212D01*
X999071Y1326010D01*
X999508Y1325797D01*
X999939Y1325573D01*
X1000365Y1325338D01*
X1000785Y1325093D01*
X1001199Y1324838D01*
X1001607Y1324573D01*
X1002008Y1324298D01*
X1002402Y1324013D01*
X1002789Y1323719D01*
X1003169Y1323415D01*
X1003541Y1323102D01*
X1003905Y1322780D01*
X1004261Y1322449D01*
X1004609Y1322109D01*
X1004949Y1321761D01*
X1005280Y1321405D01*
X1005602Y1321041D01*
X1005915Y1320669D01*
X1006219Y1320289D01*
X1006513Y1319902D01*
X1006798Y1319508D01*
X1007073Y1319107D01*
X1007338Y1318699D01*
X1007593Y1318285D01*
X1007838Y1317865D01*
X1008073Y1317439D01*
X1008297Y1317008D01*
X1008510Y1316571D01*
X1008712Y1316129D01*
X1008904Y1315682D01*
X1009084Y1315230D01*
X1009254Y1314774D01*
X1009412Y1314315D01*
X1009559Y1313851D01*
X1009694Y1313384D01*
X1009818Y1312914D01*
X1009931Y1312441D01*
X1010031Y1311965D01*
X1010120Y1311487D01*
X1010198Y1311007D01*
X1010263Y1310525D01*
X1010317Y1310042D01*
X1010358Y1309557D01*
X1010388Y1309072D01*
X1010406Y1308586D01*
X1010412Y1308100D01*
X1010406Y1307614D01*
X1010388Y1307128D01*
X1010358Y1306643D01*
X1010317Y1306158D01*
X1010263Y1305675D01*
X1010198Y1305193D01*
X1010120Y1304713D01*
X1010031Y1304235D01*
X1009931Y1303759D01*
X1009818Y1303286D01*
X1009694Y1302816D01*
X1009559Y1302349D01*
X1009412Y1301885D01*
X1009254Y1301426D01*
X1009084Y1300970D01*
X1008904Y1300518D01*
X1008712Y1300071D01*
X1008510Y1299629D01*
X1008297Y1299192D01*
X1008073Y1298761D01*
X1007838Y1298335D01*
X1007593Y1297915D01*
X1007338Y1297501D01*
X1007073Y1297093D01*
X1006798Y1296692D01*
X1006513Y1296298D01*
X1006219Y1295911D01*
X1005915Y1295531D01*
X1005602Y1295159D01*
X1005280Y1294795D01*
X1004949Y1294439D01*
X1004609Y1294091D01*
X1004261Y1293751D01*
X1003905Y1293420D01*
X1003541Y1293098D01*
X1003169Y1292785D01*
X1002789Y1292481D01*
X1002402Y1292187D01*
X1002008Y1291902D01*
X1001607Y1291627D01*
X1001199Y1291362D01*
X1000785Y1291107D01*
X1000365Y1290862D01*
X999939Y1290627D01*
X999508Y1290403D01*
X999071Y1290190D01*
X998629Y1289988D01*
X998182Y1289796D01*
X997730Y1289616D01*
X997274Y1289446D01*
X996815Y1289288D01*
X996351Y1289141D01*
X995884Y1289006D01*
X995414Y1288882D01*
X994941Y1288769D01*
X994465Y1288669D01*
X993987Y1288580D01*
X993507Y1288502D01*
X993025Y1288437D01*
X992542Y1288383D01*
X992057Y1288342D01*
X991572Y1288312D01*
X991086Y1288294D01*
X990600Y1288288D01*
X990114Y1288294D01*
X989628Y1288312D01*
X989143Y1288342D01*
X988658Y1288383D01*
X988175Y1288437D01*
X987693Y1288502D01*
X987213Y1288580D01*
X986735Y1288669D01*
X986259Y1288769D01*
X985786Y1288882D01*
X985316Y1289006D01*
X984849Y1289141D01*
X984385Y1289288D01*
X983926Y1289446D01*
X983470Y1289616D01*
X983018Y1289796D01*
X982571Y1289988D01*
X982129Y1290190D01*
X981692Y1290403D01*
X981261Y1290627D01*
X980835Y1290862D01*
X980415Y1291107D01*
X980001Y1291362D01*
X979593Y1291627D01*
X979192Y1291902D01*
X978798Y1292187D01*
X978411Y1292481D01*
X978031Y1292785D01*
X977659Y1293098D01*
X977295Y1293420D01*
X976939Y1293751D01*
X976591Y1294091D01*
X976251Y1294439D01*
X975920Y1294795D01*
X975598Y1295159D01*
X975285Y1295531D01*
X974981Y1295911D01*
X974687Y1296298D01*
X974402Y1296692D01*
X974127Y1297093D01*
X973862Y1297501D01*
X973607Y1297915D01*
X973362Y1298335D01*
X973127Y1298761D01*
X972903Y1299192D01*
X972690Y1299629D01*
X972488Y1300071D01*
X972296Y1300518D01*
X972116Y1300970D01*
X971946Y1301426D01*
X971788Y1301885D01*
X971641Y1302349D01*
X971506Y1302816D01*
X971382Y1303286D01*
X971269Y1303759D01*
X971169Y1304235D01*
X971080Y1304713D01*
X971002Y1305193D01*
X970937Y1305675D01*
X970883Y1306158D01*
X970842Y1306643D01*
X970812Y1307128D01*
X970794Y1307614D01*
X970788Y1308100D01*
X293900Y1554000D02*
X293903Y1554209D01*
X293910Y1554417D01*
X293923Y1554625D01*
X293941Y1554833D01*
X293964Y1555040D01*
X293992Y1555247D01*
X294025Y1555453D01*
X294063Y1555658D01*
X294107Y1555862D01*
X294155Y1556065D01*
X294208Y1556267D01*
X294266Y1556467D01*
X294329Y1556666D01*
X294397Y1556864D01*
X294470Y1557059D01*
X294547Y1557253D01*
X294629Y1557445D01*
X294716Y1557634D01*
X294808Y1557822D01*
X294904Y1558007D01*
X295004Y1558190D01*
X295109Y1558370D01*
X295219Y1558547D01*
X295333Y1558722D01*
X295451Y1558894D01*
X295573Y1559063D01*
X295699Y1559229D01*
X295829Y1559392D01*
X295964Y1559552D01*
X296102Y1559708D01*
X296244Y1559861D01*
X296390Y1560010D01*
X296539Y1560156D01*
X296692Y1560298D01*
X296848Y1560436D01*
X297008Y1560571D01*
X297171Y1560701D01*
X297337Y1560827D01*
X297506Y1560949D01*
X297678Y1561067D01*
X297853Y1561181D01*
X298030Y1561291D01*
X298210Y1561396D01*
X298393Y1561496D01*
X298578Y1561592D01*
X298766Y1561684D01*
X298955Y1561771D01*
X299147Y1561853D01*
X299341Y1561930D01*
X299536Y1562003D01*
X299734Y1562071D01*
X299933Y1562134D01*
X300133Y1562192D01*
X300335Y1562245D01*
X300538Y1562293D01*
X300742Y1562337D01*
X300947Y1562375D01*
X301153Y1562408D01*
X301360Y1562436D01*
X301567Y1562459D01*
X301775Y1562477D01*
X301983Y1562490D01*
X302191Y1562497D01*
X302400Y1562500D01*
X302609Y1562497D01*
X302817Y1562490D01*
X303025Y1562477D01*
X303233Y1562459D01*
X303440Y1562436D01*
X303647Y1562408D01*
X303853Y1562375D01*
X304058Y1562337D01*
X304262Y1562293D01*
X304465Y1562245D01*
X304667Y1562192D01*
X304867Y1562134D01*
X305066Y1562071D01*
X305264Y1562003D01*
X305459Y1561930D01*
X305653Y1561853D01*
X305845Y1561771D01*
X306034Y1561684D01*
X306222Y1561592D01*
X306407Y1561496D01*
X306590Y1561396D01*
X306770Y1561291D01*
X306947Y1561181D01*
X307122Y1561067D01*
X307294Y1560949D01*
X307463Y1560827D01*
X307629Y1560701D01*
X307792Y1560571D01*
X307952Y1560436D01*
X308108Y1560298D01*
X308261Y1560156D01*
X308410Y1560010D01*
X308556Y1559861D01*
X308698Y1559708D01*
X308836Y1559552D01*
X308971Y1559392D01*
X309101Y1559229D01*
X309227Y1559063D01*
X309349Y1558894D01*
X309467Y1558722D01*
X309581Y1558547D01*
X309691Y1558370D01*
X309796Y1558190D01*
X309896Y1558007D01*
X309992Y1557822D01*
X310084Y1557634D01*
X310171Y1557445D01*
X310253Y1557253D01*
X310330Y1557059D01*
X310403Y1556864D01*
X310471Y1556666D01*
X310534Y1556467D01*
X310592Y1556267D01*
X310645Y1556065D01*
X310693Y1555862D01*
X310737Y1555658D01*
X310775Y1555453D01*
X310808Y1555247D01*
X310836Y1555040D01*
X310859Y1554833D01*
X310877Y1554625D01*
X310890Y1554417D01*
X310897Y1554209D01*
X310900Y1554000D01*
X310897Y1553791D01*
X310890Y1553583D01*
X310877Y1553375D01*
X310859Y1553167D01*
X310836Y1552960D01*
X310808Y1552753D01*
X310775Y1552547D01*
X310737Y1552342D01*
X310693Y1552138D01*
X310645Y1551935D01*
X310592Y1551733D01*
X310534Y1551533D01*
X310471Y1551334D01*
X310403Y1551136D01*
X310330Y1550941D01*
X310253Y1550747D01*
X310171Y1550555D01*
X310084Y1550366D01*
X309992Y1550178D01*
X309896Y1549993D01*
X309796Y1549810D01*
X309691Y1549630D01*
X309581Y1549453D01*
X309467Y1549278D01*
X309349Y1549106D01*
X309227Y1548937D01*
X309101Y1548771D01*
X308971Y1548608D01*
X308836Y1548448D01*
X308698Y1548292D01*
X308556Y1548139D01*
X308410Y1547990D01*
X308261Y1547844D01*
X308108Y1547702D01*
X307952Y1547564D01*
X307792Y1547429D01*
X307629Y1547299D01*
X307463Y1547173D01*
X307294Y1547051D01*
X307122Y1546933D01*
X306947Y1546819D01*
X306770Y1546709D01*
X306590Y1546604D01*
X306407Y1546504D01*
X306222Y1546408D01*
X306034Y1546316D01*
X305845Y1546229D01*
X305653Y1546147D01*
X305459Y1546070D01*
X305264Y1545997D01*
X305066Y1545929D01*
X304867Y1545866D01*
X304667Y1545808D01*
X304465Y1545755D01*
X304262Y1545707D01*
X304058Y1545663D01*
X303853Y1545625D01*
X303647Y1545592D01*
X303440Y1545564D01*
X303233Y1545541D01*
X303025Y1545523D01*
X302817Y1545510D01*
X302609Y1545503D01*
X302400Y1545500D01*
X302191Y1545503D01*
X301983Y1545510D01*
X301775Y1545523D01*
X301567Y1545541D01*
X301360Y1545564D01*
X301153Y1545592D01*
X300947Y1545625D01*
X300742Y1545663D01*
X300538Y1545707D01*
X300335Y1545755D01*
X300133Y1545808D01*
X299933Y1545866D01*
X299734Y1545929D01*
X299536Y1545997D01*
X299341Y1546070D01*
X299147Y1546147D01*
X298955Y1546229D01*
X298766Y1546316D01*
X298578Y1546408D01*
X298393Y1546504D01*
X298210Y1546604D01*
X298030Y1546709D01*
X297853Y1546819D01*
X297678Y1546933D01*
X297506Y1547051D01*
X297337Y1547173D01*
X297171Y1547299D01*
X297008Y1547429D01*
X296848Y1547564D01*
X296692Y1547702D01*
X296539Y1547844D01*
X296390Y1547990D01*
X296244Y1548139D01*
X296102Y1548292D01*
X295964Y1548448D01*
X295829Y1548608D01*
X295699Y1548771D01*
X295573Y1548937D01*
X295451Y1549106D01*
X295333Y1549278D01*
X295219Y1549453D01*
X295109Y1549630D01*
X295004Y1549810D01*
X294904Y1549993D01*
X294808Y1550178D01*
X294716Y1550366D01*
X294629Y1550555D01*
X294547Y1550747D01*
X294470Y1550941D01*
X294397Y1551136D01*
X294329Y1551334D01*
X294266Y1551533D01*
X294208Y1551733D01*
X294155Y1551935D01*
X294107Y1552138D01*
X294063Y1552342D01*
X294025Y1552547D01*
X293992Y1552753D01*
X293964Y1552960D01*
X293941Y1553167D01*
X293923Y1553375D01*
X293910Y1553583D01*
X293903Y1553791D01*
X293900Y1554000D01*
X-107700Y1554000D02*
X-107697Y1554209D01*
X-107690Y1554417D01*
X-107677Y1554625D01*
X-107659Y1554833D01*
X-107636Y1555040D01*
X-107608Y1555247D01*
X-107575Y1555453D01*
X-107537Y1555658D01*
X-107493Y1555862D01*
X-107445Y1556065D01*
X-107392Y1556267D01*
X-107334Y1556467D01*
X-107271Y1556666D01*
X-107203Y1556864D01*
X-107130Y1557059D01*
X-107053Y1557253D01*
X-106971Y1557445D01*
X-106884Y1557634D01*
X-106792Y1557822D01*
X-106696Y1558007D01*
X-106596Y1558190D01*
X-106491Y1558370D01*
X-106381Y1558547D01*
X-106267Y1558722D01*
X-106149Y1558894D01*
X-106027Y1559063D01*
X-105901Y1559229D01*
X-105771Y1559392D01*
X-105636Y1559552D01*
X-105498Y1559708D01*
X-105356Y1559861D01*
X-105210Y1560010D01*
X-105061Y1560156D01*
X-104908Y1560298D01*
X-104752Y1560436D01*
X-104592Y1560571D01*
X-104429Y1560701D01*
X-104263Y1560827D01*
X-104094Y1560949D01*
X-103922Y1561067D01*
X-103747Y1561181D01*
X-103570Y1561291D01*
X-103390Y1561396D01*
X-103207Y1561496D01*
X-103022Y1561592D01*
X-102834Y1561684D01*
X-102645Y1561771D01*
X-102453Y1561853D01*
X-102259Y1561930D01*
X-102064Y1562003D01*
X-101866Y1562071D01*
X-101667Y1562134D01*
X-101467Y1562192D01*
X-101265Y1562245D01*
X-101062Y1562293D01*
X-100858Y1562337D01*
X-100653Y1562375D01*
X-100447Y1562408D01*
X-100240Y1562436D01*
X-100033Y1562459D01*
X-99825Y1562477D01*
X-99617Y1562490D01*
X-99409Y1562497D01*
X-99200Y1562500D01*
X-98991Y1562497D01*
X-98783Y1562490D01*
X-98575Y1562477D01*
X-98367Y1562459D01*
X-98160Y1562436D01*
X-97953Y1562408D01*
X-97747Y1562375D01*
X-97542Y1562337D01*
X-97338Y1562293D01*
X-97135Y1562245D01*
X-96933Y1562192D01*
X-96733Y1562134D01*
X-96534Y1562071D01*
X-96336Y1562003D01*
X-96141Y1561930D01*
X-95947Y1561853D01*
X-95755Y1561771D01*
X-95566Y1561684D01*
X-95378Y1561592D01*
X-95193Y1561496D01*
X-95010Y1561396D01*
X-94830Y1561291D01*
X-94653Y1561181D01*
X-94478Y1561067D01*
X-94306Y1560949D01*
X-94137Y1560827D01*
X-93971Y1560701D01*
X-93808Y1560571D01*
X-93648Y1560436D01*
X-93492Y1560298D01*
X-93339Y1560156D01*
X-93190Y1560010D01*
X-93044Y1559861D01*
X-92902Y1559708D01*
X-92764Y1559552D01*
X-92629Y1559392D01*
X-92499Y1559229D01*
X-92373Y1559063D01*
X-92251Y1558894D01*
X-92133Y1558722D01*
X-92019Y1558547D01*
X-91909Y1558370D01*
X-91804Y1558190D01*
X-91704Y1558007D01*
X-91608Y1557822D01*
X-91516Y1557634D01*
X-91429Y1557445D01*
X-91347Y1557253D01*
X-91270Y1557059D01*
X-91197Y1556864D01*
X-91129Y1556666D01*
X-91066Y1556467D01*
X-91008Y1556267D01*
X-90955Y1556065D01*
X-90907Y1555862D01*
X-90863Y1555658D01*
X-90825Y1555453D01*
X-90792Y1555247D01*
X-90764Y1555040D01*
X-90741Y1554833D01*
X-90723Y1554625D01*
X-90710Y1554417D01*
X-90703Y1554209D01*
X-90700Y1554000D01*
X-90703Y1553791D01*
X-90710Y1553583D01*
X-90723Y1553375D01*
X-90741Y1553167D01*
X-90764Y1552960D01*
X-90792Y1552753D01*
X-90825Y1552547D01*
X-90863Y1552342D01*
X-90907Y1552138D01*
X-90955Y1551935D01*
X-91008Y1551733D01*
X-91066Y1551533D01*
X-91129Y1551334D01*
X-91197Y1551136D01*
X-91270Y1550941D01*
X-91347Y1550747D01*
X-91429Y1550555D01*
X-91516Y1550366D01*
X-91608Y1550178D01*
X-91704Y1549993D01*
X-91804Y1549810D01*
X-91909Y1549630D01*
X-92019Y1549453D01*
X-92133Y1549278D01*
X-92251Y1549106D01*
X-92373Y1548937D01*
X-92499Y1548771D01*
X-92629Y1548608D01*
X-92764Y1548448D01*
X-92902Y1548292D01*
X-93044Y1548139D01*
X-93190Y1547990D01*
X-93339Y1547844D01*
X-93492Y1547702D01*
X-93648Y1547564D01*
X-93808Y1547429D01*
X-93971Y1547299D01*
X-94137Y1547173D01*
X-94306Y1547051D01*
X-94478Y1546933D01*
X-94653Y1546819D01*
X-94830Y1546709D01*
X-95010Y1546604D01*
X-95193Y1546504D01*
X-95378Y1546408D01*
X-95566Y1546316D01*
X-95755Y1546229D01*
X-95947Y1546147D01*
X-96141Y1546070D01*
X-96336Y1545997D01*
X-96534Y1545929D01*
X-96733Y1545866D01*
X-96933Y1545808D01*
X-97135Y1545755D01*
X-97338Y1545707D01*
X-97542Y1545663D01*
X-97747Y1545625D01*
X-97953Y1545592D01*
X-98160Y1545564D01*
X-98367Y1545541D01*
X-98575Y1545523D01*
X-98783Y1545510D01*
X-98991Y1545503D01*
X-99200Y1545500D01*
X-99409Y1545503D01*
X-99617Y1545510D01*
X-99825Y1545523D01*
X-100033Y1545541D01*
X-100240Y1545564D01*
X-100447Y1545592D01*
X-100653Y1545625D01*
X-100858Y1545663D01*
X-101062Y1545707D01*
X-101265Y1545755D01*
X-101467Y1545808D01*
X-101667Y1545866D01*
X-101866Y1545929D01*
X-102064Y1545997D01*
X-102259Y1546070D01*
X-102453Y1546147D01*
X-102645Y1546229D01*
X-102834Y1546316D01*
X-103022Y1546408D01*
X-103207Y1546504D01*
X-103390Y1546604D01*
X-103570Y1546709D01*
X-103747Y1546819D01*
X-103922Y1546933D01*
X-104094Y1547051D01*
X-104263Y1547173D01*
X-104429Y1547299D01*
X-104592Y1547429D01*
X-104752Y1547564D01*
X-104908Y1547702D01*
X-105061Y1547844D01*
X-105210Y1547990D01*
X-105356Y1548139D01*
X-105498Y1548292D01*
X-105636Y1548448D01*
X-105771Y1548608D01*
X-105901Y1548771D01*
X-106027Y1548937D01*
X-106149Y1549106D01*
X-106267Y1549278D01*
X-106381Y1549453D01*
X-106491Y1549630D01*
X-106596Y1549810D01*
X-106696Y1549993D01*
X-106792Y1550178D01*
X-106884Y1550366D01*
X-106971Y1550555D01*
X-107053Y1550747D01*
X-107130Y1550941D01*
X-107203Y1551136D01*
X-107271Y1551334D01*
X-107334Y1551533D01*
X-107392Y1551733D01*
X-107445Y1551935D01*
X-107493Y1552138D01*
X-107537Y1552342D01*
X-107575Y1552547D01*
X-107608Y1552753D01*
X-107636Y1552960D01*
X-107659Y1553167D01*
X-107677Y1553375D01*
X-107690Y1553583D01*
X-107697Y1553791D01*
X-107700Y1554000D01*
X291400Y1524000D02*
X291403Y1524270D01*
X291413Y1524540D01*
X291430Y1524809D01*
X291453Y1525078D01*
X291483Y1525347D01*
X291519Y1525614D01*
X291562Y1525881D01*
X291611Y1526146D01*
X291667Y1526410D01*
X291730Y1526673D01*
X291798Y1526934D01*
X291874Y1527193D01*
X291955Y1527450D01*
X292043Y1527706D01*
X292137Y1527959D01*
X292237Y1528210D01*
X292344Y1528458D01*
X292456Y1528703D01*
X292575Y1528946D01*
X292699Y1529185D01*
X292829Y1529422D01*
X292965Y1529655D01*
X293107Y1529885D01*
X293254Y1530111D01*
X293407Y1530334D01*
X293565Y1530553D01*
X293728Y1530768D01*
X293897Y1530978D01*
X294071Y1531185D01*
X294250Y1531387D01*
X294433Y1531585D01*
X294622Y1531778D01*
X294815Y1531967D01*
X295013Y1532150D01*
X295215Y1532329D01*
X295422Y1532503D01*
X295632Y1532672D01*
X295847Y1532835D01*
X296066Y1532993D01*
X296289Y1533146D01*
X296515Y1533293D01*
X296745Y1533435D01*
X296978Y1533571D01*
X297215Y1533701D01*
X297454Y1533825D01*
X297697Y1533944D01*
X297942Y1534056D01*
X298190Y1534163D01*
X298441Y1534263D01*
X298694Y1534357D01*
X298950Y1534445D01*
X299207Y1534526D01*
X299466Y1534602D01*
X299727Y1534670D01*
X299990Y1534733D01*
X300254Y1534789D01*
X300519Y1534838D01*
X300786Y1534881D01*
X301053Y1534917D01*
X301322Y1534947D01*
X301591Y1534970D01*
X301860Y1534987D01*
X302130Y1534997D01*
X302400Y1535000D01*
X302670Y1534997D01*
X302940Y1534987D01*
X303209Y1534970D01*
X303478Y1534947D01*
X303747Y1534917D01*
X304014Y1534881D01*
X304281Y1534838D01*
X304546Y1534789D01*
X304810Y1534733D01*
X305073Y1534670D01*
X305334Y1534602D01*
X305593Y1534526D01*
X305850Y1534445D01*
X306106Y1534357D01*
X306359Y1534263D01*
X306610Y1534163D01*
X306858Y1534056D01*
X307103Y1533944D01*
X307346Y1533825D01*
X307585Y1533701D01*
X307822Y1533571D01*
X308055Y1533435D01*
X308285Y1533293D01*
X308511Y1533146D01*
X308734Y1532993D01*
X308953Y1532835D01*
X309168Y1532672D01*
X309378Y1532503D01*
X309585Y1532329D01*
X309787Y1532150D01*
X309985Y1531967D01*
X310178Y1531778D01*
X310367Y1531585D01*
X310550Y1531387D01*
X310729Y1531185D01*
X310903Y1530978D01*
X311072Y1530768D01*
X311235Y1530553D01*
X311393Y1530334D01*
X311546Y1530111D01*
X311693Y1529885D01*
X311835Y1529655D01*
X311971Y1529422D01*
X312101Y1529185D01*
X312225Y1528946D01*
X312344Y1528703D01*
X312456Y1528458D01*
X312563Y1528210D01*
X312663Y1527959D01*
X312757Y1527706D01*
X312845Y1527450D01*
X312926Y1527193D01*
X313002Y1526934D01*
X313070Y1526673D01*
X313133Y1526410D01*
X313189Y1526146D01*
X313238Y1525881D01*
X313281Y1525614D01*
X313317Y1525347D01*
X313347Y1525078D01*
X313370Y1524809D01*
X313387Y1524540D01*
X313397Y1524270D01*
X313400Y1524000D01*
X313397Y1523730D01*
X313387Y1523460D01*
X313370Y1523191D01*
X313347Y1522922D01*
X313317Y1522653D01*
X313281Y1522386D01*
X313238Y1522119D01*
X313189Y1521854D01*
X313133Y1521590D01*
X313070Y1521327D01*
X313002Y1521066D01*
X312926Y1520807D01*
X312845Y1520550D01*
X312757Y1520294D01*
X312663Y1520041D01*
X312563Y1519790D01*
X312456Y1519542D01*
X312344Y1519297D01*
X312225Y1519054D01*
X312101Y1518815D01*
X311971Y1518578D01*
X311835Y1518345D01*
X311693Y1518115D01*
X311546Y1517889D01*
X311393Y1517666D01*
X311235Y1517447D01*
X311072Y1517232D01*
X310903Y1517022D01*
X310729Y1516815D01*
X310550Y1516613D01*
X310367Y1516415D01*
X310178Y1516222D01*
X309985Y1516033D01*
X309787Y1515850D01*
X309585Y1515671D01*
X309378Y1515497D01*
X309168Y1515328D01*
X308953Y1515165D01*
X308734Y1515007D01*
X308511Y1514854D01*
X308285Y1514707D01*
X308055Y1514565D01*
X307822Y1514429D01*
X307585Y1514299D01*
X307346Y1514175D01*
X307103Y1514056D01*
X306858Y1513944D01*
X306610Y1513837D01*
X306359Y1513737D01*
X306106Y1513643D01*
X305850Y1513555D01*
X305593Y1513474D01*
X305334Y1513398D01*
X305073Y1513330D01*
X304810Y1513267D01*
X304546Y1513211D01*
X304281Y1513162D01*
X304014Y1513119D01*
X303747Y1513083D01*
X303478Y1513053D01*
X303209Y1513030D01*
X302940Y1513013D01*
X302670Y1513003D01*
X302400Y1513000D01*
X302130Y1513003D01*
X301860Y1513013D01*
X301591Y1513030D01*
X301322Y1513053D01*
X301053Y1513083D01*
X300786Y1513119D01*
X300519Y1513162D01*
X300254Y1513211D01*
X299990Y1513267D01*
X299727Y1513330D01*
X299466Y1513398D01*
X299207Y1513474D01*
X298950Y1513555D01*
X298694Y1513643D01*
X298441Y1513737D01*
X298190Y1513837D01*
X297942Y1513944D01*
X297697Y1514056D01*
X297454Y1514175D01*
X297215Y1514299D01*
X296978Y1514429D01*
X296745Y1514565D01*
X296515Y1514707D01*
X296289Y1514854D01*
X296066Y1515007D01*
X295847Y1515165D01*
X295632Y1515328D01*
X295422Y1515497D01*
X295215Y1515671D01*
X295013Y1515850D01*
X294815Y1516033D01*
X294622Y1516222D01*
X294433Y1516415D01*
X294250Y1516613D01*
X294071Y1516815D01*
X293897Y1517022D01*
X293728Y1517232D01*
X293565Y1517447D01*
X293407Y1517666D01*
X293254Y1517889D01*
X293107Y1518115D01*
X292965Y1518345D01*
X292829Y1518578D01*
X292699Y1518815D01*
X292575Y1519054D01*
X292456Y1519297D01*
X292344Y1519542D01*
X292237Y1519790D01*
X292137Y1520041D01*
X292043Y1520294D01*
X291955Y1520550D01*
X291874Y1520807D01*
X291798Y1521066D01*
X291730Y1521327D01*
X291667Y1521590D01*
X291611Y1521854D01*
X291562Y1522119D01*
X291519Y1522386D01*
X291483Y1522653D01*
X291453Y1522922D01*
X291430Y1523191D01*
X291413Y1523460D01*
X291403Y1523730D01*
X291400Y1524000D01*
X-110200Y1524000D02*
X-110197Y1524270D01*
X-110187Y1524540D01*
X-110170Y1524809D01*
X-110147Y1525078D01*
X-110117Y1525347D01*
X-110081Y1525614D01*
X-110038Y1525881D01*
X-109989Y1526146D01*
X-109933Y1526410D01*
X-109870Y1526673D01*
X-109802Y1526934D01*
X-109726Y1527193D01*
X-109645Y1527450D01*
X-109557Y1527706D01*
X-109463Y1527959D01*
X-109363Y1528210D01*
X-109256Y1528458D01*
X-109144Y1528703D01*
X-109025Y1528946D01*
X-108901Y1529185D01*
X-108771Y1529422D01*
X-108635Y1529655D01*
X-108493Y1529885D01*
X-108346Y1530111D01*
X-108193Y1530334D01*
X-108035Y1530553D01*
X-107872Y1530768D01*
X-107703Y1530978D01*
X-107529Y1531185D01*
X-107350Y1531387D01*
X-107167Y1531585D01*
X-106978Y1531778D01*
X-106785Y1531967D01*
X-106587Y1532150D01*
X-106385Y1532329D01*
X-106178Y1532503D01*
X-105968Y1532672D01*
X-105753Y1532835D01*
X-105534Y1532993D01*
X-105311Y1533146D01*
X-105085Y1533293D01*
X-104855Y1533435D01*
X-104622Y1533571D01*
X-104385Y1533701D01*
X-104146Y1533825D01*
X-103903Y1533944D01*
X-103658Y1534056D01*
X-103410Y1534163D01*
X-103159Y1534263D01*
X-102906Y1534357D01*
X-102650Y1534445D01*
X-102393Y1534526D01*
X-102134Y1534602D01*
X-101873Y1534670D01*
X-101610Y1534733D01*
X-101346Y1534789D01*
X-101081Y1534838D01*
X-100814Y1534881D01*
X-100547Y1534917D01*
X-100278Y1534947D01*
X-100009Y1534970D01*
X-99740Y1534987D01*
X-99470Y1534997D01*
X-99200Y1535000D01*
X-98930Y1534997D01*
X-98660Y1534987D01*
X-98391Y1534970D01*
X-98122Y1534947D01*
X-97853Y1534917D01*
X-97586Y1534881D01*
X-97319Y1534838D01*
X-97054Y1534789D01*
X-96790Y1534733D01*
X-96527Y1534670D01*
X-96266Y1534602D01*
X-96007Y1534526D01*
X-95750Y1534445D01*
X-95494Y1534357D01*
X-95241Y1534263D01*
X-94990Y1534163D01*
X-94742Y1534056D01*
X-94497Y1533944D01*
X-94254Y1533825D01*
X-94015Y1533701D01*
X-93778Y1533571D01*
X-93545Y1533435D01*
X-93315Y1533293D01*
X-93089Y1533146D01*
X-92866Y1532993D01*
X-92647Y1532835D01*
X-92432Y1532672D01*
X-92222Y1532503D01*
X-92015Y1532329D01*
X-91813Y1532150D01*
X-91615Y1531967D01*
X-91422Y1531778D01*
X-91233Y1531585D01*
X-91050Y1531387D01*
X-90871Y1531185D01*
X-90697Y1530978D01*
X-90528Y1530768D01*
X-90365Y1530553D01*
X-90207Y1530334D01*
X-90054Y1530111D01*
X-89907Y1529885D01*
X-89765Y1529655D01*
X-89629Y1529422D01*
X-89499Y1529185D01*
X-89375Y1528946D01*
X-89256Y1528703D01*
X-89144Y1528458D01*
X-89037Y1528210D01*
X-88937Y1527959D01*
X-88843Y1527706D01*
X-88755Y1527450D01*
X-88674Y1527193D01*
X-88598Y1526934D01*
X-88530Y1526673D01*
X-88467Y1526410D01*
X-88411Y1526146D01*
X-88362Y1525881D01*
X-88319Y1525614D01*
X-88283Y1525347D01*
X-88253Y1525078D01*
X-88230Y1524809D01*
X-88213Y1524540D01*
X-88203Y1524270D01*
X-88200Y1524000D01*
X-88203Y1523730D01*
X-88213Y1523460D01*
X-88230Y1523191D01*
X-88253Y1522922D01*
X-88283Y1522653D01*
X-88319Y1522386D01*
X-88362Y1522119D01*
X-88411Y1521854D01*
X-88467Y1521590D01*
X-88530Y1521327D01*
X-88598Y1521066D01*
X-88674Y1520807D01*
X-88755Y1520550D01*
X-88843Y1520294D01*
X-88937Y1520041D01*
X-89037Y1519790D01*
X-89144Y1519542D01*
X-89256Y1519297D01*
X-89375Y1519054D01*
X-89499Y1518815D01*
X-89629Y1518578D01*
X-89765Y1518345D01*
X-89907Y1518115D01*
X-90054Y1517889D01*
X-90207Y1517666D01*
X-90365Y1517447D01*
X-90528Y1517232D01*
X-90697Y1517022D01*
X-90871Y1516815D01*
X-91050Y1516613D01*
X-91233Y1516415D01*
X-91422Y1516222D01*
X-91615Y1516033D01*
X-91813Y1515850D01*
X-92015Y1515671D01*
X-92222Y1515497D01*
X-92432Y1515328D01*
X-92647Y1515165D01*
X-92866Y1515007D01*
X-93089Y1514854D01*
X-93315Y1514707D01*
X-93545Y1514565D01*
X-93778Y1514429D01*
X-94015Y1514299D01*
X-94254Y1514175D01*
X-94497Y1514056D01*
X-94742Y1513944D01*
X-94990Y1513837D01*
X-95241Y1513737D01*
X-95494Y1513643D01*
X-95750Y1513555D01*
X-96007Y1513474D01*
X-96266Y1513398D01*
X-96527Y1513330D01*
X-96790Y1513267D01*
X-97054Y1513211D01*
X-97319Y1513162D01*
X-97586Y1513119D01*
X-97853Y1513083D01*
X-98122Y1513053D01*
X-98391Y1513030D01*
X-98660Y1513013D01*
X-98930Y1513003D01*
X-99200Y1513000D01*
X-99470Y1513003D01*
X-99740Y1513013D01*
X-100009Y1513030D01*
X-100278Y1513053D01*
X-100547Y1513083D01*
X-100814Y1513119D01*
X-101081Y1513162D01*
X-101346Y1513211D01*
X-101610Y1513267D01*
X-101873Y1513330D01*
X-102134Y1513398D01*
X-102393Y1513474D01*
X-102650Y1513555D01*
X-102906Y1513643D01*
X-103159Y1513737D01*
X-103410Y1513837D01*
X-103658Y1513944D01*
X-103903Y1514056D01*
X-104146Y1514175D01*
X-104385Y1514299D01*
X-104622Y1514429D01*
X-104855Y1514565D01*
X-105085Y1514707D01*
X-105311Y1514854D01*
X-105534Y1515007D01*
X-105753Y1515165D01*
X-105968Y1515328D01*
X-106178Y1515497D01*
X-106385Y1515671D01*
X-106587Y1515850D01*
X-106785Y1516033D01*
X-106978Y1516222D01*
X-107167Y1516415D01*
X-107350Y1516613D01*
X-107529Y1516815D01*
X-107703Y1517022D01*
X-107872Y1517232D01*
X-108035Y1517447D01*
X-108193Y1517666D01*
X-108346Y1517889D01*
X-108493Y1518115D01*
X-108635Y1518345D01*
X-108771Y1518578D01*
X-108901Y1518815D01*
X-109025Y1519054D01*
X-109144Y1519297D01*
X-109256Y1519542D01*
X-109363Y1519790D01*
X-109463Y1520041D01*
X-109557Y1520294D01*
X-109645Y1520550D01*
X-109726Y1520807D01*
X-109802Y1521066D01*
X-109870Y1521327D01*
X-109933Y1521590D01*
X-109989Y1521854D01*
X-110038Y1522119D01*
X-110081Y1522386D01*
X-110117Y1522653D01*
X-110147Y1522922D01*
X-110170Y1523191D01*
X-110187Y1523460D01*
X-110197Y1523730D01*
X-110200Y1524000D01*
D11*
X-942086Y88900D02*
X-806450Y88900D01*
X-806450Y0D01*
X806450Y0D01*
X806450Y88900D01*
X1851914Y88900D01*
X1851914Y1790700D01*
X-942086Y1790700D01*
X-942086Y88900D01*
X680212Y1637701D02*
X680140Y1636506D01*
X679995Y1635318D01*
X679780Y1634140D01*
X679493Y1632977D01*
X679137Y1631834D01*
X678712Y1630715D01*
X678221Y1629623D01*
X677664Y1628563D01*
X677045Y1627538D01*
X676365Y1626553D01*
X675626Y1625610D01*
X674833Y1624714D01*
X673986Y1623868D01*
X673090Y1623074D01*
X672147Y1622335D01*
X671162Y1621655D01*
X670137Y1621036D01*
X669077Y1620479D01*
X667985Y1619988D01*
X666866Y1619563D01*
X665723Y1619207D01*
X664560Y1618920D01*
X663382Y1618705D01*
X662194Y1618560D01*
X660999Y1618488D01*
X659801Y1618488D01*
X658606Y1618560D01*
X657418Y1618705D01*
X656240Y1618920D01*
X655077Y1619207D01*
X653934Y1619563D01*
X652815Y1619988D01*
X651723Y1620479D01*
X650663Y1621036D01*
X649638Y1621655D01*
X648653Y1622335D01*
X647710Y1623074D01*
X646814Y1623868D01*
X645968Y1624714D01*
X645174Y1625610D01*
X644435Y1626553D01*
X643755Y1627538D01*
X643136Y1628563D01*
X642579Y1629623D01*
X642088Y1630715D01*
X641663Y1631834D01*
X641307Y1632977D01*
X641020Y1634140D01*
X640805Y1635318D01*
X640660Y1636506D01*
X640588Y1637701D01*
X640588Y1638899D01*
X640660Y1640094D01*
X640805Y1641282D01*
X641020Y1642460D01*
X641307Y1643623D01*
X641663Y1644766D01*
X642088Y1645885D01*
X642579Y1646977D01*
X643136Y1648037D01*
X643755Y1649062D01*
X644435Y1650047D01*
X645174Y1650990D01*
X645968Y1651886D01*
X646814Y1652733D01*
X647710Y1653526D01*
X648653Y1654265D01*
X649638Y1654945D01*
X650663Y1655564D01*
X651723Y1656121D01*
X652815Y1656612D01*
X653934Y1657037D01*
X655077Y1657393D01*
X656240Y1657680D01*
X657418Y1657895D01*
X658606Y1658040D01*
X659801Y1658112D01*
X660999Y1658112D01*
X662194Y1658040D01*
X663382Y1657895D01*
X664560Y1657680D01*
X665723Y1657393D01*
X666866Y1657037D01*
X667985Y1656612D01*
X669077Y1656121D01*
X670137Y1655564D01*
X671162Y1654945D01*
X672147Y1654265D01*
X673090Y1653526D01*
X673986Y1652733D01*
X674833Y1651886D01*
X675626Y1650990D01*
X676365Y1650047D01*
X677045Y1649062D01*
X677664Y1648037D01*
X678221Y1646977D01*
X678712Y1645885D01*
X679137Y1644766D01*
X679493Y1643623D01*
X679780Y1642460D01*
X679995Y1641282D01*
X680140Y1640094D01*
X680212Y1638899D01*
X680212Y1637701D01*
X-284988Y1637701D02*
X-285060Y1636506D01*
X-285205Y1635318D01*
X-285420Y1634140D01*
X-285707Y1632977D01*
X-286063Y1631834D01*
X-286488Y1630715D01*
X-286979Y1629623D01*
X-287536Y1628563D01*
X-288155Y1627538D01*
X-288835Y1626553D01*
X-289574Y1625610D01*
X-290368Y1624714D01*
X-291214Y1623868D01*
X-292110Y1623074D01*
X-293053Y1622335D01*
X-294038Y1621655D01*
X-295063Y1621036D01*
X-296123Y1620479D01*
X-297215Y1619988D01*
X-298334Y1619563D01*
X-299477Y1619207D01*
X-300640Y1618920D01*
X-301818Y1618705D01*
X-303006Y1618560D01*
X-304201Y1618488D01*
X-305399Y1618488D01*
X-306594Y1618560D01*
X-307782Y1618705D01*
X-308960Y1618920D01*
X-310123Y1619207D01*
X-311266Y1619563D01*
X-312385Y1619988D01*
X-313477Y1620479D01*
X-314537Y1621036D01*
X-315562Y1621655D01*
X-316547Y1622335D01*
X-317490Y1623074D01*
X-318386Y1623868D01*
X-319233Y1624714D01*
X-320026Y1625610D01*
X-320765Y1626553D01*
X-321445Y1627538D01*
X-322064Y1628563D01*
X-322621Y1629623D01*
X-323112Y1630715D01*
X-323537Y1631834D01*
X-323893Y1632977D01*
X-324180Y1634140D01*
X-324395Y1635318D01*
X-324540Y1636506D01*
X-324612Y1637701D01*
X-324612Y1638899D01*
X-324540Y1640094D01*
X-324395Y1641282D01*
X-324180Y1642460D01*
X-323893Y1643623D01*
X-323537Y1644766D01*
X-323112Y1645885D01*
X-322621Y1646977D01*
X-322064Y1648037D01*
X-321445Y1649062D01*
X-320765Y1650047D01*
X-320026Y1650990D01*
X-319233Y1651886D01*
X-318386Y1652733D01*
X-317490Y1653526D01*
X-316547Y1654265D01*
X-315562Y1654945D01*
X-314537Y1655564D01*
X-313477Y1656121D01*
X-312385Y1656612D01*
X-311266Y1657037D01*
X-310123Y1657393D01*
X-308960Y1657680D01*
X-307782Y1657895D01*
X-306594Y1658040D01*
X-305399Y1658112D01*
X-304201Y1658112D01*
X-303006Y1658040D01*
X-301818Y1657895D01*
X-300640Y1657680D01*
X-299477Y1657393D01*
X-298334Y1657037D01*
X-297215Y1656612D01*
X-296123Y1656121D01*
X-295063Y1655564D01*
X-294038Y1654945D01*
X-293053Y1654265D01*
X-292110Y1653526D01*
X-291214Y1652733D01*
X-290368Y1651886D01*
X-289574Y1650990D01*
X-288835Y1650047D01*
X-288155Y1649062D01*
X-287536Y1648037D01*
X-286979Y1646977D01*
X-286488Y1645885D01*
X-286063Y1644766D01*
X-285707Y1643623D01*
X-285420Y1642460D01*
X-285205Y1641282D01*
X-285060Y1640094D01*
X-284988Y1638899D01*
X-284988Y1637701D01*
X1010412Y1307501D02*
X1010340Y1306306D01*
X1010195Y1305118D01*
X1009980Y1303940D01*
X1009693Y1302777D01*
X1009337Y1301634D01*
X1008912Y1300515D01*
X1008421Y1299423D01*
X1007864Y1298363D01*
X1007245Y1297338D01*
X1006565Y1296353D01*
X1005826Y1295410D01*
X1005033Y1294514D01*
X1004186Y1293668D01*
X1003290Y1292874D01*
X1002347Y1292135D01*
X1001362Y1291455D01*
X1000337Y1290836D01*
X999277Y1290279D01*
X998185Y1289788D01*
X997066Y1289363D01*
X995923Y1289007D01*
X994760Y1288720D01*
X993582Y1288505D01*
X992394Y1288360D01*
X991199Y1288288D01*
X990001Y1288288D01*
X988806Y1288360D01*
X987618Y1288505D01*
X986440Y1288720D01*
X985277Y1289007D01*
X984134Y1289363D01*
X983015Y1289788D01*
X981923Y1290279D01*
X980863Y1290836D01*
X979838Y1291455D01*
X978853Y1292135D01*
X977910Y1292874D01*
X977014Y1293668D01*
X976168Y1294514D01*
X975374Y1295410D01*
X974635Y1296353D01*
X973955Y1297338D01*
X973336Y1298363D01*
X972779Y1299423D01*
X972288Y1300515D01*
X971863Y1301634D01*
X971507Y1302777D01*
X971220Y1303940D01*
X971005Y1305118D01*
X970860Y1306306D01*
X970788Y1307501D01*
X970788Y1308699D01*
X970860Y1309894D01*
X971005Y1311082D01*
X971220Y1312260D01*
X971507Y1313423D01*
X971863Y1314566D01*
X972288Y1315685D01*
X972779Y1316777D01*
X973336Y1317837D01*
X973955Y1318862D01*
X974635Y1319847D01*
X975374Y1320790D01*
X976168Y1321686D01*
X977014Y1322533D01*
X977910Y1323326D01*
X978853Y1324065D01*
X979838Y1324745D01*
X980863Y1325364D01*
X981923Y1325921D01*
X983015Y1326412D01*
X984134Y1326837D01*
X985277Y1327193D01*
X986440Y1327480D01*
X987618Y1327695D01*
X988806Y1327840D01*
X990001Y1327912D01*
X991199Y1327912D01*
X992394Y1327840D01*
X993582Y1327695D01*
X994760Y1327480D01*
X995923Y1327193D01*
X997066Y1326837D01*
X998185Y1326412D01*
X999277Y1325921D01*
X1000337Y1325364D01*
X1001362Y1324745D01*
X1002347Y1324065D01*
X1003290Y1323326D01*
X1004186Y1322533D01*
X1005033Y1321686D01*
X1005826Y1320790D01*
X1006565Y1319847D01*
X1007245Y1318862D01*
X1007864Y1317837D01*
X1008421Y1316777D01*
X1008912Y1315685D01*
X1009337Y1314566D01*
X1009693Y1313423D01*
X1009980Y1312260D01*
X1010195Y1311082D01*
X1010340Y1309894D01*
X1010412Y1308699D01*
X1010412Y1307501D01*
X293900Y1554371D02*
X293965Y1555111D01*
X294094Y1555842D01*
X294286Y1556558D01*
X294540Y1557256D01*
X294853Y1557929D01*
X295224Y1558571D01*
X295650Y1559179D01*
X296127Y1559748D01*
X296652Y1560273D01*
X297221Y1560750D01*
X297829Y1561176D01*
X298471Y1561547D01*
X299144Y1561860D01*
X299842Y1562114D01*
X300559Y1562306D01*
X301289Y1562435D01*
X302029Y1562500D01*
X302771Y1562500D01*
X303511Y1562435D01*
X304242Y1562306D01*
X304958Y1562114D01*
X305656Y1561860D01*
X306329Y1561547D01*
X306971Y1561176D01*
X307579Y1560750D01*
X308148Y1560273D01*
X308673Y1559748D01*
X309150Y1559179D01*
X309576Y1558571D01*
X309947Y1557929D01*
X310260Y1557256D01*
X310514Y1556558D01*
X310706Y1555842D01*
X310835Y1555111D01*
X310900Y1554371D01*
X310900Y1553629D01*
X310835Y1552889D01*
X310706Y1552159D01*
X310514Y1551442D01*
X310260Y1550744D01*
X309947Y1550071D01*
X309576Y1549429D01*
X309150Y1548821D01*
X308673Y1548252D01*
X308148Y1547727D01*
X307579Y1547250D01*
X306971Y1546824D01*
X306329Y1546453D01*
X305656Y1546140D01*
X304958Y1545886D01*
X304242Y1545694D01*
X303511Y1545565D01*
X302771Y1545500D01*
X302029Y1545500D01*
X301289Y1545565D01*
X300559Y1545694D01*
X299842Y1545886D01*
X299144Y1546140D01*
X298471Y1546453D01*
X297829Y1546824D01*
X297221Y1547250D01*
X296652Y1547727D01*
X296127Y1548252D01*
X295650Y1548821D01*
X295224Y1549429D01*
X294853Y1550071D01*
X294540Y1550744D01*
X294286Y1551442D01*
X294094Y1552159D01*
X293965Y1552889D01*
X293900Y1553629D01*
X293900Y1554371D01*
X-107700Y1554371D02*
X-107635Y1555111D01*
X-107506Y1555842D01*
X-107314Y1556558D01*
X-107060Y1557256D01*
X-106747Y1557929D01*
X-106376Y1558571D01*
X-105950Y1559179D01*
X-105473Y1559748D01*
X-104948Y1560273D01*
X-104379Y1560750D01*
X-103771Y1561176D01*
X-103129Y1561547D01*
X-102456Y1561860D01*
X-101758Y1562114D01*
X-101042Y1562306D01*
X-100311Y1562435D01*
X-99571Y1562500D01*
X-98829Y1562500D01*
X-98089Y1562435D01*
X-97359Y1562306D01*
X-96642Y1562114D01*
X-95944Y1561860D01*
X-95271Y1561547D01*
X-94629Y1561176D01*
X-94021Y1560750D01*
X-93452Y1560273D01*
X-92927Y1559748D01*
X-92450Y1559179D01*
X-92024Y1558571D01*
X-91653Y1557929D01*
X-91340Y1557256D01*
X-91086Y1556558D01*
X-90894Y1555842D01*
X-90765Y1555111D01*
X-90700Y1554371D01*
X-90700Y1553629D01*
X-90765Y1552889D01*
X-90894Y1552159D01*
X-91086Y1551442D01*
X-91340Y1550744D01*
X-91653Y1550071D01*
X-92024Y1549429D01*
X-92450Y1548821D01*
X-92927Y1548252D01*
X-93452Y1547727D01*
X-94021Y1547250D01*
X-94629Y1546824D01*
X-95271Y1546453D01*
X-95944Y1546140D01*
X-96642Y1545886D01*
X-97359Y1545694D01*
X-98089Y1545565D01*
X-98829Y1545500D01*
X-99571Y1545500D01*
X-100311Y1545565D01*
X-101042Y1545694D01*
X-101758Y1545886D01*
X-102456Y1546140D01*
X-103129Y1546453D01*
X-103771Y1546824D01*
X-104379Y1547250D01*
X-104948Y1547727D01*
X-105473Y1548252D01*
X-105950Y1548821D01*
X-106376Y1549429D01*
X-106747Y1550071D01*
X-107060Y1550744D01*
X-107314Y1551442D01*
X-107506Y1552159D01*
X-107635Y1552889D01*
X-107700Y1553629D01*
X-107700Y1554371D01*
X291400Y1524432D02*
X291468Y1525294D01*
X291603Y1526148D01*
X291805Y1526988D01*
X292072Y1527810D01*
X292403Y1528609D01*
X292795Y1529379D01*
X293247Y1530116D01*
X293755Y1530815D01*
X294316Y1531473D01*
X294927Y1532084D01*
X295585Y1532645D01*
X296284Y1533153D01*
X297021Y1533605D01*
X297791Y1533997D01*
X298590Y1534328D01*
X299412Y1534595D01*
X300252Y1534797D01*
X301106Y1534932D01*
X301968Y1535000D01*
X302832Y1535000D01*
X303694Y1534932D01*
X304548Y1534797D01*
X305388Y1534595D01*
X306210Y1534328D01*
X307009Y1533997D01*
X307779Y1533605D01*
X308516Y1533153D01*
X309215Y1532645D01*
X309873Y1532084D01*
X310484Y1531473D01*
X311045Y1530815D01*
X311553Y1530116D01*
X312005Y1529379D01*
X312397Y1528609D01*
X312728Y1527810D01*
X312995Y1526988D01*
X313197Y1526148D01*
X313332Y1525294D01*
X313400Y1524432D01*
X313400Y1523568D01*
X313332Y1522706D01*
X313197Y1521852D01*
X312995Y1521012D01*
X312728Y1520190D01*
X312397Y1519391D01*
X312005Y1518621D01*
X311553Y1517884D01*
X311045Y1517185D01*
X310484Y1516527D01*
X309873Y1515916D01*
X309215Y1515355D01*
X308516Y1514847D01*
X307779Y1514395D01*
X307009Y1514003D01*
X306210Y1513672D01*
X305388Y1513405D01*
X304548Y1513203D01*
X303694Y1513068D01*
X302832Y1513000D01*
X301968Y1513000D01*
X301106Y1513068D01*
X300252Y1513203D01*
X299412Y1513405D01*
X298590Y1513672D01*
X297791Y1514003D01*
X297021Y1514395D01*
X296284Y1514847D01*
X295585Y1515355D01*
X294927Y1515916D01*
X294316Y1516527D01*
X293755Y1517185D01*
X293247Y1517884D01*
X292795Y1518621D01*
X292403Y1519391D01*
X292072Y1520190D01*
X291805Y1521012D01*
X291603Y1521852D01*
X291468Y1522706D01*
X291400Y1523568D01*
X291400Y1524432D01*
X-110200Y1524432D02*
X-110132Y1525294D01*
X-109997Y1526148D01*
X-109795Y1526988D01*
X-109528Y1527810D01*
X-109197Y1528609D01*
X-108805Y1529379D01*
X-108353Y1530116D01*
X-107845Y1530815D01*
X-107284Y1531473D01*
X-106673Y1532084D01*
X-106015Y1532645D01*
X-105316Y1533153D01*
X-104579Y1533605D01*
X-103809Y1533997D01*
X-103010Y1534328D01*
X-102188Y1534595D01*
X-101348Y1534797D01*
X-100494Y1534932D01*
X-99632Y1535000D01*
X-98768Y1535000D01*
X-97906Y1534932D01*
X-97052Y1534797D01*
X-96212Y1534595D01*
X-95390Y1534328D01*
X-94591Y1533997D01*
X-93821Y1533605D01*
X-93084Y1533153D01*
X-92385Y1532645D01*
X-91727Y1532084D01*
X-91116Y1531473D01*
X-90555Y1530815D01*
X-90047Y1530116D01*
X-89595Y1529379D01*
X-89203Y1528609D01*
X-88872Y1527810D01*
X-88605Y1526988D01*
X-88403Y1526148D01*
X-88268Y1525294D01*
X-88200Y1524432D01*
X-88200Y1523568D01*
X-88268Y1522706D01*
X-88403Y1521852D01*
X-88605Y1521012D01*
X-88872Y1520190D01*
X-89203Y1519391D01*
X-89595Y1518621D01*
X-90047Y1517884D01*
X-90555Y1517185D01*
X-91116Y1516527D01*
X-91727Y1515916D01*
X-92385Y1515355D01*
X-93084Y1514847D01*
X-93821Y1514395D01*
X-94591Y1514003D01*
X-95390Y1513672D01*
X-96212Y1513405D01*
X-97052Y1513203D01*
X-97906Y1513068D01*
X-98768Y1513000D01*
X-99632Y1513000D01*
X-100494Y1513068D01*
X-101348Y1513203D01*
X-102188Y1513405D01*
X-103010Y1513672D01*
X-103809Y1514003D01*
X-104579Y1514395D01*
X-105316Y1514847D01*
X-106015Y1515355D01*
X-106673Y1515916D01*
X-107284Y1516527D01*
X-107845Y1517185D01*
X-108353Y1517884D01*
X-108805Y1518621D01*
X-109197Y1519391D01*
X-109528Y1520190D01*
X-109795Y1521012D01*
X-109997Y1521852D01*
X-110132Y1522706D01*
X-110200Y1523568D01*
X-110200Y1524432D01*
M02*
