M48
;GenerationSoftware,Autodesk,EAGLE,9.6.1*%
;CreationDate,2024-08-01T05:44:59Z*%
FMAT,2
ICI,OFF
METRIC,TZ,000.000
T8C0.610
T7C0.813
T6C0.914
T5C1.016
T4C1.270
T3C1.700
T2C2.200
T1C3.962
%
G90
M71
T1
X66040Y163830
X-30480Y163830
X99060Y130810
T2
X30240Y152400
X-9920Y152400
T3
X30240Y155400
X-9920Y155400
T4
X-41910Y63500
X-41910Y60960
X-41910Y55880
X-41910Y53340
X-41910Y50800
X-41910Y45720
X-41910Y43180
X-41910Y40640
X-41910Y38100
X-57150Y38100
X-57150Y40640
X-57150Y43180
X-57150Y45720
X-57150Y48260
X-57150Y50800
X-57150Y53340
X-57150Y55880
X-57150Y58420
X-57150Y60960
X-57150Y63500
X-57150Y66040
X-57150Y68580
X-57150Y71120
X-57150Y73660
X-67310Y48260
X-67310Y76200
X-67310Y73660
X-67310Y71120
X-67310Y68580
X-67310Y66040
X-67310Y63500
X-67310Y60960
X-67310Y58420
X-67310Y55880
X-67310Y53340
X-67310Y50800
X-67310Y45720
X-67310Y43180
X-67310Y40640
X-67310Y38100
X-82550Y38100
X-82550Y40640
X-82550Y43180
X-82550Y45720
X-82550Y48260
X-82550Y50800
X-82550Y53340
X-82550Y55880
X-82550Y58420
X-82550Y60960
X-82550Y63500
X-82550Y66040
X-82550Y68580
X-82550Y71120
X-82550Y73660
X-82550Y76200
X-57150Y76200
X-41910Y48260
X-41910Y73660
X-41910Y76200
X-41910Y71120
X-41910Y68580
X-41910Y66040
X-41910Y58420
T5
X55880Y111760
X58420Y109220
X58420Y111760
X60960Y109220
X63500Y109220
X66040Y109220
X68580Y109220
X71120Y109220
X73660Y109220
X60960Y111760
X63500Y111760
X66040Y111760
X68580Y111760
X71120Y111760
X73660Y111760
X-66040Y109220
X-63500Y109220
X-60960Y109220
X-58420Y109220
X-66040Y111760
X-63500Y111760
X-60960Y111760
X-58420Y111760
X-55880Y109220
X-55880Y111760
X-50800Y109220
X-48260Y109220
X-45720Y109220
X-43180Y109220
X-40640Y109220
X-53340Y111760
X-50800Y111760
X-48260Y111760
X-45720Y111760
X-43180Y111760
X-40640Y111760
X-38100Y109220
X-38100Y111760
X-35560Y109220
X-33020Y109220
X-30480Y109220
X-27940Y109220
X-25400Y109220
X-22860Y109220
X-35560Y111760
X-33020Y111760
X-30480Y111760
X-27940Y111760
X-25400Y111760
X-22860Y111760
X139700Y173990
X137160Y173990
X134620Y173990
X132080Y173990
X-53340Y109220
X149860Y121920
X149860Y119380
X149860Y116840
X149860Y114300
X149860Y111760
X149860Y109220
X-36830Y172720
X-39370Y172720
X-41910Y172720
X-44450Y172720
X-46990Y172720
X-49530Y172720
X-36830Y170180
X-39370Y170180
X-41910Y170180
X-44450Y170180
X-46990Y170180
X-49530Y170180
X-52070Y172720
X-52070Y170180
X-54610Y172720
X-57150Y172720
X-59690Y172720
X-62230Y172720
X-64770Y172720
X-67310Y172720
X-54610Y170180
X129540Y173990
X120650Y173990
X118110Y173990
X115570Y173990
X113030Y173990
X110490Y173990
X-57150Y170180
X-59690Y170180
X-62230Y170180
X-64770Y170180
X-67310Y170180
X-69850Y172720
X-69850Y170180
X-72390Y172720
X-74930Y172720
X-77470Y172720
X-80010Y172720
X-82550Y172720
X-85090Y172720
X-72390Y170180
X-74930Y170180
X-77470Y170180
X-80010Y170180
X-82550Y170180
X-85090Y170180
X30480Y109220
X33020Y109220
X35560Y109220
X38100Y109220
X30480Y111760
X33020Y111760
X35560Y111760
X38100Y111760
X40640Y109220
X40640Y111760
X43180Y109220
X45720Y109220
X48260Y109220
X50800Y109220
X53340Y109220
X55880Y109220
X43180Y111760
X45720Y111760
X48260Y111760
X50800Y111760
X53340Y111760
X172720Y167640
X172720Y165100
X172720Y162560
X172720Y160020
X172720Y157480
X172720Y154940
X172720Y152400
X172720Y149860
X172720Y147320
X172720Y144780
X172720Y142240
X172720Y139700
X172720Y137160
X172720Y134620
X172720Y132080
X172720Y129540
X172720Y127000
X172720Y124460
X172720Y121920
X172720Y119380
X172720Y116840
X172720Y114300
X172720Y111760
X172720Y109220
X149860Y167640
X149860Y165100
X149860Y162560
X149860Y160020
X149860Y157480
X149860Y154940
X149860Y152400
X149860Y149860
X149860Y147320
X149860Y144780
X149860Y142240
X149860Y139700
X149860Y137160
X149860Y134620
X149860Y132080
X149860Y129540
X149860Y127000
X149860Y124460
T6
X54610Y39370
X-27940Y172720
X-25400Y172720
X-31750Y88900
X54610Y36830
X54610Y34290
X115570Y72390
X113030Y72390
X-31750Y86360
X-31750Y83820
T7
X158750Y13970
X161290Y13970
X163830Y13970
X166370Y13970
X129540Y161290
X132080Y161290
X134620Y161290
X137160Y161290
X137160Y168910
X134620Y168910
X132080Y168910
X129540Y168910
X127000Y156210
X129540Y156210
X132080Y156210
X134620Y156210
X137160Y156210
X-59690Y24130
X-59690Y21590
X-29210Y24130
X-29210Y21590
X1270Y24130
X1270Y21590
X31750Y24130
X31750Y21590
X26670Y54610
X26670Y52070
X26670Y39370
X26670Y36830
X129540Y78740
X129540Y76200
X26670Y68580
X26670Y66040
X129540Y43180
X129540Y40640
X153670Y78740
X153670Y76200
X-67310Y91440
X-67310Y93980
X153670Y43180
X153670Y40640
X-38100Y91440
X-38100Y93980
X-16510Y80010
X12700Y80010
X10160Y80010
X-76200Y20320
X-78740Y20320
X66040Y62230
X68580Y62230
X71120Y62230
X73660Y62230
X76200Y62230
X78740Y62230
X81280Y62230
X83820Y62230
X86360Y62230
X88900Y62230
X91440Y62230
X93980Y62230
X93980Y69850
X91440Y69850
X88900Y69850
X86360Y69850
X83820Y69850
X81280Y69850
X78740Y69850
X76200Y69850
X73660Y69850
X71120Y69850
X68580Y69850
X66040Y69850
X45720Y93980
X55880Y93980
X45720Y99060
X55880Y99060
X5080Y143510
X-2540Y143510
X-57150Y160020
X-64770Y160020
X78740Y83820
X81280Y83820
X93980Y83820
X93980Y91440
X83820Y83820
X86360Y83820
X91440Y83820
X88900Y83820
X91440Y91440
X88900Y91440
X86360Y91440
X83820Y91440
X78740Y91440
X-39370Y160020
X-46990Y160020
X76200Y91440
X76200Y88900
X63500Y69850
X63500Y67310
X110490Y102870
X110490Y100330
X110490Y87630
X110490Y85090
X110490Y97790
X110490Y95250
X110490Y90170
X110490Y92710
X110490Y82550
X110490Y80010
X118110Y80010
X118110Y82550
X118110Y85090
X118110Y87630
X118110Y90170
X118110Y92710
X118110Y95250
X118110Y97790
X118110Y100330
X118110Y102870
X132080Y134620
X132080Y132080
X132080Y119380
X132080Y116840
X132080Y129540
X132080Y127000
X132080Y121920
X132080Y124460
X132080Y114300
X132080Y111760
X139700Y111760
X139700Y114300
X139700Y116840
X139700Y119380
X139700Y121920
X139700Y124460
X139700Y127000
X139700Y129540
X139700Y132080
X139700Y134620
X114300Y134620
X114300Y132080
X114300Y119380
X114300Y116840
X114300Y129540
X114300Y127000
X114300Y121920
X114300Y124460
X114300Y114300
X114300Y111760
X121920Y111760
X121920Y114300
X121920Y116840
X121920Y119380
X121920Y121920
X121920Y124460
X121920Y127000
X121920Y129540
X121920Y132080
X121920Y134620
X129540Y143510
X132080Y143510
X134620Y143510
X137160Y143510
X137160Y151130
X3810Y16510
X134620Y151130
X132080Y151130
X129540Y151130
X121920Y137160
X119380Y137160
X139700Y137160
X137160Y137160
X118110Y105410
X115570Y105410
X113030Y143510
X115570Y143510
X118110Y143510
X120650Y143510
X120650Y151130
X118110Y151130
X115570Y151130
X113030Y151130
X110490Y151130
X110490Y148590
X80010Y16510
X82550Y16510
X95250Y16510
X97790Y16510
X85090Y16510
X87630Y16510
X92710Y16510
X90170Y16510
X100330Y16510
X102870Y16510
X102870Y24130
X100330Y24130
X97790Y24130
X95250Y24130
X92710Y24130
X90170Y24130
X87630Y24130
X85090Y24130
X82550Y24130
X80010Y24130
X81280Y91440
X-57150Y16510
X-54610Y16510
X-41910Y16510
X-39370Y16510
X-52070Y16510
X-49530Y16510
X-44450Y16510
X-46990Y16510
X-36830Y16510
X-34290Y16510
X-34290Y24130
X-36830Y24130
X-39370Y24130
X-41910Y24130
X-44450Y24130
X-46990Y24130
X-49530Y24130
X-52070Y24130
X-54610Y24130
X-57150Y24130
X-26670Y16510
X-24130Y16510
X-11430Y16510
X-8890Y16510
X-21590Y16510
X-19050Y16510
X-13970Y16510
X-16510Y16510
X-6350Y16510
X-3810Y16510
X-3810Y24130
X-6350Y24130
X-8890Y24130
X-11430Y24130
X-13970Y24130
X-16510Y24130
X-19050Y24130
X-21590Y24130
X-24130Y24130
X-26670Y24130
X6350Y16510
X19050Y16510
X21590Y16510
X8890Y16510
X11430Y16510
X16510Y16510
X13970Y16510
X24130Y16510
X26670Y16510
X26670Y24130
X24130Y24130
X21590Y24130
X19050Y24130
X16510Y24130
X13970Y24130
X11430Y24130
X8890Y24130
X6350Y24130
X3810Y24130
X34290Y16510
X36830Y16510
X49530Y16510
X52070Y16510
X39370Y16510
X41910Y16510
X46990Y16510
X44450Y16510
X54610Y16510
X57150Y16510
X57150Y24130
X54610Y24130
X52070Y24130
X49530Y24130
X46990Y24130
X44450Y24130
X41910Y24130
X39370Y24130
X36830Y24130
X34290Y24130
X29210Y31750
X31750Y31750
X44450Y31750
X46990Y31750
X34290Y31750
X36830Y31750
X41910Y31750
X39370Y31750
X46990Y39370
X44450Y39370
X41910Y39370
X39370Y39370
X36830Y39370
X34290Y39370
X31750Y39370
X29210Y39370
X29210Y46990
X31750Y46990
X44450Y46990
X46990Y46990
X34290Y46990
X36830Y46990
X41910Y46990
X39370Y46990
X46990Y54610
X44450Y54610
X41910Y54610
X39370Y54610
X36830Y54610
X34290Y54610
X31750Y54610
X29210Y54610
X29210Y62230
X31750Y62230
X34290Y62230
X36830Y62230
X39370Y62230
X41910Y62230
X44450Y62230
X46990Y62230
X49530Y62230
X52070Y62230
X54610Y62230
X57150Y62230
X57150Y69850
X54610Y69850
X52070Y69850
X49530Y69850
X46990Y69850
X44450Y69850
X41910Y69850
X39370Y69850
X36830Y69850
X34290Y69850
X31750Y69850
X29210Y69850
X132080Y35560
X134620Y35560
X147320Y35560
X147320Y43180
X137160Y35560
X139700Y35560
X144780Y35560
X142240Y35560
X144780Y43180
X142240Y43180
X139700Y43180
X137160Y43180
X134620Y43180
X132080Y43180
X132080Y53340
X134620Y53340
X147320Y53340
X149860Y53340
X137160Y53340
X139700Y53340
X144780Y53340
X142240Y53340
X149860Y60960
X147320Y60960
X144780Y60960
X142240Y60960
X139700Y60960
X137160Y60960
X134620Y60960
X132080Y60960
X129540Y48260
X132080Y48260
X134620Y48260
X137160Y48260
X139700Y48260
X142240Y48260
X144780Y48260
X147320Y48260
X149860Y48260
X156210Y35560
X158750Y35560
X171450Y35560
X171450Y43180
X161290Y35560
X163830Y35560
X168910Y35560
X166370Y35560
X168910Y43180
X166370Y43180
X163830Y43180
X161290Y43180
X158750Y43180
X156210Y43180
X156210Y53340
X158750Y53340
X171450Y53340
X173990Y53340
X161290Y53340
X163830Y53340
X168910Y53340
X166370Y53340
X173990Y60960
X171450Y60960
X168910Y60960
X166370Y60960
X163830Y60960
X161290Y60960
X158750Y60960
X-13970Y80010
X153670Y48260
X156210Y48260
X158750Y48260
X161290Y48260
X163830Y48260
X166370Y48260
X168910Y48260
X171450Y48260
X173990Y48260
X132080Y71120
X134620Y71120
X147320Y71120
X147320Y78740
X137160Y71120
X139700Y71120
X144780Y71120
X142240Y71120
X144780Y78740
X142240Y78740
X139700Y78740
X137160Y78740
X134620Y78740
X132080Y78740
X132080Y88900
X134620Y88900
X147320Y88900
X149860Y88900
X137160Y88900
X139700Y88900
X144780Y88900
X142240Y88900
X149860Y96520
X147320Y96520
X144780Y96520
X142240Y96520
X139700Y96520
X137160Y96520
X134620Y96520
X132080Y96520
X129540Y83820
X132080Y83820
X134620Y83820
X137160Y83820
X139700Y83820
X142240Y83820
X144780Y83820
X147320Y83820
X149860Y83820
X156210Y71120
X158750Y71120
X171450Y71120
X171450Y78740
X161290Y71120
X163830Y71120
X168910Y71120
X166370Y71120
X168910Y78740
X166370Y78740
X163830Y78740
X161290Y78740
X158750Y78740
X156210Y78740
X156210Y88900
X158750Y88900
X171450Y88900
X173990Y88900
X161290Y88900
X163830Y88900
X168910Y88900
X166370Y88900
X173990Y96520
X171450Y96520
X168910Y96520
X166370Y96520
X163830Y96520
X161290Y96520
X158750Y96520
X156210Y96520
X153670Y83820
X156210Y83820
X158750Y83820
X161290Y83820
X163830Y83820
X166370Y83820
X168910Y83820
X171450Y83820
X173990Y83820
X110490Y161290
X113030Y161290
X115570Y161290
X118110Y161290
X118110Y168910
X115570Y168910
X113030Y168910
X110490Y168910
X107950Y156210
X110490Y156210
X113030Y156210
X115570Y156210
X118110Y156210
X156210Y60960
X-29210Y77470
X-29210Y74930
X-29210Y72390
X-29210Y69850
X-29210Y67310
X-29210Y64770
X-29210Y62230
X-29210Y59690
X-29210Y57150
X-29210Y54610
X-29210Y52070
X-29210Y49530
X-29210Y46990
X-29210Y44450
X-13970Y44450
X-13970Y46990
X-13970Y49530
X-13970Y52070
X-13970Y54610
X-13970Y57150
X-13970Y59690
X-13970Y62230
X-13970Y64770
X-13970Y67310
X-13970Y69850
X-13970Y72390
X-13970Y74930
X-13970Y77470
X-2540Y77470
X-2540Y74930
X-2540Y72390
X-2540Y69850
X-2540Y67310
X-2540Y64770
X-2540Y62230
X-2540Y59690
X-2540Y57150
X-2540Y54610
X-2540Y52070
X-2540Y49530
X-2540Y46990
X-2540Y44450
X12700Y44450
X12700Y46990
X12700Y49530
X12700Y52070
X12700Y54610
X12700Y57150
X12700Y59690
X12700Y62230
X12700Y64770
X12700Y67310
X12700Y69850
X12700Y72390
X12700Y74930
X12700Y77470
X123190Y19050
X125730Y19050
X128270Y19050
X130810Y19050
X133350Y19050
X135890Y19050
X138430Y19050
X140970Y19050
X143510Y19050
X146050Y19050
X146050Y26670
X143510Y26670
X140970Y26670
X138430Y26670
X135890Y26670
X133350Y26670
X130810Y26670
X128270Y26670
X125730Y26670
X123190Y26670
X152400Y19050
X154940Y19050
X157480Y19050
X160020Y19050
X162560Y19050
X165100Y19050
X167640Y19050
X170180Y19050
X172720Y19050
X175260Y19050
X175260Y26670
X172720Y26670
X170180Y26670
X167640Y26670
X165100Y26670
X162560Y26670
X160020Y26670
X157480Y26670
X154940Y26670
X152400Y26670
X120650Y13970
X123190Y13970
X125730Y13970
X128270Y13970
X130810Y13970
X133350Y13970
X135890Y13970
X138430Y13970
X140970Y13970
X146050Y13970
X148590Y13970
X151130Y13970
X153670Y13970
X156210Y13970
T8
X-77788Y7620
X-75089Y50800
X55880Y7620
X77788Y7620
X-39846Y44609
X32702Y10478
X-34290Y9525
X150971Y69374
X117792Y77629
X-11430Y169386
X51117Y39370
X57626Y65246
X-18415Y90329
X32067Y51911
X102870Y84138
X74613Y7620
X120650Y42545
X120491Y26194
X133668Y138589
X-74613Y7620
X-34131Y164148
X-22542Y144304
X65881Y88741
X23971Y56674
X29527Y77153
X23812Y27622
X-13970Y141923
X-1746Y22860
X-14129Y107156
X60960Y10478
X34290Y10636
X-40481Y14922
X-33020Y14605
X-45720Y20320
X-28099Y20320
X-24130Y7461
X-44132Y19368
X-24765Y19368
X-28257Y13811
X-25082Y10636
X-41434Y13335
X-20638Y12859
X-38100Y12382
X-36830Y12382
X-19050Y10001
X23812Y9525
X33020Y12700
X40640Y20320
X30480Y20320
X37783Y11906
X30480Y19050
X37465Y14446
X33655Y7461
X5874Y67151
X2540Y20320
X41751Y80804
X-23971Y80328
X-64770Y77153
X13494Y28734
X40640Y43180
X38100Y42863
X72231Y43180
X-62865Y70485
X-62865Y79216
X-43656Y71914
X70961Y73184
X14605Y33496
X29369Y24606
X-77153Y77153
X-66040Y78423
X-65723Y75089
X67151Y75089
X-50641Y75089
X-47942Y84296
X-30956Y80645
X32861Y76041
X-63817Y78264
X-47466Y74454
X-17304Y61436
X18098Y30956
X87471Y53022
X22542Y64611
X22384Y49847
X-60642Y39370
X-51911Y36513
X-50482Y44767
X19050Y53499
X-62865Y63817
X-61595Y79851
X-48577Y79534
X20003Y65564
X19685Y57150
X-40323Y64452
X-60642Y64770
X-60325Y80486
X-39053Y78740
X20955Y69533
X86201Y57467
X20955Y57467
X-17304Y64611
X-75883Y77788
X-59372Y81439
X-59849Y65881
X3651Y72231
X82233Y56832
X30162Y56832
X23495Y73501
X-58420Y88424
X-40005Y88424
X-37783Y73343
X-69850Y46672
X-66834Y32385
X-17939Y31909
X-11271Y173038
X-20479Y160338
X-1587Y160338
X-14287Y174784
X-74295Y49530
X-11112Y54769
X-10954Y123190
X-7461Y126682
X-10795Y161290
X-71596Y45085
X-70485Y167640
X-18415Y49689
X-19526Y161290
X-71596Y43498
X22066Y153988
X-71438Y151765
X-15240Y156528
X-73501Y40640
X20003Y131445
X-73660Y131445
X-10001Y131445
X-10795Y42704
X-68580Y150813
X20796Y153988
X-73501Y39370
X-8414Y150495
X-20638Y26352
X-23177Y49371
X-23177Y33814
X-64452Y149543
X17463Y153511
X-71120Y94615
X-69533Y144463
X-25082Y27305
X-83979Y54451
X14764Y133826
X-81280Y133826
X-79693Y26829
X52387Y127635
X19368Y136684
X-49212Y41593
X10001Y49689
X-34608Y48419
X-37148Y48419
X-51276Y152083
X-45879Y137954
X51435Y125412
X20638Y134620
X-46514Y41116
X-55404Y154940
X-39688Y54292
X-48260Y137001
X-57626Y155893
X10001Y32861
X-45244Y27781
X45402Y115887
X22542Y117157
X103346Y116046
X15557Y50165
X-50165Y117316
X-57626Y153035
X42863Y133033
X26352Y136684
X42863Y124460
X16034Y47149
X-51752Y130492
X-57626Y113982
X-72390Y113665
X-39688Y41751
X40323Y127159
X29686Y134620
X40323Y121920
X15557Y45085
X23812Y115887
X-43339Y36354
X-25082Y47466
X-58579Y158909
X38418Y119697
X4921Y127635
X-54292Y127635
X-7461Y47942
X-37624Y28734
X-50165Y31274
X-52864Y41593
X-5874Y49371
X-7937Y31115
X26352Y126524
X318Y134779
X32385Y118904
X-64452Y134779
X-635Y39688
X-9366Y145574
X9208Y146050
X2540Y146050
X-3334Y146050
X38259Y103505
X43180Y141764
X39211Y102552
X42863Y134303
X16510Y146050
X53022Y146050
X95567Y87630
X1905Y157798
X17463Y152241
X-35560Y166370
X18891Y152241
X47149Y150654
X64770Y99377
X1587Y136049
X14605Y98425
X14922Y71438
X17463Y70803
X18098Y62706
X36513Y7779
X36513Y13176
X60166Y13017
X149543Y41593
X136525Y30797
X37783Y30004
X148749Y49847
X154464Y64929
X35560Y76041
X150971Y28734
X135573Y21273
X40799Y22542
X131128Y56039
X119380Y21273
X119380Y49689
X121920Y21273
X50959Y21431
X128270Y88741
X43339Y27781
X128270Y91281
X126682Y50006
X49689Y45720
X125730Y83661
X118427Y31750
X118427Y46355
X123349Y31750
X36989Y33973
X125730Y84931
X124777Y51911
X123825Y84296
X123825Y52864
X120650Y44132
X50324Y137636
X-35719Y77788
X-45561Y75089
X-45085Y59849
X-42545Y139859
X1587Y139859
X20955Y46037
X20955Y40799
X53816Y32702
X-82868Y36195
X63817Y81915
X7937Y85249
X-34766Y82391
X53975Y98107
X39688Y7779
X43498Y11747
X58896Y11747
X58261Y71914
X48260Y72866
X54451Y67151
X28257Y105569
X48101Y138589
X-40799Y140811
X13652Y147003
X-41593Y165418
X-41910Y104457
X60642Y87630
X26670Y107474
X56039Y104775
X-21749Y114459
X74613Y94932
X57150Y73184
X51117Y102552
X-53499Y82391
X-33179Y157639
X1905Y156528
X-39211Y165418
X5080Y40323
X51594Y34449
X-65881Y42069
X-70644Y39053
X78264Y80963
X5080Y47784
X32861Y36513
X-27781Y168275
X-34766Y56197
X-40481Y29051
X-62547Y31274
X-84773Y33179
X1905Y168275
X66993Y26194
X-36671Y61754
X-40958Y34766
X-61119Y34449
X79851Y63817
X69215Y27146
X-64929Y48101
X-74454Y47784
X-4921Y57309
X74613Y53181
X-38735Y39370
X-36671Y64452
X-59690Y42545
X-77470Y36830
X73184Y29845
X44926Y29686
X1746Y78740
X67945Y77788
X-27464Y87471
X-55880Y82391
X66993Y22384
X7461Y69691
X7779Y36354
X34925Y29686
X-32861Y78423
X-58420Y82391
X-74930Y80010
X75724Y29845
X40164Y27622
X-5874Y53816
X-59531Y128587
X95091Y96202
X83344Y100330
X-45720Y95885
X84931Y94139
X-47942Y95885
X67945Y84773
X77470Y71279
X51752Y104457
X54610Y110807
X118586Y129381
X130810Y99060
X86836Y94139
X127476Y102552
X127476Y103822
X165735Y104775
X152083Y119062
X156210Y120650
X145415Y130810
X168910Y125730
X142081Y140494
X83344Y88106
X135731Y116999
X134779Y114459
X141605Y135890
X125412Y157004
X149225Y100965
X61912Y71279
X57309Y87947
X53340Y115094
X91916Y87947
X51117Y81121
X126841Y147161
X53975Y131445
X52387Y144145
X42386Y90964
X45561Y87789
X113665Y68104
X68739Y64929
X-68580Y85249
X-39053Y86201
X-49530Y137001
X-52546Y76676
X-53499Y89376
X-74930Y84296
X-53816Y99377
X84296Y112236
X-66040Y81756
X-55404Y85249
X22860Y94615
X36671Y142716
X-16351Y170974
X138589Y82074
X141129Y85408
X138430Y46831
X141129Y49847
X53657Y42545
X36513Y60007
X84614Y73819
X34766Y79216
X57626Y56197
X40799Y79851
X39370Y67628
X36989Y66358
X-68898Y83661
X38894Y79851
X-47625Y32861
X-66834Y33655
X-33814Y58579
X33496Y118110
X7779Y128587
X-21590Y83979
X30956Y84296
X33814Y74454
X21907Y61754
X23812Y67310
X61119Y19050
X55880Y18256
X61119Y69850
X62865Y63182
X51117Y14287
X66040Y19368
X67628Y60007
X84296Y47149
X51752Y48419
X171609Y57626
X168751Y58579
X160179Y38894
X64135Y25082
X63500Y60007
X47307Y60007
X155258Y39846
X113506Y29051
X92551Y50006
X43180Y50324
X151924Y40640
X116681Y41275
X110331Y47625
X157163Y64929
X151289Y70803
X149543Y27464
X113982Y105569
X49371Y149701
X55721Y41116
X39370Y41751
X40481Y36671
X7302Y147003
X26352Y120809
X-33814Y30162
X-7144Y147796
M30