G04 EAGLE Gerber RS-274X export*
G75*
%MOMM*%
%FSLAX34Y34*%
%LPD*%
%INSilkscreen Bottom*%
%IPPOS*%
%AMOC8*
5,1,8,0,0,1.08239X$1,22.5*%
G01*
%ADD10C,0.101600*%
%ADD11C,0.152400*%
%ADD12C,0.127000*%


D10*
X-772724Y78726D02*
X-770128Y81971D01*
X-781812Y81971D01*
X-781812Y78726D02*
X-781812Y85217D01*
X779131Y85767D02*
X779131Y89662D01*
X779131Y85767D02*
X779133Y85668D01*
X779139Y85568D01*
X779148Y85469D01*
X779161Y85371D01*
X779178Y85273D01*
X779199Y85175D01*
X779224Y85079D01*
X779252Y84984D01*
X779284Y84890D01*
X779319Y84797D01*
X779358Y84705D01*
X779401Y84615D01*
X779446Y84527D01*
X779496Y84440D01*
X779548Y84356D01*
X779604Y84273D01*
X779662Y84193D01*
X779724Y84115D01*
X779789Y84040D01*
X779857Y83967D01*
X779927Y83897D01*
X780000Y83829D01*
X780075Y83764D01*
X780153Y83702D01*
X780233Y83644D01*
X780316Y83588D01*
X780400Y83536D01*
X780487Y83486D01*
X780575Y83441D01*
X780665Y83398D01*
X780757Y83359D01*
X780850Y83324D01*
X780944Y83292D01*
X781039Y83264D01*
X781135Y83239D01*
X781233Y83218D01*
X781331Y83201D01*
X781429Y83188D01*
X781528Y83179D01*
X781628Y83173D01*
X781727Y83171D01*
X782376Y83171D01*
X782376Y83170D02*
X782489Y83172D01*
X782602Y83178D01*
X782715Y83188D01*
X782828Y83202D01*
X782940Y83219D01*
X783051Y83241D01*
X783161Y83266D01*
X783271Y83296D01*
X783379Y83329D01*
X783486Y83366D01*
X783592Y83406D01*
X783696Y83451D01*
X783799Y83499D01*
X783900Y83550D01*
X783999Y83605D01*
X784096Y83663D01*
X784191Y83725D01*
X784284Y83790D01*
X784374Y83858D01*
X784462Y83929D01*
X784548Y84004D01*
X784631Y84081D01*
X784711Y84161D01*
X784788Y84244D01*
X784863Y84330D01*
X784934Y84418D01*
X785002Y84508D01*
X785067Y84601D01*
X785129Y84696D01*
X785187Y84793D01*
X785242Y84892D01*
X785293Y84993D01*
X785341Y85096D01*
X785386Y85200D01*
X785426Y85306D01*
X785463Y85413D01*
X785496Y85521D01*
X785526Y85631D01*
X785551Y85741D01*
X785573Y85852D01*
X785590Y85964D01*
X785604Y86077D01*
X785614Y86190D01*
X785620Y86303D01*
X785622Y86416D01*
X785620Y86529D01*
X785614Y86642D01*
X785604Y86755D01*
X785590Y86868D01*
X785573Y86980D01*
X785551Y87091D01*
X785526Y87201D01*
X785496Y87311D01*
X785463Y87419D01*
X785426Y87526D01*
X785386Y87632D01*
X785341Y87736D01*
X785293Y87839D01*
X785242Y87940D01*
X785187Y88039D01*
X785129Y88136D01*
X785067Y88231D01*
X785002Y88324D01*
X784934Y88414D01*
X784863Y88502D01*
X784788Y88588D01*
X784711Y88671D01*
X784631Y88751D01*
X784548Y88828D01*
X784462Y88903D01*
X784374Y88974D01*
X784284Y89042D01*
X784191Y89107D01*
X784096Y89169D01*
X783999Y89227D01*
X783900Y89282D01*
X783799Y89333D01*
X783696Y89381D01*
X783592Y89426D01*
X783486Y89466D01*
X783379Y89503D01*
X783271Y89536D01*
X783161Y89566D01*
X783051Y89591D01*
X782940Y89613D01*
X782828Y89630D01*
X782715Y89644D01*
X782602Y89654D01*
X782489Y89660D01*
X782376Y89662D01*
X779131Y89662D01*
X778988Y89660D01*
X778845Y89654D01*
X778702Y89644D01*
X778560Y89630D01*
X778418Y89613D01*
X778276Y89591D01*
X778135Y89566D01*
X777995Y89536D01*
X777856Y89503D01*
X777718Y89466D01*
X777581Y89425D01*
X777445Y89381D01*
X777310Y89332D01*
X777177Y89280D01*
X777045Y89225D01*
X776915Y89165D01*
X776786Y89102D01*
X776659Y89036D01*
X776535Y88966D01*
X776412Y88893D01*
X776291Y88816D01*
X776172Y88736D01*
X776056Y88653D01*
X775941Y88567D01*
X775830Y88478D01*
X775720Y88385D01*
X775614Y88290D01*
X775510Y88191D01*
X775409Y88090D01*
X775310Y87986D01*
X775215Y87880D01*
X775122Y87770D01*
X775033Y87659D01*
X774947Y87544D01*
X774864Y87428D01*
X774784Y87309D01*
X774707Y87188D01*
X774634Y87066D01*
X774564Y86941D01*
X774498Y86814D01*
X774435Y86685D01*
X774375Y86555D01*
X774320Y86423D01*
X774268Y86290D01*
X774219Y86155D01*
X774175Y86019D01*
X774134Y85882D01*
X774097Y85744D01*
X774064Y85605D01*
X774034Y85465D01*
X774009Y85324D01*
X773987Y85182D01*
X773970Y85040D01*
X773956Y84898D01*
X773946Y84755D01*
X773940Y84612D01*
X773938Y84469D01*
X779131Y97197D02*
X779131Y101092D01*
X779131Y97197D02*
X779133Y97098D01*
X779139Y96998D01*
X779148Y96899D01*
X779161Y96801D01*
X779178Y96703D01*
X779199Y96605D01*
X779224Y96509D01*
X779252Y96414D01*
X779284Y96320D01*
X779319Y96227D01*
X779358Y96135D01*
X779401Y96045D01*
X779446Y95957D01*
X779496Y95870D01*
X779548Y95786D01*
X779604Y95703D01*
X779662Y95623D01*
X779724Y95545D01*
X779789Y95470D01*
X779857Y95397D01*
X779927Y95327D01*
X780000Y95259D01*
X780075Y95194D01*
X780153Y95132D01*
X780233Y95074D01*
X780316Y95018D01*
X780400Y94966D01*
X780487Y94916D01*
X780575Y94871D01*
X780665Y94828D01*
X780757Y94789D01*
X780850Y94754D01*
X780944Y94722D01*
X781039Y94694D01*
X781135Y94669D01*
X781233Y94648D01*
X781331Y94631D01*
X781429Y94618D01*
X781528Y94609D01*
X781628Y94603D01*
X781727Y94601D01*
X782376Y94601D01*
X782376Y94600D02*
X782489Y94602D01*
X782602Y94608D01*
X782715Y94618D01*
X782828Y94632D01*
X782940Y94649D01*
X783051Y94671D01*
X783161Y94696D01*
X783271Y94726D01*
X783379Y94759D01*
X783486Y94796D01*
X783592Y94836D01*
X783696Y94881D01*
X783799Y94929D01*
X783900Y94980D01*
X783999Y95035D01*
X784096Y95093D01*
X784191Y95155D01*
X784284Y95220D01*
X784374Y95288D01*
X784462Y95359D01*
X784548Y95434D01*
X784631Y95511D01*
X784711Y95591D01*
X784788Y95674D01*
X784863Y95760D01*
X784934Y95848D01*
X785002Y95938D01*
X785067Y96031D01*
X785129Y96126D01*
X785187Y96223D01*
X785242Y96322D01*
X785293Y96423D01*
X785341Y96526D01*
X785386Y96630D01*
X785426Y96736D01*
X785463Y96843D01*
X785496Y96951D01*
X785526Y97061D01*
X785551Y97171D01*
X785573Y97282D01*
X785590Y97394D01*
X785604Y97507D01*
X785614Y97620D01*
X785620Y97733D01*
X785622Y97846D01*
X785620Y97959D01*
X785614Y98072D01*
X785604Y98185D01*
X785590Y98298D01*
X785573Y98410D01*
X785551Y98521D01*
X785526Y98631D01*
X785496Y98741D01*
X785463Y98849D01*
X785426Y98956D01*
X785386Y99062D01*
X785341Y99166D01*
X785293Y99269D01*
X785242Y99370D01*
X785187Y99469D01*
X785129Y99566D01*
X785067Y99661D01*
X785002Y99754D01*
X784934Y99844D01*
X784863Y99932D01*
X784788Y100018D01*
X784711Y100101D01*
X784631Y100181D01*
X784548Y100258D01*
X784462Y100333D01*
X784374Y100404D01*
X784284Y100472D01*
X784191Y100537D01*
X784096Y100599D01*
X783999Y100657D01*
X783900Y100712D01*
X783799Y100763D01*
X783696Y100811D01*
X783592Y100856D01*
X783486Y100896D01*
X783379Y100933D01*
X783271Y100966D01*
X783161Y100996D01*
X783051Y101021D01*
X782940Y101043D01*
X782828Y101060D01*
X782715Y101074D01*
X782602Y101084D01*
X782489Y101090D01*
X782376Y101092D01*
X779131Y101092D01*
X778988Y101090D01*
X778845Y101084D01*
X778702Y101074D01*
X778560Y101060D01*
X778418Y101043D01*
X778276Y101021D01*
X778135Y100996D01*
X777995Y100966D01*
X777856Y100933D01*
X777718Y100896D01*
X777581Y100855D01*
X777445Y100811D01*
X777310Y100762D01*
X777177Y100710D01*
X777045Y100655D01*
X776915Y100595D01*
X776786Y100532D01*
X776659Y100466D01*
X776535Y100396D01*
X776412Y100323D01*
X776291Y100246D01*
X776172Y100166D01*
X776056Y100083D01*
X775941Y99997D01*
X775830Y99908D01*
X775720Y99815D01*
X775614Y99720D01*
X775510Y99621D01*
X775409Y99520D01*
X775310Y99416D01*
X775215Y99310D01*
X775122Y99200D01*
X775033Y99089D01*
X774947Y98974D01*
X774864Y98858D01*
X774784Y98739D01*
X774707Y98618D01*
X774634Y98496D01*
X774564Y98371D01*
X774498Y98244D01*
X774435Y98115D01*
X774375Y97985D01*
X774320Y97853D01*
X774268Y97720D01*
X774219Y97585D01*
X774175Y97449D01*
X774134Y97312D01*
X774097Y97174D01*
X774064Y97035D01*
X774034Y96895D01*
X774009Y96754D01*
X773987Y96612D01*
X773970Y96470D01*
X773956Y96328D01*
X773946Y96185D01*
X773940Y96042D01*
X773938Y95899D01*
D11*
X967740Y854710D02*
X967740Y897890D01*
X985520Y900430D02*
X985620Y900428D01*
X985719Y900422D01*
X985819Y900412D01*
X985917Y900399D01*
X986016Y900381D01*
X986113Y900360D01*
X986209Y900335D01*
X986305Y900306D01*
X986399Y900273D01*
X986492Y900237D01*
X986583Y900197D01*
X986673Y900153D01*
X986761Y900106D01*
X986847Y900056D01*
X986931Y900002D01*
X987013Y899945D01*
X987092Y899885D01*
X987170Y899821D01*
X987244Y899755D01*
X987316Y899686D01*
X987385Y899614D01*
X987451Y899540D01*
X987515Y899462D01*
X987575Y899383D01*
X987632Y899301D01*
X987686Y899217D01*
X987736Y899131D01*
X987783Y899043D01*
X987827Y898953D01*
X987867Y898862D01*
X987903Y898769D01*
X987936Y898675D01*
X987965Y898579D01*
X987990Y898483D01*
X988011Y898386D01*
X988029Y898287D01*
X988042Y898189D01*
X988052Y898089D01*
X988058Y897990D01*
X988060Y897890D01*
X988060Y854710D02*
X988058Y854610D01*
X988052Y854511D01*
X988042Y854411D01*
X988029Y854313D01*
X988011Y854214D01*
X987990Y854117D01*
X987965Y854021D01*
X987936Y853925D01*
X987903Y853831D01*
X987867Y853738D01*
X987827Y853647D01*
X987783Y853557D01*
X987736Y853469D01*
X987686Y853383D01*
X987632Y853299D01*
X987575Y853217D01*
X987515Y853138D01*
X987451Y853060D01*
X987385Y852986D01*
X987316Y852914D01*
X987244Y852845D01*
X987170Y852779D01*
X987092Y852715D01*
X987013Y852655D01*
X986931Y852598D01*
X986847Y852544D01*
X986761Y852494D01*
X986673Y852447D01*
X986583Y852403D01*
X986492Y852363D01*
X986399Y852327D01*
X986305Y852294D01*
X986209Y852265D01*
X986113Y852240D01*
X986016Y852219D01*
X985917Y852201D01*
X985819Y852188D01*
X985719Y852178D01*
X985620Y852172D01*
X985520Y852170D01*
X970280Y852170D02*
X970180Y852172D01*
X970081Y852178D01*
X969981Y852188D01*
X969883Y852201D01*
X969784Y852219D01*
X969687Y852240D01*
X969591Y852265D01*
X969495Y852294D01*
X969401Y852327D01*
X969308Y852363D01*
X969217Y852403D01*
X969127Y852447D01*
X969039Y852494D01*
X968953Y852544D01*
X968869Y852598D01*
X968787Y852655D01*
X968708Y852715D01*
X968630Y852779D01*
X968556Y852845D01*
X968484Y852914D01*
X968415Y852986D01*
X968349Y853060D01*
X968285Y853138D01*
X968225Y853217D01*
X968168Y853299D01*
X968114Y853383D01*
X968064Y853469D01*
X968017Y853557D01*
X967973Y853647D01*
X967933Y853738D01*
X967897Y853831D01*
X967864Y853925D01*
X967835Y854021D01*
X967810Y854117D01*
X967789Y854214D01*
X967771Y854313D01*
X967758Y854411D01*
X967748Y854511D01*
X967742Y854610D01*
X967740Y854710D01*
X967740Y897890D02*
X967742Y897990D01*
X967748Y898089D01*
X967758Y898189D01*
X967771Y898287D01*
X967789Y898386D01*
X967810Y898483D01*
X967835Y898579D01*
X967864Y898675D01*
X967897Y898769D01*
X967933Y898862D01*
X967973Y898953D01*
X968017Y899043D01*
X968064Y899131D01*
X968114Y899217D01*
X968168Y899301D01*
X968225Y899383D01*
X968285Y899462D01*
X968349Y899540D01*
X968415Y899614D01*
X968484Y899686D01*
X968556Y899755D01*
X968630Y899821D01*
X968708Y899885D01*
X968787Y899945D01*
X968869Y900002D01*
X968953Y900056D01*
X969039Y900106D01*
X969127Y900153D01*
X969217Y900197D01*
X969308Y900237D01*
X969401Y900273D01*
X969495Y900306D01*
X969591Y900335D01*
X969687Y900360D01*
X969784Y900381D01*
X969883Y900399D01*
X969981Y900412D01*
X970081Y900422D01*
X970180Y900428D01*
X970280Y900430D01*
X985520Y900430D01*
X985520Y852170D02*
X970280Y852170D01*
X988060Y854710D02*
X988060Y897890D01*
D12*
X993775Y859155D02*
X993675Y859153D01*
X993576Y859147D01*
X993476Y859137D01*
X993378Y859124D01*
X993279Y859106D01*
X993182Y859085D01*
X993086Y859060D01*
X992990Y859031D01*
X992896Y858998D01*
X992803Y858962D01*
X992712Y858922D01*
X992622Y858878D01*
X992534Y858831D01*
X992448Y858781D01*
X992364Y858727D01*
X992282Y858670D01*
X992203Y858610D01*
X992125Y858546D01*
X992051Y858480D01*
X991979Y858411D01*
X991910Y858339D01*
X991844Y858265D01*
X991780Y858187D01*
X991720Y858108D01*
X991663Y858026D01*
X991609Y857942D01*
X991559Y857856D01*
X991512Y857768D01*
X991468Y857678D01*
X991428Y857587D01*
X991392Y857494D01*
X991359Y857400D01*
X991330Y857304D01*
X991305Y857208D01*
X991284Y857111D01*
X991266Y857012D01*
X991253Y856914D01*
X991243Y856814D01*
X991237Y856715D01*
X991235Y856615D01*
X991237Y856474D01*
X991242Y856333D01*
X991252Y856192D01*
X991265Y856051D01*
X991281Y855911D01*
X991302Y855771D01*
X991326Y855632D01*
X991354Y855493D01*
X991385Y855356D01*
X991420Y855219D01*
X991458Y855083D01*
X991500Y854948D01*
X991546Y854815D01*
X991595Y854682D01*
X991648Y854551D01*
X991704Y854422D01*
X991763Y854293D01*
X991826Y854167D01*
X991892Y854042D01*
X991961Y853919D01*
X992034Y853798D01*
X992110Y853679D01*
X992189Y853561D01*
X992270Y853446D01*
X992355Y853334D01*
X992443Y853223D01*
X992534Y853115D01*
X992627Y853009D01*
X992724Y852906D01*
X992823Y852805D01*
X1000125Y853123D02*
X1000225Y853125D01*
X1000324Y853131D01*
X1000424Y853141D01*
X1000522Y853154D01*
X1000621Y853172D01*
X1000718Y853193D01*
X1000814Y853218D01*
X1000910Y853247D01*
X1001004Y853280D01*
X1001097Y853316D01*
X1001188Y853356D01*
X1001278Y853400D01*
X1001366Y853447D01*
X1001452Y853497D01*
X1001536Y853551D01*
X1001618Y853608D01*
X1001697Y853668D01*
X1001775Y853732D01*
X1001849Y853798D01*
X1001921Y853867D01*
X1001990Y853939D01*
X1002056Y854013D01*
X1002120Y854091D01*
X1002180Y854170D01*
X1002237Y854252D01*
X1002291Y854336D01*
X1002341Y854422D01*
X1002388Y854510D01*
X1002432Y854600D01*
X1002472Y854691D01*
X1002508Y854784D01*
X1002541Y854878D01*
X1002570Y854974D01*
X1002595Y855070D01*
X1002616Y855167D01*
X1002634Y855266D01*
X1002647Y855364D01*
X1002657Y855464D01*
X1002663Y855563D01*
X1002665Y855663D01*
X1002666Y855663D02*
X1002664Y855796D01*
X1002659Y855929D01*
X1002649Y856062D01*
X1002636Y856195D01*
X1002619Y856327D01*
X1002599Y856459D01*
X1002575Y856590D01*
X1002547Y856720D01*
X1002516Y856850D01*
X1002481Y856978D01*
X1002442Y857106D01*
X1002400Y857232D01*
X1002354Y857357D01*
X1002305Y857481D01*
X1002253Y857604D01*
X1002197Y857725D01*
X1002137Y857844D01*
X1002075Y857962D01*
X1002009Y858077D01*
X1001940Y858191D01*
X1001867Y858303D01*
X1001792Y858413D01*
X1001713Y858521D01*
X997902Y854392D02*
X997954Y854308D01*
X998009Y854225D01*
X998068Y854145D01*
X998129Y854067D01*
X998193Y853992D01*
X998261Y853919D01*
X998331Y853848D01*
X998403Y853781D01*
X998478Y853716D01*
X998556Y853654D01*
X998636Y853595D01*
X998718Y853539D01*
X998802Y853487D01*
X998888Y853438D01*
X998976Y853392D01*
X999066Y853349D01*
X999157Y853310D01*
X999250Y853275D01*
X999344Y853243D01*
X999439Y853215D01*
X999535Y853190D01*
X999632Y853170D01*
X999730Y853152D01*
X999828Y853139D01*
X999927Y853130D01*
X1000026Y853124D01*
X1000125Y853122D01*
X995998Y857885D02*
X995946Y857969D01*
X995891Y858052D01*
X995832Y858132D01*
X995771Y858210D01*
X995707Y858285D01*
X995639Y858358D01*
X995569Y858429D01*
X995497Y858496D01*
X995422Y858561D01*
X995344Y858623D01*
X995264Y858682D01*
X995182Y858738D01*
X995098Y858790D01*
X995012Y858839D01*
X994924Y858885D01*
X994834Y858928D01*
X994743Y858967D01*
X994650Y859002D01*
X994556Y859034D01*
X994461Y859062D01*
X994365Y859087D01*
X994268Y859107D01*
X994170Y859125D01*
X994072Y859138D01*
X993973Y859147D01*
X993874Y859153D01*
X993775Y859155D01*
X995998Y857885D02*
X997903Y854393D01*
X993775Y866446D02*
X1002665Y866446D01*
X993775Y866446D02*
X993675Y866444D01*
X993576Y866438D01*
X993476Y866428D01*
X993378Y866415D01*
X993279Y866397D01*
X993182Y866376D01*
X993086Y866351D01*
X992990Y866322D01*
X992896Y866289D01*
X992803Y866253D01*
X992712Y866213D01*
X992622Y866169D01*
X992534Y866122D01*
X992448Y866072D01*
X992364Y866018D01*
X992282Y865961D01*
X992203Y865901D01*
X992125Y865837D01*
X992051Y865771D01*
X991979Y865702D01*
X991910Y865630D01*
X991844Y865556D01*
X991780Y865478D01*
X991720Y865399D01*
X991663Y865317D01*
X991609Y865233D01*
X991559Y865147D01*
X991512Y865059D01*
X991468Y864969D01*
X991428Y864878D01*
X991392Y864785D01*
X991359Y864691D01*
X991330Y864595D01*
X991305Y864499D01*
X991284Y864402D01*
X991266Y864303D01*
X991253Y864205D01*
X991243Y864105D01*
X991237Y864006D01*
X991235Y863906D01*
X991235Y862636D01*
X1002666Y875347D02*
X1002664Y875451D01*
X1002658Y875556D01*
X1002649Y875660D01*
X1002636Y875763D01*
X1002618Y875866D01*
X1002598Y875968D01*
X1002573Y876070D01*
X1002545Y876170D01*
X1002513Y876270D01*
X1002477Y876368D01*
X1002438Y876465D01*
X1002396Y876560D01*
X1002350Y876654D01*
X1002300Y876746D01*
X1002248Y876836D01*
X1002192Y876924D01*
X1002132Y877010D01*
X1002070Y877094D01*
X1002005Y877175D01*
X1001937Y877254D01*
X1001865Y877331D01*
X1001792Y877404D01*
X1001715Y877476D01*
X1001636Y877544D01*
X1001555Y877609D01*
X1001471Y877671D01*
X1001385Y877731D01*
X1001297Y877787D01*
X1001207Y877839D01*
X1001115Y877889D01*
X1001021Y877935D01*
X1000926Y877977D01*
X1000829Y878016D01*
X1000731Y878052D01*
X1000631Y878084D01*
X1000531Y878112D01*
X1000429Y878137D01*
X1000327Y878157D01*
X1000224Y878175D01*
X1000121Y878188D01*
X1000017Y878197D01*
X999912Y878203D01*
X999808Y878205D01*
X1002665Y875347D02*
X1002663Y875229D01*
X1002657Y875110D01*
X1002648Y874992D01*
X1002635Y874875D01*
X1002617Y874758D01*
X1002597Y874641D01*
X1002572Y874525D01*
X1002544Y874410D01*
X1002511Y874297D01*
X1002476Y874184D01*
X1002436Y874072D01*
X1002394Y873962D01*
X1002347Y873853D01*
X1002297Y873745D01*
X1002244Y873640D01*
X1002187Y873536D01*
X1002127Y873434D01*
X1002064Y873334D01*
X1001997Y873236D01*
X1001928Y873140D01*
X1001855Y873047D01*
X1001779Y872956D01*
X1001701Y872867D01*
X1001619Y872781D01*
X1001535Y872698D01*
X1001449Y872617D01*
X1001359Y872540D01*
X1001268Y872465D01*
X1001174Y872393D01*
X1001077Y872324D01*
X1000979Y872259D01*
X1000878Y872196D01*
X1000775Y872137D01*
X1000671Y872081D01*
X1000565Y872029D01*
X1000457Y871980D01*
X1000348Y871935D01*
X1000237Y871893D01*
X1000125Y871855D01*
X997586Y877253D02*
X997661Y877329D01*
X997740Y877404D01*
X997821Y877475D01*
X997905Y877544D01*
X997991Y877609D01*
X998079Y877671D01*
X998169Y877731D01*
X998261Y877787D01*
X998356Y877840D01*
X998452Y877889D01*
X998550Y877935D01*
X998649Y877978D01*
X998750Y878017D01*
X998852Y878052D01*
X998955Y878084D01*
X999059Y878112D01*
X999164Y878137D01*
X999271Y878158D01*
X999377Y878175D01*
X999484Y878188D01*
X999592Y878197D01*
X999700Y878203D01*
X999808Y878205D01*
X997585Y877252D02*
X991235Y871855D01*
X991235Y878205D01*
M02*
