G04 EAGLE Gerber RS-274X export*
G75*
%MOMM*%
%FSLAX34Y34*%
%LPD*%
%INSoldermask Top*%
%IPPOS*%
%AMOC8*
5,1,8,0,0,1.08239X$1,22.5*%
G01*
%ADD10R,1.854200X5.918200*%
%ADD11C,1.524000*%
%ADD12C,2.108200*%
%ADD13C,1.625600*%
%ADD14C,1.727200*%
%ADD15P,1.649562X8X292.500000*%
%ADD16P,1.649562X8X112.500000*%
%ADD17P,1.649562X8X202.500000*%
%ADD18P,1.951982X8X22.500000*%
%ADD19C,1.803400*%
%ADD20C,4.165600*%
%ADD21P,1.869504X8X202.500000*%
%ADD22R,0.603200X3.703200*%
%ADD23R,2.850000X5.050000*%
%ADD24C,1.903200*%
%ADD25C,2.403200*%
%ADD26P,1.869504X8X22.500000*%
%ADD27R,3.200400X4.699000*%
%ADD28R,1.727200X1.727200*%
%ADD29R,1.803400X1.371600*%
%ADD30R,1.828800X0.152400*%


D10*
X-15875Y38100D03*
X-47625Y38100D03*
X-79375Y38100D03*
X-111125Y38100D03*
X-142875Y38100D03*
X-174625Y38100D03*
X-206375Y38100D03*
X-238125Y38100D03*
X-269875Y38100D03*
X-301625Y38100D03*
X-333375Y38100D03*
X-365125Y38100D03*
X-396875Y38100D03*
X-428625Y38100D03*
X-460375Y38100D03*
X-492125Y38100D03*
X-523875Y38100D03*
X-555625Y38100D03*
X-587375Y38100D03*
X-619125Y38100D03*
X-650875Y38100D03*
X-682625Y38100D03*
X-714375Y38100D03*
X-746125Y38100D03*
X-777875Y38100D03*
X777875Y38100D03*
X746125Y38100D03*
X714375Y38100D03*
X682625Y38100D03*
X650875Y38100D03*
X619125Y38100D03*
X587375Y38100D03*
X555625Y38100D03*
X523875Y38100D03*
X492125Y38100D03*
X460375Y38100D03*
X428625Y38100D03*
X396875Y38100D03*
X365125Y38100D03*
X333375Y38100D03*
X301625Y38100D03*
X269875Y38100D03*
X238125Y38100D03*
X206375Y38100D03*
X174625Y38100D03*
X142875Y38100D03*
X111125Y38100D03*
X79375Y38100D03*
X47625Y38100D03*
X15875Y38100D03*
D11*
X-571500Y158496D02*
X-571500Y171704D01*
X-546100Y171704D02*
X-546100Y158496D01*
X-419100Y158496D02*
X-419100Y171704D01*
X-393700Y171704D02*
X-393700Y158496D01*
X-520700Y158496D02*
X-520700Y171704D01*
X-495300Y171704D02*
X-495300Y158496D01*
X-444500Y158496D02*
X-444500Y171704D01*
X-469900Y171704D02*
X-469900Y158496D01*
X-368300Y158496D02*
X-368300Y171704D01*
X-342900Y171704D02*
X-342900Y158496D01*
X-342900Y234696D02*
X-342900Y247904D01*
X-368300Y247904D02*
X-368300Y234696D01*
X-393700Y234696D02*
X-393700Y247904D01*
X-419100Y247904D02*
X-419100Y234696D01*
X-444500Y234696D02*
X-444500Y247904D01*
X-469900Y247904D02*
X-469900Y234696D01*
X-495300Y234696D02*
X-495300Y247904D01*
X-520700Y247904D02*
X-520700Y234696D01*
X-546100Y234696D02*
X-546100Y247904D01*
X-571500Y247904D02*
X-571500Y234696D01*
X-266700Y171704D02*
X-266700Y158496D01*
X-241300Y158496D02*
X-241300Y171704D01*
X-114300Y171704D02*
X-114300Y158496D01*
X-88900Y158496D02*
X-88900Y171704D01*
X-215900Y171704D02*
X-215900Y158496D01*
X-190500Y158496D02*
X-190500Y171704D01*
X-139700Y171704D02*
X-139700Y158496D01*
X-165100Y158496D02*
X-165100Y171704D01*
X-63500Y171704D02*
X-63500Y158496D01*
X-38100Y158496D02*
X-38100Y171704D01*
X-38100Y234696D02*
X-38100Y247904D01*
X-63500Y247904D02*
X-63500Y234696D01*
X-88900Y234696D02*
X-88900Y247904D01*
X-114300Y247904D02*
X-114300Y234696D01*
X-139700Y234696D02*
X-139700Y247904D01*
X-165100Y247904D02*
X-165100Y234696D01*
X-190500Y234696D02*
X-190500Y247904D01*
X-215900Y247904D02*
X-215900Y234696D01*
X-241300Y234696D02*
X-241300Y247904D01*
X-266700Y247904D02*
X-266700Y234696D01*
X38100Y171704D02*
X38100Y158496D01*
X63500Y158496D02*
X63500Y171704D01*
X190500Y171704D02*
X190500Y158496D01*
X215900Y158496D02*
X215900Y171704D01*
X88900Y171704D02*
X88900Y158496D01*
X114300Y158496D02*
X114300Y171704D01*
X165100Y171704D02*
X165100Y158496D01*
X139700Y158496D02*
X139700Y171704D01*
X241300Y171704D02*
X241300Y158496D01*
X266700Y158496D02*
X266700Y171704D01*
X266700Y234696D02*
X266700Y247904D01*
X241300Y247904D02*
X241300Y234696D01*
X215900Y234696D02*
X215900Y247904D01*
X190500Y247904D02*
X190500Y234696D01*
X165100Y234696D02*
X165100Y247904D01*
X139700Y247904D02*
X139700Y234696D01*
X114300Y234696D02*
X114300Y247904D01*
X88900Y247904D02*
X88900Y234696D01*
X63500Y234696D02*
X63500Y247904D01*
X38100Y247904D02*
X38100Y234696D01*
X342900Y171704D02*
X342900Y158496D01*
X368300Y158496D02*
X368300Y171704D01*
X495300Y171704D02*
X495300Y158496D01*
X520700Y158496D02*
X520700Y171704D01*
X393700Y171704D02*
X393700Y158496D01*
X419100Y158496D02*
X419100Y171704D01*
X469900Y171704D02*
X469900Y158496D01*
X444500Y158496D02*
X444500Y171704D01*
X546100Y171704D02*
X546100Y158496D01*
X571500Y158496D02*
X571500Y171704D01*
X571500Y234696D02*
X571500Y247904D01*
X546100Y247904D02*
X546100Y234696D01*
X520700Y234696D02*
X520700Y247904D01*
X495300Y247904D02*
X495300Y234696D01*
X469900Y234696D02*
X469900Y247904D01*
X444500Y247904D02*
X444500Y234696D01*
X419100Y234696D02*
X419100Y247904D01*
X393700Y247904D02*
X393700Y234696D01*
X368300Y234696D02*
X368300Y247904D01*
X342900Y247904D02*
X342900Y234696D01*
X292100Y310896D02*
X292100Y324104D01*
X317500Y324104D02*
X317500Y310896D01*
X444500Y310896D02*
X444500Y324104D01*
X469900Y324104D02*
X469900Y310896D01*
X342900Y310896D02*
X342900Y324104D01*
X368300Y324104D02*
X368300Y310896D01*
X419100Y310896D02*
X419100Y324104D01*
X393700Y324104D02*
X393700Y310896D01*
X469900Y387096D02*
X469900Y400304D01*
X444500Y400304D02*
X444500Y387096D01*
X419100Y387096D02*
X419100Y400304D01*
X393700Y400304D02*
X393700Y387096D01*
X368300Y387096D02*
X368300Y400304D01*
X342900Y400304D02*
X342900Y387096D01*
X317500Y387096D02*
X317500Y400304D01*
X292100Y400304D02*
X292100Y387096D01*
X292100Y463296D02*
X292100Y476504D01*
X317500Y476504D02*
X317500Y463296D01*
X444500Y463296D02*
X444500Y476504D01*
X469900Y476504D02*
X469900Y463296D01*
X342900Y463296D02*
X342900Y476504D01*
X368300Y476504D02*
X368300Y463296D01*
X419100Y463296D02*
X419100Y476504D01*
X393700Y476504D02*
X393700Y463296D01*
X469900Y539496D02*
X469900Y552704D01*
X444500Y552704D02*
X444500Y539496D01*
X419100Y539496D02*
X419100Y552704D01*
X393700Y552704D02*
X393700Y539496D01*
X368300Y539496D02*
X368300Y552704D01*
X342900Y552704D02*
X342900Y539496D01*
X317500Y539496D02*
X317500Y552704D01*
X292100Y552704D02*
X292100Y539496D01*
X292100Y615696D02*
X292100Y628904D01*
X317500Y628904D02*
X317500Y615696D01*
X342900Y615696D02*
X342900Y628904D01*
X368300Y628904D02*
X368300Y615696D01*
X393700Y615696D02*
X393700Y628904D01*
X419100Y628904D02*
X419100Y615696D01*
X444500Y615696D02*
X444500Y628904D01*
X469900Y628904D02*
X469900Y615696D01*
X495300Y615696D02*
X495300Y628904D01*
X520700Y628904D02*
X520700Y615696D01*
X546100Y615696D02*
X546100Y628904D01*
X571500Y628904D02*
X571500Y615696D01*
X571500Y691896D02*
X571500Y705104D01*
X546100Y705104D02*
X546100Y691896D01*
X520700Y691896D02*
X520700Y705104D01*
X495300Y705104D02*
X495300Y691896D01*
X469900Y691896D02*
X469900Y705104D01*
X444500Y705104D02*
X444500Y691896D01*
X419100Y691896D02*
X419100Y705104D01*
X393700Y705104D02*
X393700Y691896D01*
X368300Y691896D02*
X368300Y705104D01*
X342900Y705104D02*
X342900Y691896D01*
X317500Y691896D02*
X317500Y705104D01*
X292100Y705104D02*
X292100Y691896D01*
X1320800Y362204D02*
X1320800Y348996D01*
X1346200Y348996D02*
X1346200Y362204D01*
X1473200Y362204D02*
X1473200Y348996D01*
X1473200Y425196D02*
X1473200Y438404D01*
X1371600Y362204D02*
X1371600Y348996D01*
X1397000Y348996D02*
X1397000Y362204D01*
X1447800Y362204D02*
X1447800Y348996D01*
X1422400Y348996D02*
X1422400Y362204D01*
X1447800Y425196D02*
X1447800Y438404D01*
X1422400Y438404D02*
X1422400Y425196D01*
X1397000Y425196D02*
X1397000Y438404D01*
X1371600Y438404D02*
X1371600Y425196D01*
X1346200Y425196D02*
X1346200Y438404D01*
X1320800Y438404D02*
X1320800Y425196D01*
X1320800Y526796D02*
X1320800Y540004D01*
X1346200Y540004D02*
X1346200Y526796D01*
X1473200Y526796D02*
X1473200Y540004D01*
X1498600Y540004D02*
X1498600Y526796D01*
X1371600Y526796D02*
X1371600Y540004D01*
X1397000Y540004D02*
X1397000Y526796D01*
X1447800Y526796D02*
X1447800Y540004D01*
X1422400Y540004D02*
X1422400Y526796D01*
X1498600Y602996D02*
X1498600Y616204D01*
X1473200Y616204D02*
X1473200Y602996D01*
X1447800Y602996D02*
X1447800Y616204D01*
X1422400Y616204D02*
X1422400Y602996D01*
X1397000Y602996D02*
X1397000Y616204D01*
X1371600Y616204D02*
X1371600Y602996D01*
X1346200Y602996D02*
X1346200Y616204D01*
X1320800Y616204D02*
X1320800Y602996D01*
X1295400Y489204D02*
X1295400Y475996D01*
X1320800Y475996D02*
X1320800Y489204D01*
X1346200Y489204D02*
X1346200Y475996D01*
X1371600Y475996D02*
X1371600Y489204D01*
X1397000Y489204D02*
X1397000Y475996D01*
X1422400Y475996D02*
X1422400Y489204D01*
X1447800Y489204D02*
X1447800Y475996D01*
X1473200Y475996D02*
X1473200Y489204D01*
X1498600Y489204D02*
X1498600Y475996D01*
X1562100Y362204D02*
X1562100Y348996D01*
X1587500Y348996D02*
X1587500Y362204D01*
X1714500Y362204D02*
X1714500Y348996D01*
X1714500Y425196D02*
X1714500Y438404D01*
X1612900Y362204D02*
X1612900Y348996D01*
X1638300Y348996D02*
X1638300Y362204D01*
X1689100Y362204D02*
X1689100Y348996D01*
X1663700Y348996D02*
X1663700Y362204D01*
X1689100Y425196D02*
X1689100Y438404D01*
X1663700Y438404D02*
X1663700Y425196D01*
X1638300Y425196D02*
X1638300Y438404D01*
X1612900Y438404D02*
X1612900Y425196D01*
X1587500Y425196D02*
X1587500Y438404D01*
X1562100Y438404D02*
X1562100Y425196D01*
X1562100Y526796D02*
X1562100Y540004D01*
X1587500Y540004D02*
X1587500Y526796D01*
X1714500Y526796D02*
X1714500Y540004D01*
X1739900Y540004D02*
X1739900Y526796D01*
X1612900Y526796D02*
X1612900Y540004D01*
X1638300Y540004D02*
X1638300Y526796D01*
X1689100Y526796D02*
X1689100Y540004D01*
X1663700Y540004D02*
X1663700Y526796D01*
X1739900Y602996D02*
X1739900Y616204D01*
X1714500Y616204D02*
X1714500Y602996D01*
X1689100Y602996D02*
X1689100Y616204D01*
X1663700Y616204D02*
X1663700Y602996D01*
X1638300Y602996D02*
X1638300Y616204D01*
X1612900Y616204D02*
X1612900Y602996D01*
X1587500Y602996D02*
X1587500Y616204D01*
X1562100Y616204D02*
X1562100Y602996D01*
X1536700Y489204D02*
X1536700Y475996D01*
X1562100Y475996D02*
X1562100Y489204D01*
X1587500Y489204D02*
X1587500Y475996D01*
X1612900Y475996D02*
X1612900Y489204D01*
X1638300Y489204D02*
X1638300Y475996D01*
X1663700Y475996D02*
X1663700Y489204D01*
X1689100Y489204D02*
X1689100Y475996D01*
X1714500Y475996D02*
X1714500Y489204D01*
X1739900Y489204D02*
X1739900Y475996D01*
X1320800Y704596D02*
X1320800Y717804D01*
X1346200Y717804D02*
X1346200Y704596D01*
X1473200Y704596D02*
X1473200Y717804D01*
X1473200Y780796D02*
X1473200Y794004D01*
X1371600Y717804D02*
X1371600Y704596D01*
X1397000Y704596D02*
X1397000Y717804D01*
X1447800Y717804D02*
X1447800Y704596D01*
X1422400Y704596D02*
X1422400Y717804D01*
X1447800Y780796D02*
X1447800Y794004D01*
X1422400Y794004D02*
X1422400Y780796D01*
X1397000Y780796D02*
X1397000Y794004D01*
X1371600Y794004D02*
X1371600Y780796D01*
X1346200Y780796D02*
X1346200Y794004D01*
X1320800Y794004D02*
X1320800Y780796D01*
X1320800Y882396D02*
X1320800Y895604D01*
X1346200Y895604D02*
X1346200Y882396D01*
X1473200Y882396D02*
X1473200Y895604D01*
X1498600Y895604D02*
X1498600Y882396D01*
X1371600Y882396D02*
X1371600Y895604D01*
X1397000Y895604D02*
X1397000Y882396D01*
X1447800Y882396D02*
X1447800Y895604D01*
X1422400Y895604D02*
X1422400Y882396D01*
X1498600Y958596D02*
X1498600Y971804D01*
X1473200Y971804D02*
X1473200Y958596D01*
X1447800Y958596D02*
X1447800Y971804D01*
X1422400Y971804D02*
X1422400Y958596D01*
X1397000Y958596D02*
X1397000Y971804D01*
X1371600Y971804D02*
X1371600Y958596D01*
X1346200Y958596D02*
X1346200Y971804D01*
X1320800Y971804D02*
X1320800Y958596D01*
X1295400Y844804D02*
X1295400Y831596D01*
X1320800Y831596D02*
X1320800Y844804D01*
X1346200Y844804D02*
X1346200Y831596D01*
X1371600Y831596D02*
X1371600Y844804D01*
X1397000Y844804D02*
X1397000Y831596D01*
X1422400Y831596D02*
X1422400Y844804D01*
X1447800Y844804D02*
X1447800Y831596D01*
X1473200Y831596D02*
X1473200Y844804D01*
X1498600Y844804D02*
X1498600Y831596D01*
X1562100Y717804D02*
X1562100Y704596D01*
X1587500Y704596D02*
X1587500Y717804D01*
X1714500Y717804D02*
X1714500Y704596D01*
X1714500Y780796D02*
X1714500Y794004D01*
X1612900Y717804D02*
X1612900Y704596D01*
X1638300Y704596D02*
X1638300Y717804D01*
X1689100Y717804D02*
X1689100Y704596D01*
X1663700Y704596D02*
X1663700Y717804D01*
X1689100Y780796D02*
X1689100Y794004D01*
X1663700Y794004D02*
X1663700Y780796D01*
X1638300Y780796D02*
X1638300Y794004D01*
X1612900Y794004D02*
X1612900Y780796D01*
X1587500Y780796D02*
X1587500Y794004D01*
X1562100Y794004D02*
X1562100Y780796D01*
X1562100Y882396D02*
X1562100Y895604D01*
X1587500Y895604D02*
X1587500Y882396D01*
X1714500Y882396D02*
X1714500Y895604D01*
X1739900Y895604D02*
X1739900Y882396D01*
X1612900Y882396D02*
X1612900Y895604D01*
X1638300Y895604D02*
X1638300Y882396D01*
X1689100Y882396D02*
X1689100Y895604D01*
X1663700Y895604D02*
X1663700Y882396D01*
X1739900Y958596D02*
X1739900Y971804D01*
X1714500Y971804D02*
X1714500Y958596D01*
X1689100Y958596D02*
X1689100Y971804D01*
X1663700Y971804D02*
X1663700Y958596D01*
X1638300Y958596D02*
X1638300Y971804D01*
X1612900Y971804D02*
X1612900Y958596D01*
X1587500Y958596D02*
X1587500Y971804D01*
X1562100Y971804D02*
X1562100Y958596D01*
X1536700Y844804D02*
X1536700Y831596D01*
X1562100Y831596D02*
X1562100Y844804D01*
X1587500Y844804D02*
X1587500Y831596D01*
X1612900Y831596D02*
X1612900Y844804D01*
X1638300Y844804D02*
X1638300Y831596D01*
X1663700Y831596D02*
X1663700Y844804D01*
X1689100Y844804D02*
X1689100Y831596D01*
X1714500Y831596D02*
X1714500Y844804D01*
X1739900Y844804D02*
X1739900Y831596D01*
D12*
X-825500Y762000D03*
X-825500Y736600D03*
X-825500Y711200D03*
X-825500Y685800D03*
X-825500Y660400D03*
X-825500Y635000D03*
X-825500Y609600D03*
X-825500Y584200D03*
X-825500Y558800D03*
X-825500Y533400D03*
X-825500Y508000D03*
X-825500Y482600D03*
X-825500Y457200D03*
X-825500Y431800D03*
X-825500Y406400D03*
X-825500Y381000D03*
X-673100Y381000D03*
X-673100Y406400D03*
X-673100Y431800D03*
X-673100Y457200D03*
X-673100Y508000D03*
X-673100Y533400D03*
X-673100Y558800D03*
X-673100Y584200D03*
X-673100Y609600D03*
X-673100Y635000D03*
X-673100Y660400D03*
X-673100Y685800D03*
X-673100Y711200D03*
X-673100Y736600D03*
X-673100Y762000D03*
X-673100Y482600D03*
D11*
X1104900Y1606296D02*
X1104900Y1619504D01*
X1130300Y1619504D02*
X1130300Y1606296D01*
X1155700Y1606296D02*
X1155700Y1619504D01*
X1181100Y1619504D02*
X1181100Y1606296D01*
X1181100Y1682496D02*
X1181100Y1695704D01*
X1155700Y1695704D02*
X1155700Y1682496D01*
X1130300Y1682496D02*
X1130300Y1695704D01*
X1104900Y1695704D02*
X1104900Y1682496D01*
X1079500Y1568704D02*
X1079500Y1555496D01*
X1104900Y1555496D02*
X1104900Y1568704D01*
X1130300Y1568704D02*
X1130300Y1555496D01*
X1155700Y1555496D02*
X1155700Y1568704D01*
X1181100Y1568704D02*
X1181100Y1555496D01*
D13*
X-310388Y838200D02*
X-324612Y838200D01*
X-324612Y863600D02*
X-310388Y863600D01*
X-310388Y889000D02*
X-324612Y889000D01*
D14*
X1104900Y1732280D02*
X1104900Y1747520D01*
X1130300Y1747520D02*
X1130300Y1732280D01*
X1155700Y1732280D02*
X1155700Y1747520D01*
X1181100Y1747520D02*
X1181100Y1732280D01*
X1206500Y1732280D02*
X1206500Y1747520D01*
D12*
X-571500Y762000D03*
X-571500Y736600D03*
X-571500Y711200D03*
X-571500Y685800D03*
X-571500Y660400D03*
X-571500Y635000D03*
X-571500Y609600D03*
X-571500Y584200D03*
X-571500Y558800D03*
X-571500Y533400D03*
X-571500Y508000D03*
X-571500Y482600D03*
X-571500Y457200D03*
X-571500Y431800D03*
X-571500Y406400D03*
X-571500Y381000D03*
X-419100Y381000D03*
X-419100Y406400D03*
X-419100Y431800D03*
X-419100Y457200D03*
X-419100Y508000D03*
X-419100Y533400D03*
X-419100Y558800D03*
X-419100Y584200D03*
X-419100Y609600D03*
X-419100Y635000D03*
X-419100Y660400D03*
X-419100Y685800D03*
X-419100Y711200D03*
X-419100Y736600D03*
X-419100Y762000D03*
X-419100Y482600D03*
D11*
X-298704Y774700D02*
X-285496Y774700D01*
X-285496Y749300D02*
X-298704Y749300D01*
X-298704Y723900D02*
X-285496Y723900D01*
X-285496Y698500D02*
X-298704Y698500D01*
X-298704Y673100D02*
X-285496Y673100D01*
X-285496Y647700D02*
X-298704Y647700D01*
X-298704Y622300D02*
X-285496Y622300D01*
X-285496Y596900D02*
X-298704Y596900D01*
X-298704Y571500D02*
X-285496Y571500D01*
X-285496Y546100D02*
X-298704Y546100D01*
X-298704Y520700D02*
X-285496Y520700D01*
X-285496Y495300D02*
X-298704Y495300D01*
X-298704Y469900D02*
X-285496Y469900D01*
X-285496Y444500D02*
X-298704Y444500D01*
X-146304Y444500D02*
X-133096Y444500D01*
X-133096Y469900D02*
X-146304Y469900D01*
X-146304Y495300D02*
X-133096Y495300D01*
X-133096Y520700D02*
X-146304Y520700D01*
X-146304Y546100D02*
X-133096Y546100D01*
X-133096Y571500D02*
X-146304Y571500D01*
X-146304Y596900D02*
X-133096Y596900D01*
X-133096Y622300D02*
X-146304Y622300D01*
X-146304Y647700D02*
X-133096Y647700D01*
X-133096Y673100D02*
X-146304Y673100D01*
X-146304Y698500D02*
X-133096Y698500D01*
X-133096Y723900D02*
X-146304Y723900D01*
X-146304Y749300D02*
X-133096Y749300D01*
X-133096Y774700D02*
X-146304Y774700D01*
X-32004Y774700D02*
X-18796Y774700D01*
X-18796Y749300D02*
X-32004Y749300D01*
X-32004Y723900D02*
X-18796Y723900D01*
X-18796Y698500D02*
X-32004Y698500D01*
X-32004Y673100D02*
X-18796Y673100D01*
X-18796Y647700D02*
X-32004Y647700D01*
X-32004Y622300D02*
X-18796Y622300D01*
X-18796Y596900D02*
X-32004Y596900D01*
X-32004Y571500D02*
X-18796Y571500D01*
X-18796Y546100D02*
X-32004Y546100D01*
X-32004Y520700D02*
X-18796Y520700D01*
X-18796Y495300D02*
X-32004Y495300D01*
X-32004Y469900D02*
X-18796Y469900D01*
X-18796Y444500D02*
X-32004Y444500D01*
X120396Y444500D02*
X133604Y444500D01*
X133604Y469900D02*
X120396Y469900D01*
X120396Y495300D02*
X133604Y495300D01*
X133604Y520700D02*
X120396Y520700D01*
X120396Y546100D02*
X133604Y546100D01*
X133604Y571500D02*
X120396Y571500D01*
X120396Y596900D02*
X133604Y596900D01*
X133604Y622300D02*
X120396Y622300D01*
X120396Y647700D02*
X133604Y647700D01*
X133604Y673100D02*
X120396Y673100D01*
X120396Y698500D02*
X133604Y698500D01*
X133604Y723900D02*
X120396Y723900D01*
X120396Y749300D02*
X133604Y749300D01*
X133604Y774700D02*
X120396Y774700D01*
X1231900Y197104D02*
X1231900Y183896D01*
X1257300Y183896D02*
X1257300Y197104D01*
X1282700Y197104D02*
X1282700Y183896D01*
X1308100Y183896D02*
X1308100Y197104D01*
X1333500Y197104D02*
X1333500Y183896D01*
X1358900Y183896D02*
X1358900Y197104D01*
X1384300Y197104D02*
X1384300Y183896D01*
X1409700Y183896D02*
X1409700Y197104D01*
X1435100Y197104D02*
X1435100Y183896D01*
X1460500Y183896D02*
X1460500Y197104D01*
X1460500Y260096D02*
X1460500Y273304D01*
X1435100Y273304D02*
X1435100Y260096D01*
X1409700Y260096D02*
X1409700Y273304D01*
X1384300Y273304D02*
X1384300Y260096D01*
X1358900Y260096D02*
X1358900Y273304D01*
X1333500Y273304D02*
X1333500Y260096D01*
X1308100Y260096D02*
X1308100Y273304D01*
X1282700Y273304D02*
X1282700Y260096D01*
X1257300Y260096D02*
X1257300Y273304D01*
X1231900Y273304D02*
X1231900Y260096D01*
X1524000Y197104D02*
X1524000Y183896D01*
X1549400Y183896D02*
X1549400Y197104D01*
X1574800Y197104D02*
X1574800Y183896D01*
X1600200Y183896D02*
X1600200Y197104D01*
X1625600Y197104D02*
X1625600Y183896D01*
X1651000Y183896D02*
X1651000Y197104D01*
X1676400Y197104D02*
X1676400Y183896D01*
X1701800Y183896D02*
X1701800Y197104D01*
X1727200Y197104D02*
X1727200Y183896D01*
X1752600Y183896D02*
X1752600Y197104D01*
X1752600Y260096D02*
X1752600Y273304D01*
X1727200Y273304D02*
X1727200Y260096D01*
X1701800Y260096D02*
X1701800Y273304D01*
X1676400Y273304D02*
X1676400Y260096D01*
X1651000Y260096D02*
X1651000Y273304D01*
X1625600Y273304D02*
X1625600Y260096D01*
X1600200Y260096D02*
X1600200Y273304D01*
X1574800Y273304D02*
X1574800Y260096D01*
X1549400Y260096D02*
X1549400Y273304D01*
X1524000Y273304D02*
X1524000Y260096D01*
X1206500Y146304D02*
X1206500Y133096D01*
X1231900Y133096D02*
X1231900Y146304D01*
X1257300Y146304D02*
X1257300Y133096D01*
X1282700Y133096D02*
X1282700Y146304D01*
X1308100Y146304D02*
X1308100Y133096D01*
X1333500Y133096D02*
X1333500Y146304D01*
X1358900Y146304D02*
X1358900Y133096D01*
X1384300Y133096D02*
X1384300Y146304D01*
X1409700Y146304D02*
X1409700Y133096D01*
X1460500Y133096D02*
X1460500Y146304D01*
X1485900Y146304D02*
X1485900Y133096D01*
X1511300Y133096D02*
X1511300Y146304D01*
X1536700Y146304D02*
X1536700Y133096D01*
X1562100Y133096D02*
X1562100Y146304D01*
X1587500Y146304D02*
X1587500Y133096D01*
X1612900Y133096D02*
X1612900Y146304D01*
X1638300Y146304D02*
X1638300Y133096D01*
X1663700Y133096D02*
X1663700Y146304D01*
X1295400Y1606296D02*
X1295400Y1619504D01*
X1320800Y1619504D02*
X1320800Y1606296D01*
X1346200Y1606296D02*
X1346200Y1619504D01*
X1371600Y1619504D02*
X1371600Y1606296D01*
X1371600Y1682496D02*
X1371600Y1695704D01*
X1346200Y1695704D02*
X1346200Y1682496D01*
X1320800Y1682496D02*
X1320800Y1695704D01*
X1295400Y1695704D02*
X1295400Y1682496D01*
X1270000Y1568704D02*
X1270000Y1555496D01*
X1295400Y1555496D02*
X1295400Y1568704D01*
X1320800Y1568704D02*
X1320800Y1555496D01*
X1346200Y1555496D02*
X1346200Y1568704D01*
X1371600Y1568704D02*
X1371600Y1555496D01*
D14*
X1295400Y1732280D02*
X1295400Y1747520D01*
X1320800Y1747520D02*
X1320800Y1732280D01*
X1346200Y1732280D02*
X1346200Y1747520D01*
X1371600Y1747520D02*
X1371600Y1732280D01*
X1397000Y1732280D02*
X1397000Y1747520D01*
D15*
X-596900Y241300D03*
X-596900Y215900D03*
X-292100Y241300D03*
X-292100Y215900D03*
X12700Y241300D03*
X12700Y215900D03*
X317500Y241300D03*
X317500Y215900D03*
X266700Y546100D03*
X266700Y520700D03*
X266700Y393700D03*
X266700Y368300D03*
X1295400Y787400D03*
X1295400Y762000D03*
X266700Y685800D03*
X266700Y660400D03*
X1295400Y431800D03*
X1295400Y406400D03*
X1536700Y787400D03*
X1536700Y762000D03*
D16*
X-673100Y914400D03*
X-673100Y939800D03*
D15*
X1536700Y431800D03*
X1536700Y406400D03*
D16*
X-381000Y914400D03*
X-381000Y939800D03*
D17*
X-139700Y800100D03*
X-165100Y800100D03*
X127000Y800100D03*
X101600Y800100D03*
D18*
X-762000Y203200D03*
D19*
X-787400Y203200D03*
D20*
X660400Y1638300D03*
X-304800Y1638300D03*
X990600Y1308100D03*
D21*
X-228600Y1117600D03*
X-254000Y1117600D03*
X-279400Y1117600D03*
X-304800Y1117600D03*
X-330200Y1117600D03*
X-355600Y1117600D03*
X-228600Y1092200D03*
X-254000Y1092200D03*
X-279400Y1092200D03*
X-304800Y1092200D03*
X-330200Y1092200D03*
X-355600Y1092200D03*
X-381000Y1117600D03*
X-381000Y1092200D03*
X-406400Y1117600D03*
X-431800Y1117600D03*
X-457200Y1117600D03*
X-482600Y1117600D03*
X-508000Y1117600D03*
X-533400Y1117600D03*
X-406400Y1092200D03*
X-431800Y1092200D03*
X-457200Y1092200D03*
X-482600Y1092200D03*
X-508000Y1092200D03*
X-533400Y1092200D03*
X-558800Y1117600D03*
X-558800Y1092200D03*
X-584200Y1117600D03*
X-609600Y1117600D03*
X-635000Y1117600D03*
X-660400Y1117600D03*
X-584200Y1092200D03*
X-609600Y1092200D03*
X-635000Y1092200D03*
X-660400Y1092200D03*
X736600Y1117600D03*
X711200Y1117600D03*
X685800Y1117600D03*
X660400Y1117600D03*
X635000Y1117600D03*
X609600Y1117600D03*
X736600Y1092200D03*
X711200Y1092200D03*
X685800Y1092200D03*
X660400Y1092200D03*
X635000Y1092200D03*
X609600Y1092200D03*
X584200Y1117600D03*
X584200Y1092200D03*
X558800Y1117600D03*
X533400Y1117600D03*
X508000Y1117600D03*
X482600Y1117600D03*
X457200Y1117600D03*
X431800Y1117600D03*
X558800Y1092200D03*
X533400Y1092200D03*
X508000Y1092200D03*
X482600Y1092200D03*
X457200Y1092200D03*
X431800Y1092200D03*
X406400Y1117600D03*
X406400Y1092200D03*
X381000Y1117600D03*
X355600Y1117600D03*
X330200Y1117600D03*
X304800Y1117600D03*
X381000Y1092200D03*
X355600Y1092200D03*
X330200Y1092200D03*
X304800Y1092200D03*
D11*
X660400Y628904D02*
X660400Y615696D01*
X685800Y615696D02*
X685800Y628904D01*
X711200Y628904D02*
X711200Y615696D01*
X736600Y615696D02*
X736600Y628904D01*
X762000Y628904D02*
X762000Y615696D01*
X787400Y615696D02*
X787400Y628904D01*
X812800Y628904D02*
X812800Y615696D01*
X838200Y615696D02*
X838200Y628904D01*
X863600Y628904D02*
X863600Y615696D01*
X889000Y615696D02*
X889000Y628904D01*
X914400Y628904D02*
X914400Y615696D01*
X939800Y615696D02*
X939800Y628904D01*
X939800Y691896D02*
X939800Y705104D01*
X914400Y705104D02*
X914400Y691896D01*
X889000Y691896D02*
X889000Y705104D01*
X863600Y705104D02*
X863600Y691896D01*
X838200Y691896D02*
X838200Y705104D01*
X812800Y705104D02*
X812800Y691896D01*
X787400Y691896D02*
X787400Y705104D01*
X762000Y705104D02*
X762000Y691896D01*
X736600Y691896D02*
X736600Y705104D01*
X711200Y705104D02*
X711200Y691896D01*
X685800Y691896D02*
X685800Y705104D01*
X660400Y705104D02*
X660400Y691896D01*
X457200Y933196D02*
X457200Y946404D01*
X558800Y946404D02*
X558800Y933196D01*
X457200Y983996D02*
X457200Y997204D01*
X558800Y997204D02*
X558800Y983996D01*
D22*
X257175Y1495900D03*
X244475Y1495900D03*
X231775Y1495900D03*
X219075Y1495900D03*
X206375Y1495900D03*
X193675Y1495900D03*
X180975Y1495900D03*
X168275Y1495900D03*
X155575Y1495900D03*
X142875Y1495900D03*
X130175Y1495900D03*
X117475Y1495900D03*
X104775Y1495900D03*
X92075Y1495900D03*
X79375Y1495900D03*
X66675Y1495900D03*
X53975Y1495900D03*
X41275Y1495900D03*
X28575Y1495900D03*
X15875Y1495900D03*
X3175Y1495900D03*
X-9525Y1495900D03*
X-22225Y1495900D03*
X-34925Y1495900D03*
X-47625Y1495900D03*
X250825Y1495900D03*
X238125Y1495900D03*
X225425Y1495900D03*
X212725Y1495900D03*
X200025Y1495900D03*
X187325Y1495900D03*
X174625Y1495900D03*
X161925Y1495900D03*
X149225Y1495900D03*
X136525Y1495900D03*
X123825Y1495900D03*
X111125Y1495900D03*
X98425Y1495900D03*
X85725Y1495900D03*
X73025Y1495900D03*
X60325Y1495900D03*
X47625Y1495900D03*
X34925Y1495900D03*
X22225Y1495900D03*
X9525Y1495900D03*
X-3175Y1495900D03*
X-15875Y1495900D03*
X-28575Y1495900D03*
X-41275Y1495900D03*
X-53975Y1495900D03*
D23*
X347600Y1599250D03*
X-144400Y1599500D03*
D24*
X302400Y1554000D03*
X-99200Y1554000D03*
D25*
X302400Y1524000D03*
X-99200Y1524000D03*
D17*
X50800Y1435100D03*
X-25400Y1435100D03*
X-571500Y1600200D03*
X-647700Y1600200D03*
D26*
X-850900Y1701800D03*
X-825500Y1701800D03*
X-800100Y1701800D03*
X-774700Y1701800D03*
X-749300Y1701800D03*
X-723900Y1701800D03*
X-850900Y1727200D03*
X-825500Y1727200D03*
X-800100Y1727200D03*
X-774700Y1727200D03*
X-749300Y1727200D03*
X-723900Y1727200D03*
X-698500Y1701800D03*
X-698500Y1727200D03*
X-673100Y1701800D03*
X-647700Y1701800D03*
X-622300Y1701800D03*
X-596900Y1701800D03*
X-571500Y1701800D03*
X-546100Y1701800D03*
X-673100Y1727200D03*
X-647700Y1727200D03*
X-622300Y1727200D03*
X-596900Y1727200D03*
X-571500Y1727200D03*
X-546100Y1727200D03*
X-520700Y1701800D03*
X-520700Y1727200D03*
X-495300Y1701800D03*
X-469900Y1701800D03*
X-444500Y1701800D03*
X-419100Y1701800D03*
X-393700Y1701800D03*
X-368300Y1701800D03*
X-495300Y1727200D03*
X-469900Y1727200D03*
X-444500Y1727200D03*
X-419100Y1727200D03*
X-393700Y1727200D03*
X-368300Y1727200D03*
D13*
X-279400Y1734312D02*
X-279400Y1720088D01*
X-254000Y1720088D02*
X-254000Y1734312D01*
D27*
X-139700Y1701800D03*
X342900Y1701800D03*
D11*
X787400Y844804D02*
X787400Y831596D01*
X812800Y831596D02*
X812800Y844804D01*
X939800Y844804D02*
X939800Y831596D01*
X939800Y907796D02*
X939800Y921004D01*
X838200Y844804D02*
X838200Y831596D01*
X863600Y831596D02*
X863600Y844804D01*
X914400Y844804D02*
X914400Y831596D01*
X889000Y831596D02*
X889000Y844804D01*
X914400Y907796D02*
X914400Y921004D01*
X889000Y921004D02*
X889000Y907796D01*
X863600Y907796D02*
X863600Y921004D01*
X838200Y921004D02*
X838200Y907796D01*
X812800Y907796D02*
X812800Y921004D01*
X787400Y921004D02*
X787400Y907796D01*
D17*
X-393700Y1600200D03*
X-469900Y1600200D03*
D15*
X762000Y914400D03*
X762000Y889000D03*
X635000Y698500D03*
X635000Y673100D03*
D28*
X1498600Y1092200D03*
X1498600Y1117600D03*
X1498600Y1143000D03*
X1498600Y1168400D03*
X1498600Y1193800D03*
X1498600Y1219200D03*
X1498600Y1244600D03*
X1498600Y1270000D03*
X1498600Y1295400D03*
X1498600Y1320800D03*
X1498600Y1346200D03*
X1498600Y1371600D03*
X1498600Y1397000D03*
X1498600Y1422400D03*
X1498600Y1447800D03*
X1498600Y1473200D03*
X1498600Y1498600D03*
X1498600Y1524000D03*
X1498600Y1549400D03*
X1498600Y1574800D03*
X1498600Y1600200D03*
X1498600Y1625600D03*
X1498600Y1651000D03*
X1498600Y1676400D03*
X1727200Y1092200D03*
X1727200Y1117600D03*
X1727200Y1143000D03*
X1727200Y1168400D03*
X1727200Y1193800D03*
X1727200Y1219200D03*
X1727200Y1244600D03*
X1727200Y1270000D03*
X1727200Y1295400D03*
X1727200Y1320800D03*
X1727200Y1346200D03*
X1727200Y1371600D03*
X1727200Y1397000D03*
X1727200Y1422400D03*
X1727200Y1447800D03*
X1727200Y1473200D03*
X1727200Y1498600D03*
X1727200Y1524000D03*
X1727200Y1549400D03*
X1727200Y1574800D03*
X1727200Y1600200D03*
X1727200Y1625600D03*
X1727200Y1651000D03*
X1727200Y1676400D03*
D11*
X1111504Y1028700D02*
X1098296Y1028700D01*
X1098296Y1003300D02*
X1111504Y1003300D01*
X1111504Y876300D02*
X1098296Y876300D01*
X1098296Y850900D02*
X1111504Y850900D01*
X1111504Y977900D02*
X1098296Y977900D01*
X1098296Y952500D02*
X1111504Y952500D01*
X1111504Y901700D02*
X1098296Y901700D01*
X1098296Y927100D02*
X1111504Y927100D01*
X1111504Y825500D02*
X1098296Y825500D01*
X1098296Y800100D02*
X1111504Y800100D01*
X1174496Y800100D02*
X1187704Y800100D01*
X1187704Y825500D02*
X1174496Y825500D01*
X1174496Y850900D02*
X1187704Y850900D01*
X1187704Y876300D02*
X1174496Y876300D01*
X1174496Y901700D02*
X1187704Y901700D01*
X1187704Y927100D02*
X1174496Y927100D01*
X1174496Y952500D02*
X1187704Y952500D01*
X1187704Y977900D02*
X1174496Y977900D01*
X1174496Y1003300D02*
X1187704Y1003300D01*
X1187704Y1028700D02*
X1174496Y1028700D01*
X1314196Y1346200D02*
X1327404Y1346200D01*
X1327404Y1320800D02*
X1314196Y1320800D01*
X1314196Y1193800D02*
X1327404Y1193800D01*
X1327404Y1168400D02*
X1314196Y1168400D01*
X1314196Y1295400D02*
X1327404Y1295400D01*
X1327404Y1270000D02*
X1314196Y1270000D01*
X1314196Y1219200D02*
X1327404Y1219200D01*
X1327404Y1244600D02*
X1314196Y1244600D01*
X1314196Y1143000D02*
X1327404Y1143000D01*
X1327404Y1117600D02*
X1314196Y1117600D01*
X1390396Y1117600D02*
X1403604Y1117600D01*
X1403604Y1143000D02*
X1390396Y1143000D01*
X1390396Y1168400D02*
X1403604Y1168400D01*
X1403604Y1193800D02*
X1390396Y1193800D01*
X1390396Y1219200D02*
X1403604Y1219200D01*
X1403604Y1244600D02*
X1390396Y1244600D01*
X1390396Y1270000D02*
X1403604Y1270000D01*
X1403604Y1295400D02*
X1390396Y1295400D01*
X1390396Y1320800D02*
X1403604Y1320800D01*
X1403604Y1346200D02*
X1390396Y1346200D01*
X1149604Y1346200D02*
X1136396Y1346200D01*
X1136396Y1320800D02*
X1149604Y1320800D01*
X1149604Y1193800D02*
X1136396Y1193800D01*
X1136396Y1168400D02*
X1149604Y1168400D01*
X1149604Y1295400D02*
X1136396Y1295400D01*
X1136396Y1270000D02*
X1149604Y1270000D01*
X1149604Y1219200D02*
X1136396Y1219200D01*
X1136396Y1244600D02*
X1149604Y1244600D01*
X1149604Y1143000D02*
X1136396Y1143000D01*
X1136396Y1117600D02*
X1149604Y1117600D01*
X1212596Y1117600D02*
X1225804Y1117600D01*
X1225804Y1143000D02*
X1212596Y1143000D01*
X1212596Y1168400D02*
X1225804Y1168400D01*
X1225804Y1193800D02*
X1212596Y1193800D01*
X1212596Y1219200D02*
X1225804Y1219200D01*
X1225804Y1244600D02*
X1212596Y1244600D01*
X1212596Y1270000D02*
X1225804Y1270000D01*
X1225804Y1295400D02*
X1212596Y1295400D01*
X1212596Y1320800D02*
X1225804Y1320800D01*
X1225804Y1346200D02*
X1212596Y1346200D01*
X1295400Y1428496D02*
X1295400Y1441704D01*
X1320800Y1441704D02*
X1320800Y1428496D01*
X1346200Y1428496D02*
X1346200Y1441704D01*
X1371600Y1441704D02*
X1371600Y1428496D01*
X1371600Y1504696D02*
X1371600Y1517904D01*
X1346200Y1517904D02*
X1346200Y1504696D01*
X1320800Y1504696D02*
X1320800Y1517904D01*
X1295400Y1517904D02*
X1295400Y1504696D01*
D13*
X1130300Y731012D02*
X1130300Y716788D01*
X1155700Y716788D02*
X1155700Y731012D01*
D17*
X1219200Y1371600D03*
X1193800Y1371600D03*
X1397000Y1371600D03*
X1371600Y1371600D03*
X1181100Y1054100D03*
X1155700Y1054100D03*
D11*
X1130300Y1428496D02*
X1130300Y1441704D01*
X1155700Y1441704D02*
X1155700Y1428496D01*
X1181100Y1428496D02*
X1181100Y1441704D01*
X1206500Y1441704D02*
X1206500Y1428496D01*
X1206500Y1504696D02*
X1206500Y1517904D01*
X1181100Y1517904D02*
X1181100Y1504696D01*
X1155700Y1504696D02*
X1155700Y1517904D01*
X1130300Y1517904D02*
X1130300Y1504696D01*
D15*
X1104900Y1511300D03*
X1104900Y1485900D03*
D29*
X-63500Y1430020D03*
X-63500Y1414780D03*
D30*
X-63500Y1422400D03*
D29*
X-101600Y1414780D03*
X-101600Y1430020D03*
D30*
X-101600Y1422400D03*
D11*
X800100Y171704D02*
X800100Y158496D01*
X825500Y158496D02*
X825500Y171704D01*
X952500Y171704D02*
X952500Y158496D01*
X977900Y158496D02*
X977900Y171704D01*
X850900Y171704D02*
X850900Y158496D01*
X876300Y158496D02*
X876300Y171704D01*
X927100Y171704D02*
X927100Y158496D01*
X901700Y158496D02*
X901700Y171704D01*
X1003300Y171704D02*
X1003300Y158496D01*
X1028700Y158496D02*
X1028700Y171704D01*
X1028700Y234696D02*
X1028700Y247904D01*
X1003300Y247904D02*
X1003300Y234696D01*
X977900Y234696D02*
X977900Y247904D01*
X952500Y247904D02*
X952500Y234696D01*
X927100Y234696D02*
X927100Y247904D01*
X901700Y247904D02*
X901700Y234696D01*
X876300Y234696D02*
X876300Y247904D01*
X850900Y247904D02*
X850900Y234696D01*
X825500Y234696D02*
X825500Y247904D01*
X800100Y247904D02*
X800100Y234696D01*
D13*
X553212Y342900D02*
X538988Y342900D01*
X538988Y368300D02*
X553212Y368300D01*
X553212Y393700D02*
X538988Y393700D01*
M02*
