M48
;GenerationSoftware,Autodesk,EAGLE,9.6.1*%
;CreationDate,2024-07-30T01:34:58Z*%
FMAT,2
ICI,OFF
METRIC,TZ,000.000
T5C0.610
T4C0.813
T3C0.914
T2C1.016
T1C1.270
%
G90
M71
T1
X-67310Y50800
X-67310Y78740
X-67310Y76200
X-67310Y73660
X-67310Y71120
X-67310Y68580
X-67310Y66040
X-67310Y63500
X-67310Y60960
X-67310Y58420
X-67310Y55880
X-67310Y53340
X-67310Y48260
X-67310Y45720
X-67310Y43180
X-67310Y40640
X-82550Y40640
X-82550Y43180
X-82550Y45720
X-82550Y48260
X-82550Y50800
X-82550Y53340
X-82550Y55880
X-82550Y58420
X-82550Y60960
X-82550Y63500
X-82550Y66040
X-82550Y68580
X-82550Y71120
X-82550Y73660
X-82550Y76200
X-82550Y78740
X-55880Y68580
X-55880Y71120
X-55880Y73660
X-55880Y76200
X-55880Y78740
X-40640Y50800
X-40640Y78740
X-40640Y76200
X-40640Y73660
X-40640Y71120
X-40640Y68580
X-40640Y66040
X-40640Y63500
X-40640Y60960
X-40640Y58420
X-40640Y55880
X-40640Y53340
X-40640Y48260
X-40640Y45720
X-40640Y43180
X-40640Y40640
X-55880Y40640
X-55880Y43180
X-55880Y45720
X-55880Y48260
X-55880Y50800
X-55880Y53340
X-55880Y55880
X-55880Y58420
X-55880Y60960
X-55880Y63500
X-55880Y66040
T2
X-15240Y113030
X-17780Y113030
X-20320Y113030
X-22860Y113030
X-25400Y113030
X-31750Y113030
X-34290Y113030
X-36830Y113030
X-39370Y113030
X-41910Y113030
T3
X-31750Y86360
X-31750Y83820
X-31750Y81280
T4
X27940Y107950
X25400Y107950
X22860Y107950
X20320Y107950
X17780Y107950
X15240Y95250
X17780Y95250
X20320Y95250
X22860Y95250
X25400Y95250
X27940Y95250
X30480Y95250
X33020Y95250
X35560Y95250
X-41910Y100330
X-39370Y100330
X-36830Y100330
X-34290Y100330
X-34290Y107950
X-36830Y107950
X-39370Y107950
X-41910Y107950
X-44450Y95250
X-41910Y95250
X-39370Y95250
X-36830Y95250
X-34290Y95250
X-29210Y74930
X-29210Y72390
X-29210Y69850
X-29210Y67310
X-29210Y64770
X-29210Y62230
X-29210Y59690
X-29210Y57150
X-29210Y54610
X-29210Y52070
X-29210Y49530
X-29210Y46990
X-29210Y44450
X-29210Y41910
X-13970Y41910
X-13970Y44450
X-13970Y46990
X-13970Y49530
X-13970Y52070
X-13970Y54610
X-13970Y57150
X-13970Y59690
X-13970Y62230
X-13970Y64770
X-13970Y67310
X-13970Y69850
X-13970Y72390
X-13970Y74930
X-2540Y74930
X-2540Y72390
X-2540Y69850
X-2540Y67310
X-2540Y64770
X-2540Y62230
X-2540Y59690
X-2540Y57150
X-2540Y54610
X-2540Y52070
X-2540Y49530
X-2540Y46990
X-2540Y44450
X-2540Y41910
X12700Y41910
X12700Y44450
X12700Y46990
X12700Y49530
X12700Y52070
X12700Y54610
X12700Y57150
X12700Y59690
X12700Y62230
X12700Y64770
X12700Y67310
X12700Y69850
X12700Y72390
X12700Y74930
X78740Y73660
X78740Y71120
X78740Y68580
X78740Y66040
X78740Y63500
X78740Y60960
X78740Y58420
X78740Y53340
X78740Y50800
X86360Y50800
X86360Y53340
X86360Y55880
X86360Y58420
X86360Y60960
X86360Y63500
X86360Y66040
X86360Y68580
X59690Y90170
X86360Y71120
X86360Y73660
X78740Y44450
X78740Y41910
X78740Y39370
X78740Y36830
X78740Y34290
X78740Y31750
X78740Y29210
X78740Y26670
X78740Y24130
X78740Y21590
X86360Y21590
X86360Y24130
X86360Y26670
X86360Y29210
X86360Y31750
X86360Y34290
X86360Y36830
X86360Y39370
X86360Y41910
X86360Y44450
X73660Y76200
X73660Y73660
X73660Y71120
X73660Y68580
X73660Y66040
X73660Y63500
X73660Y60960
X73660Y58420
X73660Y55880
X73660Y50800
X73660Y48260
X73660Y45720
X73660Y43180
X73660Y40640
X73660Y38100
X73660Y35560
X73660Y33020
X73660Y30480
X-25400Y100330
X-22860Y100330
X-20320Y100330
X-17780Y100330
X-17780Y107950
X-20320Y107950
X-22860Y107950
X-25400Y107950
X-27940Y95250
X-25400Y95250
X-22860Y95250
X-20320Y95250
X-17780Y95250
X-59690Y21590
X-59690Y19050
X-29210Y21590
X-29210Y19050
X1270Y21590
X1270Y19050
X31750Y21590
X31750Y19050
X26670Y49530
X26670Y46990
X26670Y34290
X26670Y31750
X-8890Y90170
X-8890Y87630
X26670Y63500
X26670Y60960
X41910Y90170
X41910Y87630
X15240Y90170
X15240Y87630
X-77470Y92710
X-74930Y92710
X66040Y90170
X66040Y87630
X-50800Y92710
X-48260Y92710
X-13970Y77470
X-16510Y77470
X12700Y77470
X10160Y77470
X-76200Y20320
X-78740Y20320
X-57150Y13970
X-54610Y13970
X-41910Y13970
X-39370Y13970
X-52070Y13970
X-49530Y13970
X-44450Y13970
X-46990Y13970
X-36830Y13970
X-34290Y13970
X-34290Y21590
X-36830Y21590
X-39370Y21590
X-41910Y21590
X-44450Y21590
X-46990Y21590
X-49530Y21590
X-52070Y21590
X-54610Y21590
X-57150Y21590
X-26670Y13970
X-24130Y13970
X-11430Y13970
X-8890Y13970
X-21590Y13970
X-19050Y13970
X-13970Y13970
X-16510Y13970
X-6350Y13970
X-3810Y13970
X-3810Y21590
X-6350Y21590
X-8890Y21590
X-11430Y21590
X-13970Y21590
X-16510Y21590
X-19050Y21590
X-21590Y21590
X-24130Y21590
X-26670Y21590
X3810Y13970
X6350Y13970
X19050Y13970
X21590Y13970
X8890Y13970
X11430Y13970
X16510Y13970
X13970Y13970
X24130Y13970
X26670Y13970
X26670Y21590
X24130Y21590
X21590Y21590
X19050Y21590
X16510Y21590
X13970Y21590
X11430Y21590
X8890Y21590
X6350Y21590
X3810Y21590
X34290Y13970
X36830Y13970
X49530Y13970
X52070Y13970
X39370Y13970
X41910Y13970
X46990Y13970
X44450Y13970
X54610Y13970
X57150Y13970
X57150Y21590
X54610Y21590
X52070Y21590
X49530Y21590
X46990Y21590
X44450Y21590
X41910Y21590
X39370Y21590
X36830Y21590
X34290Y21590
X29210Y26670
X31750Y26670
X44450Y26670
X46990Y26670
X34290Y26670
X36830Y26670
X41910Y26670
X39370Y26670
X46990Y34290
X44450Y34290
X41910Y34290
X39370Y34290
X36830Y34290
X34290Y34290
X31750Y34290
X29210Y34290
X29210Y41910
X31750Y41910
X44450Y41910
X46990Y41910
X34290Y41910
X36830Y41910
X41910Y41910
X39370Y41910
X46990Y49530
X44450Y49530
X41910Y49530
X39370Y49530
X36830Y49530
X34290Y49530
X31750Y49530
X29210Y49530
X29210Y55880
X31750Y55880
X34290Y55880
X36830Y55880
X39370Y55880
X41910Y55880
X44450Y55880
X46990Y55880
X49530Y55880
X52070Y55880
X54610Y55880
X57150Y55880
X57150Y63500
X54610Y63500
X52070Y63500
X49530Y63500
X46990Y63500
X44450Y63500
X41910Y63500
X39370Y63500
X36830Y63500
X34290Y63500
X31750Y63500
X29210Y63500
X44450Y82550
X46990Y82550
X59690Y82550
X78740Y55880
X49530Y82550
X52070Y82550
X57150Y82550
X54610Y82550
X57150Y90170
X54610Y90170
X52070Y90170
X49530Y90170
X46990Y90170
X44450Y90170
X44450Y100330
X46990Y100330
X59690Y100330
X62230Y100330
X49530Y100330
X52070Y100330
X57150Y100330
X54610Y100330
X62230Y107950
X59690Y107950
X57150Y107950
X54610Y107950
X52070Y107950
X49530Y107950
X46990Y107950
X44450Y107950
X41910Y95250
X44450Y95250
X46990Y95250
X49530Y95250
X52070Y95250
X54610Y95250
X57150Y95250
X59690Y95250
X62230Y95250
X68580Y82550
X71120Y82550
X83820Y82550
X83820Y90170
X73660Y82550
X76200Y82550
X81280Y82550
X78740Y82550
X81280Y90170
X78740Y90170
X76200Y90170
X73660Y90170
X71120Y90170
X68580Y90170
X68580Y100330
X71120Y100330
X83820Y100330
X86360Y100330
X73660Y100330
X76200Y100330
X81280Y100330
X78740Y100330
X86360Y107950
X83820Y107950
X81280Y107950
X78740Y107950
X76200Y107950
X73660Y107950
X71120Y107950
X68580Y107950
X66040Y95250
X68580Y95250
X71120Y95250
X73660Y95250
X76200Y95250
X78740Y95250
X81280Y95250
X83820Y95250
X86360Y95250
X-6350Y82550
X-3810Y82550
X8890Y82550
X8890Y90170
X-1270Y82550
X1270Y82550
X6350Y82550
X3810Y82550
X6350Y90170
X3810Y90170
X1270Y90170
X-1270Y90170
X-3810Y90170
X-6350Y90170
X-6350Y100330
X-3810Y100330
X8890Y100330
X11430Y100330
X-1270Y100330
X1270Y100330
X6350Y100330
X3810Y100330
X11430Y107950
X8890Y107950
X6350Y107950
X3810Y107950
X1270Y107950
X-1270Y107950
X-3810Y107950
X-6350Y107950
X-8890Y95250
X-6350Y95250
X-3810Y95250
X-1270Y95250
X1270Y95250
X3810Y95250
X6350Y95250
X8890Y95250
X11430Y95250
X17780Y82550
X20320Y82550
X33020Y82550
X33020Y90170
X22860Y82550
X25400Y82550
X30480Y82550
X27940Y82550
X30480Y90170
X27940Y90170
X25400Y90170
X22860Y90170
X20320Y90170
X17780Y90170
X17780Y100330
X20320Y100330
X33020Y100330
X35560Y100330
X22860Y100330
X25400Y100330
X30480Y100330
X27940Y100330
X35560Y107950
X33020Y107950
X30480Y107950
T5
X22225Y54610
X26670Y56515
X78105Y7620
X57150Y26670
X57150Y45085
X44450Y31115
X-77470Y7620
X-52070Y53975
X8890Y86995
X-16510Y85725
X-3175Y36195
X-30480Y36195
X-13970Y95250
X-67310Y90805
X-40640Y84455
X-50165Y86360
X30480Y29845
X15240Y103505
X74930Y7620
X64135Y78740
X-29845Y24765
X-1905Y24765
X34290Y17145
X64770Y17145
X-32385Y16510
X-48260Y12065
X-27940Y17780
X-40640Y17780
X-20320Y16510
X-38100Y26035
X-21590Y26035
X-23495Y17780
X-15240Y17780
X-12700Y10160
X26035Y10795
X29210Y15875
X48260Y18415
X36830Y19050
X31750Y11430
X40640Y24130
X31750Y23495
X43180Y15875
X31750Y10160
X65405Y62230
X64770Y30480
X41910Y80645
X-5715Y79375
X-10160Y23495
X8890Y25400
X-61595Y76200
X635Y73660
X12065Y40005
X-59055Y76835
X-57785Y83185
X29845Y23495
X8890Y72390
X20320Y46990
X-56515Y90170
X-38100Y90170
X-37465Y72390
X16510Y25400
X-62230Y40005
X-40005Y36830
X20955Y60960
X19050Y57150
X-62865Y45085
X-64135Y83820
X-53340Y84455
X-53340Y67310
X20320Y44450
X17780Y46990
X-65405Y87630
X-47625Y87630
X-54610Y85725
X10160Y19685
X10160Y71120
X-54610Y82550
X-31115Y79375
X-22860Y50800
X-58420Y29845
X-55880Y29845
X-55245Y32385
X-22860Y33020
X-17780Y32385
X-32385Y27305
X-24130Y27305
X-24130Y46990
X-55880Y19685
X-13970Y18415
X-80645Y41910
X-79375Y95885
X-15240Y88900
X-8890Y26035
X-20955Y27305
X-21590Y44450
X-17780Y105410
X-22860Y19685
X-25400Y46990
X-25400Y104140
X-4445Y50800
X-49530Y48260
X5080Y52070
X3175Y49530
X-49530Y45085
X14605Y45720
X5080Y46990
X3175Y44450
X-39370Y27940
X-54610Y29845
X-5715Y44450
X-7620Y29845
X-36830Y27305
X-52070Y26670
X0Y31115
X1270Y33655
X-33020Y31115
X-71120Y77470
X46990Y24130
X50800Y38100
X5080Y38100
X-34925Y77470
X-52070Y85090
X54610Y50800
X17145Y52070
X15240Y64770
X-25400Y91440
X-24130Y65405
X43180Y32385
X6985Y33020
X-85725Y34925
X-60960Y55880
X-60960Y35560
X55880Y19050
X55880Y50800
X3810Y53340
X-84455Y33655
X-38100Y33655
X-59690Y54610
X-59690Y33655
X-70485Y67945
X64770Y25400
X67945Y55880
X-58420Y32385
X-39370Y33655
X-71120Y44450
X-66040Y49530
X52070Y50800
X-47625Y45720
X-27305Y38735
X-71120Y43180
X58420Y46355
X-29210Y38100
X38100Y99695
X33020Y74930
X-10795Y38735
X90805Y71120
X89535Y99695
X48260Y103505
X0Y109855
X44450Y115570
X35560Y59690
X80645Y64770
X81280Y67310
X85725Y115570
X90805Y69850
X38100Y59690
X80645Y59690
X82550Y66040
X90805Y68580
X5080Y109855
X54610Y111760
X43180Y39370
X69215Y40005
X69850Y60960
X83820Y111760
X89535Y61595
X7620Y113030
X54610Y114300
X80645Y33020
X81280Y58420
X10160Y97155
X65405Y35560
X66675Y53340
X61595Y57785
X11430Y104775
X31750Y70485
X30480Y69215
X38100Y88265
X14605Y76200
X35560Y76200
X-66040Y81280
X62865Y10795
X60960Y67945
X27940Y67945
X7620Y97155
X8890Y68580
X40640Y65405
X-10160Y88900
X6985Y55880
X-19685Y81915
X54610Y71755
X59690Y42545
X48895Y43815
X-10795Y80645
X40005Y84455
X-25400Y84455
X-25400Y58420
X-68580Y88900
X36830Y85725
X34290Y70485
X64135Y12700
X64135Y62865
X60960Y12700
X60960Y54610
X58420Y12065
X60960Y55880
X49530Y27940
X37465Y102235
X85090Y80010
X31750Y80010
X86360Y46990
X31750Y106045
X33020Y77470
X50800Y76200
X80010Y109855
X29210Y109855
X76835Y54610
X73660Y86360
X82550Y53340
X80645Y30480
X63500Y110490
X50165Y41275
X40640Y103505
X46990Y36830
X77470Y104775
X26035Y103505
X61595Y87630
X53340Y43815
X43180Y47625
X74930Y97155
X-27940Y98425
X24130Y93345
X39370Y106680
X64770Y107950
X38735Y72390
X25400Y66675
X30480Y47625
X88265Y80645
X19050Y113030
X27305Y54610
X21590Y80645
X31750Y69215
X48260Y69215
X-61595Y77470
X-39370Y81280
X-43815Y80010
X-73660Y79375
X-48260Y97155
X66675Y81280
X64135Y65405
X34290Y59690
X58420Y78740
X31750Y77470
M30