G04 EAGLE Gerber RS-274X export*
G75*
%MOMM*%
%FSLAX34Y34*%
%LPD*%
%INSoldermask Bottom*%
%IPPOS*%
%AMOC8*
5,1,8,0,0,1.08239X$1,22.5*%
G01*
%ADD10R,1.854200X5.918200*%
%ADD11C,1.524000*%
%ADD12C,2.108200*%
%ADD13C,1.625600*%
%ADD14C,1.727200*%
%ADD15P,1.649562X8X292.500000*%
%ADD16P,1.649562X8X22.500000*%
%ADD17P,1.649562X8X202.500000*%
%ADD18P,1.951982X8X22.500000*%
%ADD19C,1.803400*%


D10*
X-777875Y38100D03*
X-746125Y38100D03*
X-714375Y38100D03*
X-682625Y38100D03*
X-650875Y38100D03*
X-619125Y38100D03*
X-587375Y38100D03*
X-555625Y38100D03*
X-523875Y38100D03*
X-492125Y38100D03*
X-460375Y38100D03*
X-428625Y38100D03*
X-396875Y38100D03*
X-365125Y38100D03*
X-333375Y38100D03*
X-301625Y38100D03*
X-269875Y38100D03*
X-238125Y38100D03*
X-206375Y38100D03*
X-174625Y38100D03*
X-142875Y38100D03*
X-111125Y38100D03*
X-79375Y38100D03*
X-47625Y38100D03*
X-15875Y38100D03*
X15875Y38100D03*
X47625Y38100D03*
X79375Y38100D03*
X111125Y38100D03*
X142875Y38100D03*
X174625Y38100D03*
X206375Y38100D03*
X238125Y38100D03*
X269875Y38100D03*
X301625Y38100D03*
X333375Y38100D03*
X365125Y38100D03*
X396875Y38100D03*
X428625Y38100D03*
X460375Y38100D03*
X492125Y38100D03*
X523875Y38100D03*
X555625Y38100D03*
X587375Y38100D03*
X619125Y38100D03*
X650875Y38100D03*
X682625Y38100D03*
X714375Y38100D03*
X746125Y38100D03*
X777875Y38100D03*
D11*
X-571500Y133096D02*
X-571500Y146304D01*
X-546100Y146304D02*
X-546100Y133096D01*
X-419100Y133096D02*
X-419100Y146304D01*
X-393700Y146304D02*
X-393700Y133096D01*
X-520700Y133096D02*
X-520700Y146304D01*
X-495300Y146304D02*
X-495300Y133096D01*
X-444500Y133096D02*
X-444500Y146304D01*
X-469900Y146304D02*
X-469900Y133096D01*
X-368300Y133096D02*
X-368300Y146304D01*
X-342900Y146304D02*
X-342900Y133096D01*
X-342900Y209296D02*
X-342900Y222504D01*
X-368300Y222504D02*
X-368300Y209296D01*
X-393700Y209296D02*
X-393700Y222504D01*
X-419100Y222504D02*
X-419100Y209296D01*
X-444500Y209296D02*
X-444500Y222504D01*
X-469900Y222504D02*
X-469900Y209296D01*
X-495300Y209296D02*
X-495300Y222504D01*
X-520700Y222504D02*
X-520700Y209296D01*
X-546100Y209296D02*
X-546100Y222504D01*
X-571500Y222504D02*
X-571500Y209296D01*
X-266700Y146304D02*
X-266700Y133096D01*
X-241300Y133096D02*
X-241300Y146304D01*
X-114300Y146304D02*
X-114300Y133096D01*
X-88900Y133096D02*
X-88900Y146304D01*
X-215900Y146304D02*
X-215900Y133096D01*
X-190500Y133096D02*
X-190500Y146304D01*
X-139700Y146304D02*
X-139700Y133096D01*
X-165100Y133096D02*
X-165100Y146304D01*
X-63500Y146304D02*
X-63500Y133096D01*
X-38100Y133096D02*
X-38100Y146304D01*
X-38100Y209296D02*
X-38100Y222504D01*
X-63500Y222504D02*
X-63500Y209296D01*
X-88900Y209296D02*
X-88900Y222504D01*
X-114300Y222504D02*
X-114300Y209296D01*
X-139700Y209296D02*
X-139700Y222504D01*
X-165100Y222504D02*
X-165100Y209296D01*
X-190500Y209296D02*
X-190500Y222504D01*
X-215900Y222504D02*
X-215900Y209296D01*
X-241300Y209296D02*
X-241300Y222504D01*
X-266700Y222504D02*
X-266700Y209296D01*
X38100Y146304D02*
X38100Y133096D01*
X63500Y133096D02*
X63500Y146304D01*
X190500Y146304D02*
X190500Y133096D01*
X215900Y133096D02*
X215900Y146304D01*
X88900Y146304D02*
X88900Y133096D01*
X114300Y133096D02*
X114300Y146304D01*
X165100Y146304D02*
X165100Y133096D01*
X139700Y133096D02*
X139700Y146304D01*
X241300Y146304D02*
X241300Y133096D01*
X266700Y133096D02*
X266700Y146304D01*
X266700Y209296D02*
X266700Y222504D01*
X241300Y222504D02*
X241300Y209296D01*
X215900Y209296D02*
X215900Y222504D01*
X190500Y222504D02*
X190500Y209296D01*
X165100Y209296D02*
X165100Y222504D01*
X139700Y222504D02*
X139700Y209296D01*
X114300Y209296D02*
X114300Y222504D01*
X88900Y222504D02*
X88900Y209296D01*
X63500Y209296D02*
X63500Y222504D01*
X38100Y222504D02*
X38100Y209296D01*
X342900Y146304D02*
X342900Y133096D01*
X368300Y133096D02*
X368300Y146304D01*
X495300Y146304D02*
X495300Y133096D01*
X520700Y133096D02*
X520700Y146304D01*
X393700Y146304D02*
X393700Y133096D01*
X419100Y133096D02*
X419100Y146304D01*
X469900Y146304D02*
X469900Y133096D01*
X444500Y133096D02*
X444500Y146304D01*
X546100Y146304D02*
X546100Y133096D01*
X571500Y133096D02*
X571500Y146304D01*
X571500Y209296D02*
X571500Y222504D01*
X546100Y222504D02*
X546100Y209296D01*
X520700Y209296D02*
X520700Y222504D01*
X495300Y222504D02*
X495300Y209296D01*
X469900Y209296D02*
X469900Y222504D01*
X444500Y222504D02*
X444500Y209296D01*
X419100Y209296D02*
X419100Y222504D01*
X393700Y222504D02*
X393700Y209296D01*
X368300Y209296D02*
X368300Y222504D01*
X342900Y222504D02*
X342900Y209296D01*
X292100Y260096D02*
X292100Y273304D01*
X317500Y273304D02*
X317500Y260096D01*
X444500Y260096D02*
X444500Y273304D01*
X469900Y273304D02*
X469900Y260096D01*
X342900Y260096D02*
X342900Y273304D01*
X368300Y273304D02*
X368300Y260096D01*
X419100Y260096D02*
X419100Y273304D01*
X393700Y273304D02*
X393700Y260096D01*
X469900Y336296D02*
X469900Y349504D01*
X444500Y349504D02*
X444500Y336296D01*
X419100Y336296D02*
X419100Y349504D01*
X393700Y349504D02*
X393700Y336296D01*
X368300Y336296D02*
X368300Y349504D01*
X342900Y349504D02*
X342900Y336296D01*
X317500Y336296D02*
X317500Y349504D01*
X292100Y349504D02*
X292100Y336296D01*
X292100Y412496D02*
X292100Y425704D01*
X317500Y425704D02*
X317500Y412496D01*
X444500Y412496D02*
X444500Y425704D01*
X469900Y425704D02*
X469900Y412496D01*
X342900Y412496D02*
X342900Y425704D01*
X368300Y425704D02*
X368300Y412496D01*
X419100Y412496D02*
X419100Y425704D01*
X393700Y425704D02*
X393700Y412496D01*
X469900Y488696D02*
X469900Y501904D01*
X444500Y501904D02*
X444500Y488696D01*
X419100Y488696D02*
X419100Y501904D01*
X393700Y501904D02*
X393700Y488696D01*
X368300Y488696D02*
X368300Y501904D01*
X342900Y501904D02*
X342900Y488696D01*
X317500Y488696D02*
X317500Y501904D01*
X292100Y501904D02*
X292100Y488696D01*
X292100Y552196D02*
X292100Y565404D01*
X317500Y565404D02*
X317500Y552196D01*
X342900Y552196D02*
X342900Y565404D01*
X368300Y565404D02*
X368300Y552196D01*
X393700Y552196D02*
X393700Y565404D01*
X419100Y565404D02*
X419100Y552196D01*
X444500Y552196D02*
X444500Y565404D01*
X469900Y565404D02*
X469900Y552196D01*
X495300Y552196D02*
X495300Y565404D01*
X520700Y565404D02*
X520700Y552196D01*
X546100Y552196D02*
X546100Y565404D01*
X571500Y565404D02*
X571500Y552196D01*
X571500Y628396D02*
X571500Y641604D01*
X546100Y641604D02*
X546100Y628396D01*
X520700Y628396D02*
X520700Y641604D01*
X495300Y641604D02*
X495300Y628396D01*
X469900Y628396D02*
X469900Y641604D01*
X444500Y641604D02*
X444500Y628396D01*
X419100Y628396D02*
X419100Y641604D01*
X393700Y641604D02*
X393700Y628396D01*
X368300Y628396D02*
X368300Y641604D01*
X342900Y641604D02*
X342900Y628396D01*
X317500Y628396D02*
X317500Y641604D01*
X292100Y641604D02*
X292100Y628396D01*
X444500Y818896D02*
X444500Y832104D01*
X469900Y832104D02*
X469900Y818896D01*
X596900Y818896D02*
X596900Y832104D01*
X596900Y895096D02*
X596900Y908304D01*
X495300Y832104D02*
X495300Y818896D01*
X520700Y818896D02*
X520700Y832104D01*
X571500Y832104D02*
X571500Y818896D01*
X546100Y818896D02*
X546100Y832104D01*
X571500Y895096D02*
X571500Y908304D01*
X546100Y908304D02*
X546100Y895096D01*
X520700Y895096D02*
X520700Y908304D01*
X495300Y908304D02*
X495300Y895096D01*
X469900Y895096D02*
X469900Y908304D01*
X444500Y908304D02*
X444500Y895096D01*
X444500Y996696D02*
X444500Y1009904D01*
X469900Y1009904D02*
X469900Y996696D01*
X596900Y996696D02*
X596900Y1009904D01*
X622300Y1009904D02*
X622300Y996696D01*
X495300Y996696D02*
X495300Y1009904D01*
X520700Y1009904D02*
X520700Y996696D01*
X571500Y996696D02*
X571500Y1009904D01*
X546100Y1009904D02*
X546100Y996696D01*
X622300Y1072896D02*
X622300Y1086104D01*
X596900Y1086104D02*
X596900Y1072896D01*
X571500Y1072896D02*
X571500Y1086104D01*
X546100Y1086104D02*
X546100Y1072896D01*
X520700Y1072896D02*
X520700Y1086104D01*
X495300Y1086104D02*
X495300Y1072896D01*
X469900Y1072896D02*
X469900Y1086104D01*
X444500Y1086104D02*
X444500Y1072896D01*
X419100Y959104D02*
X419100Y945896D01*
X444500Y945896D02*
X444500Y959104D01*
X469900Y959104D02*
X469900Y945896D01*
X495300Y945896D02*
X495300Y959104D01*
X520700Y959104D02*
X520700Y945896D01*
X546100Y945896D02*
X546100Y959104D01*
X571500Y959104D02*
X571500Y945896D01*
X596900Y945896D02*
X596900Y959104D01*
X622300Y959104D02*
X622300Y945896D01*
X685800Y832104D02*
X685800Y818896D01*
X711200Y818896D02*
X711200Y832104D01*
X838200Y832104D02*
X838200Y818896D01*
X838200Y895096D02*
X838200Y908304D01*
X736600Y832104D02*
X736600Y818896D01*
X762000Y818896D02*
X762000Y832104D01*
X812800Y832104D02*
X812800Y818896D01*
X787400Y818896D02*
X787400Y832104D01*
X812800Y895096D02*
X812800Y908304D01*
X787400Y908304D02*
X787400Y895096D01*
X762000Y895096D02*
X762000Y908304D01*
X736600Y908304D02*
X736600Y895096D01*
X711200Y895096D02*
X711200Y908304D01*
X685800Y908304D02*
X685800Y895096D01*
X685800Y996696D02*
X685800Y1009904D01*
X711200Y1009904D02*
X711200Y996696D01*
X838200Y996696D02*
X838200Y1009904D01*
X863600Y1009904D02*
X863600Y996696D01*
X736600Y996696D02*
X736600Y1009904D01*
X762000Y1009904D02*
X762000Y996696D01*
X812800Y996696D02*
X812800Y1009904D01*
X787400Y1009904D02*
X787400Y996696D01*
X863600Y1072896D02*
X863600Y1086104D01*
X838200Y1086104D02*
X838200Y1072896D01*
X812800Y1072896D02*
X812800Y1086104D01*
X787400Y1086104D02*
X787400Y1072896D01*
X762000Y1072896D02*
X762000Y1086104D01*
X736600Y1086104D02*
X736600Y1072896D01*
X711200Y1072896D02*
X711200Y1086104D01*
X685800Y1086104D02*
X685800Y1072896D01*
X660400Y959104D02*
X660400Y945896D01*
X685800Y945896D02*
X685800Y959104D01*
X711200Y959104D02*
X711200Y945896D01*
X736600Y945896D02*
X736600Y959104D01*
X762000Y959104D02*
X762000Y945896D01*
X787400Y945896D02*
X787400Y959104D01*
X812800Y959104D02*
X812800Y945896D01*
X838200Y945896D02*
X838200Y959104D01*
X863600Y959104D02*
X863600Y945896D01*
X-63500Y832104D02*
X-63500Y818896D01*
X-38100Y818896D02*
X-38100Y832104D01*
X88900Y832104D02*
X88900Y818896D01*
X88900Y895096D02*
X88900Y908304D01*
X-12700Y832104D02*
X-12700Y818896D01*
X12700Y818896D02*
X12700Y832104D01*
X63500Y832104D02*
X63500Y818896D01*
X38100Y818896D02*
X38100Y832104D01*
X63500Y895096D02*
X63500Y908304D01*
X38100Y908304D02*
X38100Y895096D01*
X12700Y895096D02*
X12700Y908304D01*
X-12700Y908304D02*
X-12700Y895096D01*
X-38100Y895096D02*
X-38100Y908304D01*
X-63500Y908304D02*
X-63500Y895096D01*
X-63500Y996696D02*
X-63500Y1009904D01*
X-38100Y1009904D02*
X-38100Y996696D01*
X88900Y996696D02*
X88900Y1009904D01*
X114300Y1009904D02*
X114300Y996696D01*
X-12700Y996696D02*
X-12700Y1009904D01*
X12700Y1009904D02*
X12700Y996696D01*
X63500Y996696D02*
X63500Y1009904D01*
X38100Y1009904D02*
X38100Y996696D01*
X114300Y1072896D02*
X114300Y1086104D01*
X88900Y1086104D02*
X88900Y1072896D01*
X63500Y1072896D02*
X63500Y1086104D01*
X38100Y1086104D02*
X38100Y1072896D01*
X12700Y1072896D02*
X12700Y1086104D01*
X-12700Y1086104D02*
X-12700Y1072896D01*
X-38100Y1072896D02*
X-38100Y1086104D01*
X-63500Y1086104D02*
X-63500Y1072896D01*
X-88900Y959104D02*
X-88900Y945896D01*
X-63500Y945896D02*
X-63500Y959104D01*
X-38100Y959104D02*
X-38100Y945896D01*
X-12700Y945896D02*
X-12700Y959104D01*
X12700Y959104D02*
X12700Y945896D01*
X38100Y945896D02*
X38100Y959104D01*
X63500Y959104D02*
X63500Y945896D01*
X88900Y945896D02*
X88900Y959104D01*
X114300Y959104D02*
X114300Y945896D01*
X177800Y832104D02*
X177800Y818896D01*
X203200Y818896D02*
X203200Y832104D01*
X330200Y832104D02*
X330200Y818896D01*
X330200Y895096D02*
X330200Y908304D01*
X228600Y832104D02*
X228600Y818896D01*
X254000Y818896D02*
X254000Y832104D01*
X304800Y832104D02*
X304800Y818896D01*
X279400Y818896D02*
X279400Y832104D01*
X304800Y895096D02*
X304800Y908304D01*
X279400Y908304D02*
X279400Y895096D01*
X254000Y895096D02*
X254000Y908304D01*
X228600Y908304D02*
X228600Y895096D01*
X203200Y895096D02*
X203200Y908304D01*
X177800Y908304D02*
X177800Y895096D01*
X177800Y996696D02*
X177800Y1009904D01*
X203200Y1009904D02*
X203200Y996696D01*
X330200Y996696D02*
X330200Y1009904D01*
X355600Y1009904D02*
X355600Y996696D01*
X228600Y996696D02*
X228600Y1009904D01*
X254000Y1009904D02*
X254000Y996696D01*
X304800Y996696D02*
X304800Y1009904D01*
X279400Y1009904D02*
X279400Y996696D01*
X355600Y1072896D02*
X355600Y1086104D01*
X330200Y1086104D02*
X330200Y1072896D01*
X304800Y1072896D02*
X304800Y1086104D01*
X279400Y1086104D02*
X279400Y1072896D01*
X254000Y1072896D02*
X254000Y1086104D01*
X228600Y1086104D02*
X228600Y1072896D01*
X203200Y1072896D02*
X203200Y1086104D01*
X177800Y1086104D02*
X177800Y1072896D01*
X152400Y959104D02*
X152400Y945896D01*
X177800Y945896D02*
X177800Y959104D01*
X203200Y959104D02*
X203200Y945896D01*
X228600Y945896D02*
X228600Y959104D01*
X254000Y959104D02*
X254000Y945896D01*
X279400Y945896D02*
X279400Y959104D01*
X304800Y959104D02*
X304800Y945896D01*
X330200Y945896D02*
X330200Y959104D01*
X355600Y959104D02*
X355600Y945896D01*
D12*
X-825500Y787400D03*
X-825500Y762000D03*
X-825500Y736600D03*
X-825500Y711200D03*
X-825500Y685800D03*
X-825500Y660400D03*
X-825500Y635000D03*
X-825500Y609600D03*
X-825500Y584200D03*
X-825500Y558800D03*
X-825500Y533400D03*
X-825500Y508000D03*
X-825500Y482600D03*
X-825500Y457200D03*
X-825500Y431800D03*
X-825500Y406400D03*
X-673100Y406400D03*
X-673100Y431800D03*
X-673100Y457200D03*
X-673100Y482600D03*
X-673100Y533400D03*
X-673100Y558800D03*
X-673100Y584200D03*
X-673100Y609600D03*
X-673100Y635000D03*
X-673100Y660400D03*
X-673100Y685800D03*
X-673100Y711200D03*
X-673100Y736600D03*
X-673100Y762000D03*
X-673100Y787400D03*
X-673100Y508000D03*
D11*
X-419100Y996696D02*
X-419100Y1009904D01*
X-393700Y1009904D02*
X-393700Y996696D01*
X-368300Y996696D02*
X-368300Y1009904D01*
X-342900Y1009904D02*
X-342900Y996696D01*
X-342900Y1072896D02*
X-342900Y1086104D01*
X-368300Y1086104D02*
X-368300Y1072896D01*
X-393700Y1072896D02*
X-393700Y1086104D01*
X-419100Y1086104D02*
X-419100Y1072896D01*
X-444500Y959104D02*
X-444500Y945896D01*
X-419100Y945896D02*
X-419100Y959104D01*
X-393700Y959104D02*
X-393700Y945896D01*
X-368300Y945896D02*
X-368300Y959104D01*
X-342900Y959104D02*
X-342900Y945896D01*
D13*
X-324612Y812800D02*
X-310388Y812800D01*
X-310388Y838200D02*
X-324612Y838200D01*
X-324612Y863600D02*
X-310388Y863600D01*
D14*
X-419100Y1122680D02*
X-419100Y1137920D01*
X-393700Y1137920D02*
X-393700Y1122680D01*
X-368300Y1122680D02*
X-368300Y1137920D01*
X-342900Y1137920D02*
X-342900Y1122680D01*
X-317500Y1122680D02*
X-317500Y1137920D01*
D12*
X-558800Y787400D03*
X-558800Y762000D03*
X-558800Y736600D03*
X-558800Y711200D03*
X-558800Y685800D03*
X-558800Y660400D03*
X-558800Y635000D03*
X-558800Y609600D03*
X-558800Y584200D03*
X-558800Y558800D03*
X-558800Y533400D03*
X-558800Y508000D03*
X-558800Y482600D03*
X-558800Y457200D03*
X-558800Y431800D03*
X-558800Y406400D03*
X-406400Y406400D03*
X-406400Y431800D03*
X-406400Y457200D03*
X-406400Y482600D03*
X-406400Y533400D03*
X-406400Y558800D03*
X-406400Y584200D03*
X-406400Y609600D03*
X-406400Y635000D03*
X-406400Y660400D03*
X-406400Y685800D03*
X-406400Y711200D03*
X-406400Y736600D03*
X-406400Y762000D03*
X-406400Y787400D03*
X-406400Y508000D03*
D11*
X-298704Y749300D02*
X-285496Y749300D01*
X-285496Y723900D02*
X-298704Y723900D01*
X-298704Y698500D02*
X-285496Y698500D01*
X-285496Y673100D02*
X-298704Y673100D01*
X-298704Y647700D02*
X-285496Y647700D01*
X-285496Y622300D02*
X-298704Y622300D01*
X-298704Y596900D02*
X-285496Y596900D01*
X-285496Y571500D02*
X-298704Y571500D01*
X-298704Y546100D02*
X-285496Y546100D01*
X-285496Y520700D02*
X-298704Y520700D01*
X-298704Y495300D02*
X-285496Y495300D01*
X-285496Y469900D02*
X-298704Y469900D01*
X-298704Y444500D02*
X-285496Y444500D01*
X-285496Y419100D02*
X-298704Y419100D01*
X-146304Y419100D02*
X-133096Y419100D01*
X-133096Y444500D02*
X-146304Y444500D01*
X-146304Y469900D02*
X-133096Y469900D01*
X-133096Y495300D02*
X-146304Y495300D01*
X-146304Y520700D02*
X-133096Y520700D01*
X-133096Y546100D02*
X-146304Y546100D01*
X-146304Y571500D02*
X-133096Y571500D01*
X-133096Y596900D02*
X-146304Y596900D01*
X-146304Y622300D02*
X-133096Y622300D01*
X-133096Y647700D02*
X-146304Y647700D01*
X-146304Y673100D02*
X-133096Y673100D01*
X-133096Y698500D02*
X-146304Y698500D01*
X-146304Y723900D02*
X-133096Y723900D01*
X-133096Y749300D02*
X-146304Y749300D01*
X-32004Y749300D02*
X-18796Y749300D01*
X-18796Y723900D02*
X-32004Y723900D01*
X-32004Y698500D02*
X-18796Y698500D01*
X-18796Y673100D02*
X-32004Y673100D01*
X-32004Y647700D02*
X-18796Y647700D01*
X-18796Y622300D02*
X-32004Y622300D01*
X-32004Y596900D02*
X-18796Y596900D01*
X-18796Y571500D02*
X-32004Y571500D01*
X-32004Y546100D02*
X-18796Y546100D01*
X-18796Y520700D02*
X-32004Y520700D01*
X-32004Y495300D02*
X-18796Y495300D01*
X-18796Y469900D02*
X-32004Y469900D01*
X-32004Y444500D02*
X-18796Y444500D01*
X-18796Y419100D02*
X-32004Y419100D01*
X120396Y419100D02*
X133604Y419100D01*
X133604Y444500D02*
X120396Y444500D01*
X120396Y469900D02*
X133604Y469900D01*
X133604Y495300D02*
X120396Y495300D01*
X120396Y520700D02*
X133604Y520700D01*
X133604Y546100D02*
X120396Y546100D01*
X120396Y571500D02*
X133604Y571500D01*
X133604Y596900D02*
X120396Y596900D01*
X120396Y622300D02*
X133604Y622300D01*
X133604Y647700D02*
X120396Y647700D01*
X120396Y673100D02*
X133604Y673100D01*
X133604Y698500D02*
X120396Y698500D01*
X120396Y723900D02*
X133604Y723900D01*
X133604Y749300D02*
X120396Y749300D01*
X780796Y736600D02*
X794004Y736600D01*
X794004Y711200D02*
X780796Y711200D01*
X780796Y685800D02*
X794004Y685800D01*
X794004Y660400D02*
X780796Y660400D01*
X780796Y635000D02*
X794004Y635000D01*
X794004Y609600D02*
X780796Y609600D01*
X780796Y584200D02*
X794004Y584200D01*
X794004Y558800D02*
X780796Y558800D01*
X780796Y533400D02*
X794004Y533400D01*
X794004Y508000D02*
X780796Y508000D01*
X856996Y508000D02*
X870204Y508000D01*
X870204Y533400D02*
X856996Y533400D01*
X856996Y558800D02*
X870204Y558800D01*
X870204Y584200D02*
X856996Y584200D01*
X856996Y609600D02*
X870204Y609600D01*
X870204Y635000D02*
X856996Y635000D01*
X856996Y660400D02*
X870204Y660400D01*
X870204Y685800D02*
X856996Y685800D01*
X856996Y711200D02*
X870204Y711200D01*
X870204Y736600D02*
X856996Y736600D01*
X794004Y444500D02*
X780796Y444500D01*
X780796Y419100D02*
X794004Y419100D01*
X794004Y393700D02*
X780796Y393700D01*
X780796Y368300D02*
X794004Y368300D01*
X794004Y342900D02*
X780796Y342900D01*
X780796Y317500D02*
X794004Y317500D01*
X794004Y292100D02*
X780796Y292100D01*
X780796Y266700D02*
X794004Y266700D01*
X794004Y241300D02*
X780796Y241300D01*
X780796Y215900D02*
X794004Y215900D01*
X856996Y215900D02*
X870204Y215900D01*
X870204Y241300D02*
X856996Y241300D01*
X856996Y266700D02*
X870204Y266700D01*
X870204Y292100D02*
X856996Y292100D01*
X856996Y317500D02*
X870204Y317500D01*
X870204Y342900D02*
X856996Y342900D01*
X856996Y368300D02*
X870204Y368300D01*
X870204Y393700D02*
X856996Y393700D01*
X856996Y419100D02*
X870204Y419100D01*
X870204Y444500D02*
X856996Y444500D01*
X743204Y762000D02*
X729996Y762000D01*
X729996Y736600D02*
X743204Y736600D01*
X743204Y711200D02*
X729996Y711200D01*
X729996Y685800D02*
X743204Y685800D01*
X743204Y660400D02*
X729996Y660400D01*
X729996Y635000D02*
X743204Y635000D01*
X743204Y609600D02*
X729996Y609600D01*
X729996Y584200D02*
X743204Y584200D01*
X743204Y558800D02*
X729996Y558800D01*
X729996Y508000D02*
X743204Y508000D01*
X743204Y482600D02*
X729996Y482600D01*
X729996Y457200D02*
X743204Y457200D01*
X743204Y431800D02*
X729996Y431800D01*
X729996Y406400D02*
X743204Y406400D01*
X743204Y381000D02*
X729996Y381000D01*
X729996Y355600D02*
X743204Y355600D01*
X743204Y330200D02*
X729996Y330200D01*
X729996Y304800D02*
X743204Y304800D01*
X-254000Y996696D02*
X-254000Y1009904D01*
X-228600Y1009904D02*
X-228600Y996696D01*
X-203200Y996696D02*
X-203200Y1009904D01*
X-177800Y1009904D02*
X-177800Y996696D01*
X-177800Y1072896D02*
X-177800Y1086104D01*
X-203200Y1086104D02*
X-203200Y1072896D01*
X-228600Y1072896D02*
X-228600Y1086104D01*
X-254000Y1086104D02*
X-254000Y1072896D01*
X-279400Y959104D02*
X-279400Y945896D01*
X-254000Y945896D02*
X-254000Y959104D01*
X-228600Y959104D02*
X-228600Y945896D01*
X-203200Y945896D02*
X-203200Y959104D01*
X-177800Y959104D02*
X-177800Y945896D01*
D14*
X-254000Y1122680D02*
X-254000Y1137920D01*
X-228600Y1137920D02*
X-228600Y1122680D01*
X-203200Y1122680D02*
X-203200Y1137920D01*
X-177800Y1137920D02*
X-177800Y1122680D01*
X-152400Y1122680D02*
X-152400Y1137920D01*
D15*
X-596900Y215900D03*
X-596900Y190500D03*
X-292100Y215900D03*
X-292100Y190500D03*
X12700Y215900D03*
X12700Y190500D03*
X317500Y215900D03*
X317500Y190500D03*
X266700Y495300D03*
X266700Y469900D03*
X266700Y342900D03*
X266700Y317500D03*
X-88900Y901700D03*
X-88900Y876300D03*
X266700Y635000D03*
X266700Y609600D03*
X419100Y901700D03*
X419100Y876300D03*
X152400Y901700D03*
X152400Y876300D03*
D16*
X-774700Y927100D03*
X-749300Y927100D03*
D15*
X660400Y901700D03*
X660400Y876300D03*
D16*
X-508000Y927100D03*
X-482600Y927100D03*
D17*
X-139700Y774700D03*
X-165100Y774700D03*
X127000Y774700D03*
X101600Y774700D03*
D18*
X-762000Y203200D03*
D19*
X-787400Y203200D03*
M02*
