M48
;GenerationSoftware,Autodesk,EAGLE,9.6.1*%
;CreationDate,2026-02-28T18:23:51Z*%
FMAT,2
ICI,OFF
METRIC,TZ,000.000
T8C0.610
T7C0.813
T6C0.914
T5C1.016
T4C1.270
T3C1.700
T2C2.200
T1C3.962
%
G90
M71
T1
X66040Y163830
X-30480Y163830
X99060Y130810
T2
X30240Y152400
X-9920Y152400
T3
X30240Y155400
X-9920Y155400
T4
X-41910Y58420
X-41910Y55880
X-41910Y53340
X-41910Y50800
X-41910Y45720
X-41910Y43180
X-41910Y40640
X-41910Y38100
X-57150Y38100
X-57150Y40640
X-57150Y43180
X-57150Y45720
X-57150Y48260
X-57150Y50800
X-57150Y53340
X-57150Y55880
X-57150Y58420
X-57150Y60960
X-57150Y63500
X-57150Y66040
X-57150Y68580
X-57150Y71120
X-57150Y73660
X-57150Y76200
X-67310Y48260
X-67310Y76200
X-67310Y73660
X-67310Y71120
X-67310Y68580
X-67310Y66040
X-67310Y63500
X-67310Y60960
X-67310Y58420
X-67310Y55880
X-67310Y53340
X-67310Y50800
X-67310Y45720
X-67310Y43180
X-67310Y40640
X-67310Y38100
X-82550Y38100
X-82550Y40640
X-82550Y43180
X-82550Y45720
X-82550Y48260
X-82550Y50800
X-82550Y53340
X-82550Y55880
X-82550Y58420
X-82550Y60960
X-82550Y63500
X-82550Y66040
X-82550Y68580
X-82550Y71120
X-82550Y73660
X-82550Y76200
X-41910Y73660
X-41910Y76200
X-41910Y48260
X-41910Y71120
X-41910Y66040
X-41910Y63500
X-41910Y60960
X-41910Y68580
T5
X58420Y109220
X58420Y111760
X60960Y109220
X63500Y109220
X66040Y109220
X68580Y109220
X71120Y109220
X73660Y109220
X60960Y111760
X63500Y111760
X66040Y111760
X68580Y111760
X71120Y111760
X73660Y111760
X-66040Y109220
X-63500Y109220
X-60960Y109220
X-58420Y109220
X-66040Y111760
X-63500Y111760
X-60960Y111760
X-58420Y111760
X-55880Y109220
X-55880Y111760
X-50800Y109220
X-48260Y109220
X-45720Y109220
X-43180Y109220
X-40640Y109220
X-53340Y111760
X-50800Y111760
X-48260Y111760
X-45720Y111760
X-43180Y111760
X-40640Y111760
X-38100Y109220
X-38100Y111760
X-35560Y109220
X-33020Y109220
X-30480Y109220
X-27940Y109220
X-25400Y109220
X-22860Y109220
X-35560Y111760
X-33020Y111760
X-30480Y111760
X-27940Y111760
X-25400Y111760
X-22860Y111760
X139700Y173990
X137160Y173990
X134620Y173990
X132080Y173990
X129540Y173990
X-53340Y109220
X149860Y121920
X149860Y119380
X149860Y116840
X149860Y114300
X149860Y111760
X149860Y109220
X-36830Y172720
X-39370Y172720
X-41910Y172720
X-44450Y172720
X-46990Y172720
X-49530Y172720
X-36830Y170180
X-39370Y170180
X-41910Y170180
X-44450Y170180
X-46990Y170180
X-49530Y170180
X-52070Y172720
X-52070Y170180
X-54610Y172720
X-57150Y172720
X-59690Y172720
X-62230Y172720
X-64770Y172720
X-67310Y172720
X-54610Y170180
X-57150Y170180
X120650Y173990
X118110Y173990
X115570Y173990
X113030Y173990
X110490Y173990
X-59690Y170180
X-62230Y170180
X-64770Y170180
X-67310Y170180
X-69850Y172720
X-69850Y170180
X-72390Y172720
X-74930Y172720
X-77470Y172720
X-80010Y172720
X-82550Y172720
X-85090Y172720
X-72390Y170180
X-74930Y170180
X-77470Y170180
X-80010Y170180
X-82550Y170180
X-85090Y170180
X30480Y109220
X33020Y109220
X35560Y109220
X38100Y109220
X30480Y111760
X33020Y111760
X35560Y111760
X38100Y111760
X40640Y109220
X40640Y111760
X43180Y109220
X45720Y109220
X48260Y109220
X50800Y109220
X53340Y109220
X55880Y109220
X43180Y111760
X45720Y111760
X48260Y111760
X50800Y111760
X53340Y111760
X55880Y111760
X172720Y167640
X172720Y165100
X172720Y162560
X172720Y160020
X172720Y157480
X172720Y154940
X172720Y152400
X172720Y149860
X172720Y147320
X172720Y144780
X172720Y142240
X172720Y139700
X172720Y137160
X172720Y134620
X172720Y132080
X172720Y129540
X172720Y127000
X172720Y124460
X172720Y121920
X172720Y119380
X172720Y116840
X172720Y114300
X172720Y111760
X172720Y109220
X149860Y167640
X149860Y165100
X149860Y162560
X149860Y160020
X149860Y157480
X149860Y154940
X149860Y152400
X149860Y149860
X149860Y147320
X149860Y144780
X149860Y142240
X149860Y139700
X149860Y137160
X149860Y134620
X149860Y132080
X149860Y129540
X149860Y127000
X149860Y124460
T6
X-31750Y88900
X-31750Y86360
X-31750Y83820
X54610Y39370
X54610Y36830
X54610Y34290
X115570Y72390
X113030Y72390
X-25400Y172720
X-27940Y172720
T7
X132080Y161290
X134620Y161290
X137160Y161290
X137160Y168910
X134620Y168910
X132080Y168910
X129540Y168910
X127000Y156210
X129540Y156210
X132080Y156210
X134620Y156210
X137160Y156210
X-59690Y24130
X-59690Y21590
X-29210Y24130
X-29210Y21590
X1270Y24130
X1270Y21590
X31750Y24130
X31750Y21590
X26670Y54610
X26670Y52070
X26670Y39370
X26670Y36830
X129540Y78740
X129540Y76200
X26670Y68580
X26670Y66040
X129540Y43180
X129540Y40640
X153670Y78740
X153670Y76200
X-67310Y91440
X-67310Y93980
X153670Y43180
X153670Y40640
X-38100Y91440
X-38100Y93980
X-13970Y80010
X-16510Y80010
X12700Y80010
X10160Y80010
X-76200Y20320
X-78740Y20320
X66040Y62230
X68580Y62230
X71120Y62230
X73660Y62230
X76200Y62230
X78740Y62230
X81280Y62230
X83820Y62230
X86360Y62230
X88900Y62230
X91440Y62230
X93980Y62230
X93980Y69850
X91440Y69850
X88900Y69850
X86360Y69850
X83820Y69850
X81280Y69850
X78740Y69850
X76200Y69850
X73660Y69850
X71120Y69850
X68580Y69850
X66040Y69850
X45720Y93980
X55880Y93980
X45720Y99060
X55880Y99060
X5080Y143510
X-2540Y143510
X-57150Y160020
X-64770Y160020
X78740Y83820
X81280Y83820
X93980Y83820
X93980Y91440
X83820Y83820
X86360Y83820
X91440Y83820
X88900Y83820
X91440Y91440
X88900Y91440
X86360Y91440
X83820Y91440
X81280Y91440
X78740Y91440
X-39370Y160020
X76200Y91440
X76200Y88900
X63500Y69850
X63500Y67310
X110490Y102870
X110490Y100330
X110490Y87630
X110490Y85090
X110490Y97790
X110490Y95250
X110490Y90170
X110490Y92710
X110490Y82550
X110490Y80010
X118110Y80010
X118110Y82550
X118110Y85090
X118110Y87630
X118110Y90170
X118110Y92710
X118110Y95250
X118110Y97790
X118110Y100330
X118110Y102870
X132080Y134620
X132080Y132080
X132080Y119380
X132080Y116840
X132080Y129540
X132080Y127000
X132080Y121920
X132080Y124460
X132080Y114300
X132080Y111760
X139700Y111760
X139700Y114300
X139700Y116840
X139700Y119380
X139700Y121920
X139700Y124460
X139700Y127000
X139700Y129540
X139700Y132080
X139700Y134620
X114300Y134620
X114300Y132080
X114300Y119380
X114300Y116840
X114300Y129540
X114300Y127000
X114300Y121920
X114300Y124460
X114300Y114300
X114300Y111760
X121920Y111760
X121920Y114300
X121920Y116840
X121920Y119380
X121920Y121920
X121920Y124460
X121920Y127000
X121920Y129540
X121920Y132080
X121920Y134620
X129540Y143510
X132080Y143510
X134620Y143510
X137160Y143510
X137160Y151130
X134620Y151130
X132080Y151130
X129540Y151130
X121920Y137160
X119380Y137160
X19050Y16510
X139700Y137160
X137160Y137160
X118110Y105410
X115570Y105410
X113030Y143510
X115570Y143510
X118110Y143510
X120650Y143510
X120650Y151130
X118110Y151130
X115570Y151130
X113030Y151130
X110490Y151130
X110490Y148590
X80010Y16510
X82550Y16510
X95250Y16510
X97790Y16510
X85090Y16510
X87630Y16510
X92710Y16510
X90170Y16510
X100330Y16510
X102870Y16510
X102870Y24130
X100330Y24130
X97790Y24130
X95250Y24130
X92710Y24130
X90170Y24130
X87630Y24130
X85090Y24130
X82550Y24130
X80010Y24130
X93980Y143510
X101600Y143510
X93980Y138430
X101600Y138430
X-57150Y16510
X-54610Y16510
X-41910Y16510
X-39370Y16510
X-52070Y16510
X-49530Y16510
X-44450Y16510
X-46990Y16510
X-36830Y16510
X-34290Y16510
X-34290Y24130
X-36830Y24130
X-39370Y24130
X-41910Y24130
X-44450Y24130
X-46990Y24130
X-49530Y24130
X-52070Y24130
X-54610Y24130
X-57150Y24130
X-26670Y16510
X-24130Y16510
X-11430Y16510
X-8890Y16510
X-21590Y16510
X-19050Y16510
X-13970Y16510
X-16510Y16510
X-6350Y16510
X-3810Y16510
X-3810Y24130
X-6350Y24130
X-8890Y24130
X-11430Y24130
X-13970Y24130
X-16510Y24130
X-19050Y24130
X-21590Y24130
X-24130Y24130
X-26670Y24130
X3810Y16510
X6350Y16510
X21590Y16510
X8890Y16510
X11430Y16510
X16510Y16510
X13970Y16510
X24130Y16510
X26670Y16510
X26670Y24130
X24130Y24130
X21590Y24130
X19050Y24130
X16510Y24130
X13970Y24130
X11430Y24130
X8890Y24130
X6350Y24130
X3810Y24130
X34290Y16510
X36830Y16510
X49530Y16510
X52070Y16510
X39370Y16510
X41910Y16510
X46990Y16510
X44450Y16510
X54610Y16510
X57150Y16510
X57150Y24130
X54610Y24130
X52070Y24130
X49530Y24130
X46990Y24130
X44450Y24130
X41910Y24130
X39370Y24130
X36830Y24130
X34290Y24130
X29210Y31750
X31750Y31750
X44450Y31750
X46990Y31750
X34290Y31750
X36830Y31750
X41910Y31750
X39370Y31750
X46990Y39370
X44450Y39370
X41910Y39370
X39370Y39370
X36830Y39370
X34290Y39370
X31750Y39370
X29210Y39370
X29210Y46990
X31750Y46990
X44450Y46990
X46990Y46990
X34290Y46990
X36830Y46990
X41910Y46990
X39370Y46990
X46990Y54610
X44450Y54610
X41910Y54610
X39370Y54610
X36830Y54610
X34290Y54610
X31750Y54610
X29210Y54610
X29210Y62230
X31750Y62230
X34290Y62230
X36830Y62230
X39370Y62230
X41910Y62230
X44450Y62230
X46990Y62230
X49530Y62230
X52070Y62230
X54610Y62230
X57150Y62230
X57150Y69850
X54610Y69850
X52070Y69850
X49530Y69850
X46990Y69850
X44450Y69850
X41910Y69850
X39370Y69850
X36830Y69850
X34290Y69850
X31750Y69850
X29210Y69850
X132080Y35560
X134620Y35560
X147320Y35560
X147320Y43180
X137160Y35560
X139700Y35560
X144780Y35560
X142240Y35560
X144780Y43180
X142240Y43180
X139700Y43180
X137160Y43180
X134620Y43180
X132080Y43180
X132080Y53340
X134620Y53340
X147320Y53340
X149860Y53340
X137160Y53340
X139700Y53340
X144780Y53340
X142240Y53340
X149860Y60960
X147320Y60960
X144780Y60960
X142240Y60960
X139700Y60960
X137160Y60960
X134620Y60960
X132080Y60960
X129540Y48260
X132080Y48260
X134620Y48260
X137160Y48260
X139700Y48260
X142240Y48260
X144780Y48260
X147320Y48260
X149860Y48260
X156210Y35560
X158750Y35560
X171450Y35560
X171450Y43180
X161290Y35560
X163830Y35560
X168910Y35560
X166370Y35560
X168910Y43180
X166370Y43180
X163830Y43180
X161290Y43180
X158750Y43180
X156210Y43180
X156210Y53340
X158750Y53340
X171450Y53340
X173990Y53340
X161290Y53340
X163830Y53340
X168910Y53340
X166370Y53340
X173990Y60960
X171450Y60960
X168910Y60960
X166370Y60960
X163830Y60960
X161290Y60960
X158750Y60960
X156210Y60960
X153670Y48260
X156210Y48260
X-46990Y160020
X161290Y48260
X163830Y48260
X166370Y48260
X168910Y48260
X171450Y48260
X173990Y48260
X132080Y71120
X134620Y71120
X147320Y71120
X147320Y78740
X137160Y71120
X139700Y71120
X144780Y71120
X142240Y71120
X144780Y78740
X142240Y78740
X139700Y78740
X137160Y78740
X134620Y78740
X132080Y78740
X132080Y88900
X134620Y88900
X147320Y88900
X149860Y88900
X137160Y88900
X139700Y88900
X144780Y88900
X142240Y88900
X149860Y96520
X147320Y96520
X144780Y96520
X142240Y96520
X139700Y96520
X137160Y96520
X134620Y96520
X132080Y96520
X129540Y83820
X132080Y83820
X134620Y83820
X137160Y83820
X139700Y83820
X142240Y83820
X144780Y83820
X147320Y83820
X149860Y83820
X156210Y71120
X158750Y71120
X171450Y71120
X171450Y78740
X161290Y71120
X163830Y71120
X168910Y71120
X166370Y71120
X168910Y78740
X166370Y78740
X163830Y78740
X161290Y78740
X158750Y78740
X156210Y78740
X156210Y88900
X158750Y88900
X171450Y88900
X173990Y88900
X161290Y88900
X163830Y88900
X168910Y88900
X166370Y88900
X173990Y96520
X171450Y96520
X168910Y96520
X166370Y96520
X163830Y96520
X161290Y96520
X158750Y96520
X156210Y96520
X153670Y83820
X156210Y83820
X158750Y83820
X161290Y83820
X163830Y83820
X166370Y83820
X168910Y83820
X171450Y83820
X173990Y83820
X110490Y161290
X113030Y161290
X115570Y161290
X118110Y161290
X118110Y168910
X115570Y168910
X113030Y168910
X110490Y168910
X107950Y156210
X110490Y156210
X113030Y156210
X115570Y156210
X118110Y156210
X158750Y48260
X-29210Y77470
X-29210Y74930
X-29210Y72390
X-29210Y69850
X-29210Y67310
X-29210Y64770
X-29210Y62230
X-29210Y59690
X-29210Y57150
X-29210Y54610
X-29210Y52070
X-29210Y49530
X-29210Y46990
X-29210Y44450
X-13970Y44450
X-13970Y46990
X-13970Y49530
X-13970Y52070
X-13970Y54610
X-13970Y57150
X-13970Y59690
X-13970Y62230
X-13970Y64770
X-13970Y67310
X-13970Y69850
X-13970Y72390
X-13970Y74930
X-13970Y77470
X-2540Y77470
X-2540Y74930
X-2540Y72390
X-2540Y69850
X-2540Y67310
X-2540Y64770
X-2540Y62230
X-2540Y59690
X-2540Y57150
X-2540Y54610
X-2540Y52070
X-2540Y49530
X-2540Y46990
X-2540Y44450
X12700Y44450
X12700Y46990
X12700Y49530
X12700Y52070
X12700Y54610
X12700Y57150
X12700Y59690
X12700Y62230
X12700Y64770
X12700Y67310
X12700Y69850
X12700Y72390
X12700Y74930
X12700Y77470
X123190Y19050
X125730Y19050
X128270Y19050
X130810Y19050
X133350Y19050
X135890Y19050
X138430Y19050
X140970Y19050
X143510Y19050
X146050Y19050
X146050Y26670
X143510Y26670
X140970Y26670
X138430Y26670
X135890Y26670
X133350Y26670
X130810Y26670
X128270Y26670
X125730Y26670
X123190Y26670
X152400Y19050
X154940Y19050
X157480Y19050
X160020Y19050
X162560Y19050
X165100Y19050
X167640Y19050
X170180Y19050
X172720Y19050
X175260Y19050
X175260Y26670
X172720Y26670
X170180Y26670
X167640Y26670
X165100Y26670
X162560Y26670
X160020Y26670
X157480Y26670
X154940Y26670
X152400Y26670
X120650Y13970
X123190Y13970
X125730Y13970
X128270Y13970
X130810Y13970
X133350Y13970
X135890Y13970
X138430Y13970
X140970Y13970
X146050Y13970
X148590Y13970
X151130Y13970
X153670Y13970
X156210Y13970
X158750Y13970
X161290Y13970
X163830Y13970
X166370Y13970
X129540Y161290
T8
X141288Y151765
X61912Y62865
X56197Y114617
X55880Y7620
X77788Y7620
X171450Y76200
X171450Y65405
X112077Y76200
X-80328Y176530
X-33973Y173038
X-11112Y117475
X-25400Y114617
X24765Y57150
X-77788Y7620
X-31432Y48577
X-33973Y9525
X-5080Y55880
X48577Y39370
X-4445Y27622
X44132Y43180
X31750Y114617
X74613Y7620
X151130Y77470
X121602Y46355
X-27940Y91440
X-30480Y27305
X-32385Y157798
X-27940Y143828
X66040Y88265
X15875Y21907
X29210Y77470
X41593Y34925
X32702Y106680
X-7620Y80010
X-26670Y20320
X-17145Y86678
X35243Y10478
X-32385Y13652
X-28257Y9525
X-35560Y14605
X-31432Y14605
X-57467Y19685
X-28892Y20003
X-24130Y7620
X-44132Y13652
X-23177Y13017
X-40640Y12700
X-38418Y12700
X-22225Y11430
X-37148Y12700
X-33020Y28892
X-20638Y29210
X-15240Y10160
X35560Y12065
X26987Y11747
X24130Y7620
X25400Y14605
X40323Y20638
X28257Y16192
X45720Y19685
X33020Y19685
X30480Y7620
X48260Y33655
X35878Y33655
X33020Y13017
X33020Y7620
X41593Y83185
X-21590Y83185
X5080Y66040
X3492Y30797
X-60007Y68580
X-60007Y77470
X73025Y49530
X-635Y36195
X-69850Y89535
X-48577Y89535
X31115Y28575
X6032Y72073
X-78105Y77153
X-65087Y78423
X-64452Y75248
X29845Y27622
X68580Y73343
X32067Y73343
X7302Y75248
X8890Y73660
X-64452Y80328
X-31115Y78423
X-60960Y78423
X-47307Y69533
X-36830Y63500
X78423Y52070
X21590Y64452
X-54927Y46672
X-26352Y50800
X-24765Y58102
X-63500Y79375
X-48577Y79693
X19050Y66993
X88265Y58737
X19050Y58737
X-15875Y61277
X-53340Y52070
X18098Y69850
X20638Y60642
X-77153Y79058
X-62547Y77153
X-61912Y67628
X6985Y73343
X8573Y48895
X-77153Y84455
X-28257Y87630
X-21590Y54292
X-69850Y48260
X-61595Y29527
X-21907Y30162
X-7620Y176847
X-10478Y54927
X-3175Y171133
X-73343Y49530
X-74613Y128587
X-78740Y132715
X-18415Y175895
X-3175Y169863
X-73343Y46672
X-75883Y168593
X-10478Y50165
X-71438Y42228
X23812Y152400
X-67628Y161290
X-11112Y47307
X-12065Y159385
X-71120Y40640
X22542Y155575
X-69215Y162243
X-16828Y160338
X-7302Y44132
X16828Y161290
X-39688Y44132
X-40323Y30480
X1270Y52387
X20320Y140970
X6032Y139700
X-84138Y36830
X-33020Y31432
X-20638Y51752
X-18098Y27940
X18733Y152400
X-19368Y157163
X-76835Y100965
X-20638Y100965
X50800Y133668
X20955Y137795
X-45402Y47942
X9843Y42863
X-37465Y40323
X-46990Y105410
X-50482Y101917
X-77470Y116840
X21590Y126682
X-39053Y126365
X49847Y129222
X22225Y137795
X47942Y134620
X-79693Y156528
X21590Y122555
X-48260Y120650
X46037Y128587
X20638Y128587
X-77788Y153353
X-50800Y126365
X-47942Y46990
X-53340Y120650
X-69215Y124460
X43498Y122872
X24130Y123507
X18415Y121602
X-71755Y146050
X-52387Y126682
X41275Y121285
X24765Y121920
X-51752Y118745
X38418Y116522
X-70168Y163830
X-58420Y143193
X-48260Y37465
X-9208Y47307
X-39370Y39688
X-12382Y41593
X-1587Y145098
X37783Y139700
X-38418Y32385
X-56515Y33020
X-6985Y49212
X-8255Y34608
X-61277Y167640
X33973Y129540
X635Y142558
X110807Y120332
X33973Y120332
X-59372Y140018
X-67310Y118427
X-50482Y22225
X81280Y118110
X37783Y104140
X-6667Y19050
X154623Y100647
X113347Y106362
X112395Y104140
X14922Y146050
X-37148Y152718
X19050Y137795
X68898Y129222
X95567Y87630
X3492Y152400
X-635Y168910
X17463Y154940
X18098Y147003
X-35243Y149543
X19050Y81280
X81280Y79693
X5080Y135890
X-81598Y159703
X68898Y92710
X150813Y39688
X57467Y44767
X56197Y53022
X173673Y34290
X175260Y44132
X53022Y44767
X152400Y50165
X62865Y42228
X61912Y56832
X55880Y75883
X149860Y46037
X155893Y86043
X58102Y75883
X57150Y65723
X35560Y65087
X146050Y45402
X128905Y50482
X138113Y29527
X46037Y43180
X129540Y25082
X126682Y30797
X44767Y35560
X127635Y57785
X126682Y51435
X43180Y48577
X126365Y56832
X37465Y28257
X118745Y55880
X118745Y24765
X42863Y52705
X125730Y54927
X35560Y51435
X123190Y53340
X41275Y51117
X51752Y134620
X-33020Y77470
X-52705Y76200
X-35560Y142240
X1270Y144463
X64770Y76518
X105092Y76518
X63182Y26987
X72390Y96202
X17780Y98425
X27940Y88265
X36513Y7937
X41593Y13335
X60642Y17463
X59372Y96202
X86043Y79058
X-41593Y104457
X85090Y97155
X-46355Y103505
X76835Y98107
X39688Y7937
X43498Y12065
X59372Y14287
X-55562Y132398
X59372Y89535
X75883Y80963
X53340Y80963
X-21907Y106362
X52705Y126682
X-3810Y130492
X-27622Y130492
X-36513Y54292
X-38418Y33973
X-59372Y33020
X-77788Y33020
X106045Y93662
X66358Y100647
X78423Y27940
X60960Y151130
X-26670Y167958
X-35560Y56515
X-36195Y34925
X-60642Y34290
X-73978Y35243
X1587Y167958
X69533Y107950
X65405Y27940
X-33655Y61912
X-34608Y35878
X80010Y66358
X58102Y64452
X57467Y27622
X-61595Y35243
X-78105Y41593
X45720Y40958
X-27305Y37148
X-62230Y40005
X-76835Y41593
X72390Y25082
X78105Y80963
X-52705Y82868
X-27305Y82233
X-62230Y41275
X-75883Y44132
X75565Y26987
X3492Y70803
X6350Y76200
X82550Y74930
X-36513Y83503
X-33655Y70168
X-64452Y81598
X-76200Y80010
X69215Y18733
X44767Y18733
X-4763Y119697
X-6667Y36195
X55880Y105092
X14605Y99695
X5398Y108902
X12382Y84138
X75883Y93980
X54610Y103187
X90170Y97155
X51117Y79058
X113347Y79058
X120332Y95250
X130810Y99695
X89217Y94932
X155893Y93980
X128270Y107632
X120967Y92392
X161608Y100647
X154623Y114617
X155575Y120332
X145415Y136843
X143193Y135890
X141605Y130810
X143193Y141923
X134620Y124777
X148273Y140970
X148273Y153670
X49530Y110807
X13652Y122555
X-36513Y122555
X13652Y104140
X61595Y104140
X83185Y104140
X61912Y71438
X58102Y83820
X-34925Y100012
X91440Y86043
X47307Y83820
X38735Y98425
X45720Y91440
X60007Y147955
X44767Y79058
X48260Y75565
X96520Y158115
X-68898Y85408
X-37783Y86043
X20955Y89217
X35878Y144780
X-65087Y83503
X74613Y124777
X-56197Y88582
X-52387Y125412
X101917Y126047
X-19368Y149543
X-19685Y84455
X169228Y80963
X177165Y78423
X164148Y67628
X137478Y81598
X150813Y80645
X152400Y73660
X125730Y82550
X130492Y69215
X127000Y79375
X128905Y73025
X128270Y81915
X129857Y73978
X134303Y73978
X138430Y49847
X140335Y46037
X-33973Y33973
X-4763Y115887
X77153Y71755
X75883Y85408
X41593Y85725
X107632Y51752
X92392Y86995
X33020Y85725
X39688Y65723
X145733Y74930
X38100Y73978
X-59372Y82868
X-40640Y81280
X39053Y75565
X-54292Y49847
X23177Y55245
X24130Y64452
X33973Y73978
X15557Y68263
X66993Y65087
X57150Y66993
X48577Y55245
X52070Y54927
X176212Y51117
X43180Y56197
X128905Y30797
X52070Y42228
X112712Y23495
X90487Y45720
X50165Y46990
X152400Y55880
X119380Y162878
X49847Y36830
X49847Y44450
X40323Y36830
X5715Y146050
X-6667Y146685
X10160Y147003
X33020Y115570
X-6350Y52387
X-50800Y41275
X2223Y147003
X-2857Y147003
X41910Y139700
X42545Y116522
M30